<svg width="166" height="48" viewBox="0 0 166 48" fill="none" xmlns="http://www.w3.org/2000/svg">
<path d="M45.3995 18.0571H38.4032C36.4795 18.0571 35.3527 16.6404 35.3527 15.0161C35.3527 12.5726 37.3864 12.0428 38.4032 12.0428H50.6485C55.1051 12.0428 58.7189 8.35999 58.7189 3.81835C58.7189 3.81835 58.6937 0.623325 55.5837 0.623325H35.923C32.3389 0.623325 21.628 3.14153 21.628 15.3522C21.628 21.3665 24.5891 25.7121 29.3182 27.9876C31.661 29.1148 34.2672 29.6772 37.1413 29.6772H43.943C46.2423 29.6772 47.4561 31.3273 47.4561 33.122C47.4561 35.4698 44.756 36.5014 43.943 36.5014H17.4393C15.3118 36.5014 14.3225 34.562 14.3225 33.2574V8.84543C14.3225 4.30378 10.7086 0.62099 6.25205 0.62099H3.13519C1.40385 0.62099 0 2.05163 0 3.81601V33.122C0 46.0304 12.2201 47.9185 15.582 47.9185H46.0591C58.4006 47.9185 61.1762 37.3719 61.1762 32.3098C61.1762 19.6768 49.4324 18.0524 45.3972 18.0524L45.3995 18.0571Z" fill="#018762"/>
<path d="M129.914 32.2748C127.505 32.2748 126.303 34.3659 126.303 35.7826V40.3826C126.303 41.5705 126.04 42.4947 125.52 43.1318C124.407 44.4948 122.455 44.1727 121.7 43.4002C121.01 42.6977 121.072 41.3418 121.072 40.3312V33.388C121.072 32.3822 119.989 32.2725 119.978 32.2725C117.568 32.2725 116.366 34.3636 116.366 35.7802V41.5401C116.366 43.0385 117.055 48.0002 122.284 48.0002C125.423 48.0002 126.106 46.4529 126.317 46.1005V46.5299C126.317 47.146 126.807 47.6455 127.409 47.6455H128.245C129.768 47.6455 131.007 46.3828 131.007 44.8308V33.3857C131.007 32.3798 129.924 32.2701 129.912 32.2701L129.914 32.2748Z" fill="#018762"/>
<path d="M126.466 26.2792C125.888 26.2792 125.343 26.5452 125 26.9957L123.067 30.4311C122.84 30.7275 122.76 31.0822 122.845 31.4066C122.982 31.9271 123.47 32.2911 124.033 32.2911C125.882 32.2911 127.544 30.8558 128.373 29.3038L129.072 27.9946C129.248 27.6655 129.269 27.2991 129.129 26.991C128.937 26.5592 128.492 26.2815 128.002 26.2815H126.466V26.2792Z" fill="#018762"/>
<path d="M88.9807 35.2551H85.8821C85.4401 35.2551 84.318 34.9681 84.318 33.6331C84.318 33.311 84.5264 31.9831 85.8821 31.9831H91.1036C94.1403 31.9831 94.0258 28.7647 94.0258 28.7647C94.0258 28.1696 93.5495 27.6842 92.9655 27.6842H85.3623C80.4041 27.6842 79.4148 32.0741 79.4148 33.7731C79.4148 36.226 80.6125 38.1047 82.5111 39.0336C83.4454 39.491 84.4989 39.7244 85.6371 39.7244H88.5982C88.9761 39.7244 90.3548 40.0045 90.3548 41.5425C90.3548 41.8739 90.0891 43.3325 88.5982 43.3325H83.1294C80.0927 43.3325 80.2095 46.5509 80.2095 46.5509C80.2095 47.146 80.6858 47.6314 81.2698 47.6314H89.2555C94.2938 47.6314 95.2304 43.0781 95.2304 41.1224C95.2304 35.9179 90.5517 35.2575 88.9807 35.2575V35.2551Z" fill="#018762"/>
<path d="M113.382 33.3694C113.382 32.7556 112.892 32.2981 112.29 32.2981C112.29 32.2981 109.846 32.2631 109.232 34.6203C108.509 33.3484 107.313 31.9411 104.409 31.9597C101.24 31.9807 99.5359 33.5234 98.487 35.4932C97.5 37.3462 97.5458 39.9601 97.5458 39.9601C97.5458 45.2136 100.759 47.9979 104.412 47.9979C107.489 47.9979 108.74 46.4179 109.095 45.9254C109.095 45.9254 108.818 47.6431 110.141 47.6431H110.872C112.28 47.6431 113.384 46.5182 113.384 45.0876V33.3694H113.382ZM105.493 44.077C101.773 44.077 102.112 39.8784 102.112 39.8784C102.112 36.9471 103.986 36.114 105.493 36.114C107.359 36.114 108.873 37.2459 108.873 39.8784C108.873 39.8784 109.219 44.077 105.493 44.077Z" fill="#018762"/>
<path d="M162.569 32.9703C160.618 31.773 157.375 31.5 154.733 33.0146C152.708 34.1746 151.178 36.4314 151.178 39.9321C151.178 39.9321 150.867 44.8705 154.776 47.09C157.208 48.4716 160.765 48.0142 162.171 47.314C164.633 46.0865 164.896 44.8519 164.866 44.2941C164.791 42.9334 163.048 42.3477 163.048 42.3477C161.608 41.5775 161.706 44.0513 158.928 44.0513C156.407 44.0513 155.745 42.3336 155.605 41.3558H164.47C165.368 41.3558 166 40.5996 166 39.7874C166 37.1665 165.059 34.4966 162.569 32.968V32.9703ZM155.738 38.002C155.738 37.4886 156.704 36.1116 158.722 36.1116C160.595 36.1116 161.619 37.0568 161.619 38.002H155.738Z" fill="#018762"/>
<path d="M147.926 26.5336H147.906C146.98 26.5336 146.069 26.9187 145.403 27.5931C144.748 28.2583 144.386 29.1265 144.386 30.0437V33.5818C142.909 31.8594 141.12 31.9084 140.06 31.9084C133.137 31.9084 133.272 39.9555 133.272 39.9555C133.272 47.2324 138.633 47.9792 140.06 47.9792C143.27 47.9792 144.129 46.4412 144.443 46.0374V46.5089C144.443 47.125 144.935 47.6244 145.538 47.6244H146.374C147.823 47.6244 149 46.4225 149 44.9475V27.6491C149 27.0377 148.519 26.5359 147.926 26.5336ZM141.17 44.049C137.511 44.049 137.854 39.9648 137.854 39.9648C137.854 36.9775 139.677 36.0836 141.17 36.0836C142.794 36.0836 144.487 37.1175 144.487 39.8294C144.487 39.9648 144.919 44.049 141.17 44.049Z" fill="#018762"/>
<path d="M121.991 20.951C127.171 20.951 128.687 17.2402 128.893 16.7665C129.985 14.2739 126.479 13.9145 126.479 13.9145C125.79 13.7652 125.107 14.1642 124.892 14.8411C124.578 15.8329 123.827 16.7781 122.075 16.7781C119.112 16.7781 118.734 14.2389 118.734 12.89C118.734 12.89 118.617 9.04381 122.075 9.04381C124.313 9.04381 124.819 10.7498 124.892 10.9809C125.107 11.66 125.79 12.0568 126.479 11.9074C126.484 11.9074 129.992 11.5597 128.893 9.05548C127.78 6.51393 125.435 4.87324 121.991 4.87324C113.817 4.87324 114.241 12.89 114.241 12.89C114.241 18.7082 118.23 20.951 121.991 20.951Z" fill="#018762"/>
<path d="M162.885 5.26066H162.061C160.595 5.26066 159.402 6.47658 159.402 7.97024V19.469C159.402 20.0922 159.901 20.601 160.513 20.601H161.349C162.833 20.601 163.996 19.364 163.996 17.7864V6.39257C163.996 5.76943 163.497 5.26066 162.885 5.26066Z" fill="#018762"/>
<path d="M161.928 0.000190735H161.374C160.156 0.000190735 159.169 1.00642 159.169 2.24768V2.25001C159.169 3.49126 160.156 4.49749 161.374 4.49749H161.928C163.146 4.49749 164.134 3.49126 164.134 2.25001V2.24768C164.134 1.00642 163.146 0.000190735 161.928 0.000190735Z" fill="#018762"/>
<path d="M135.96 17.7537V11.7977C136.047 10.5188 136.906 9.88398 139.26 9.88398C139.26 9.88398 142.013 10.122 142.013 7.91189C142.002 6.5536 142.208 5.25832 140.882 5.25832H140.422C138.983 5.25832 137.593 5.81844 136.572 6.85C136.37 7.05304 136.167 7.28176 135.965 7.53848C135.965 7.42646 135.976 6.40657 135.974 6.17085C135.97 5.78577 135.621 5.29333 134.909 5.29333C134.889 5.29333 134.573 5.305 134.47 5.305C133.505 5.305 131.256 6.0845 131.256 8.78242V19.441C131.256 20.0665 131.753 20.573 132.367 20.573H133.203C134.728 20.573 135.965 19.3127 135.965 17.7583L135.96 17.7537Z" fill="#018762"/>
<path d="M111.857 6.32022C111.857 5.70642 111.367 5.24898 110.764 5.24898C110.764 5.24898 108.321 5.21398 107.707 7.57115C106.983 6.29921 105.788 4.89191 102.884 4.91058C99.7145 4.93158 98.0107 6.47425 96.9618 8.44401C95.9747 10.2971 96.0205 12.911 96.0205 12.911C96.0205 18.1644 99.2336 20.9487 102.886 20.9487C105.964 20.9487 107.215 19.3687 107.57 18.8763C107.57 18.8763 107.293 20.594 108.616 20.594H109.347C110.755 20.594 111.859 19.469 111.859 18.0384V6.32022H111.857ZM103.967 17.0279C100.248 17.0279 100.587 12.8293 100.587 12.8293C100.587 9.89799 102.46 9.06481 103.967 9.06481C105.834 9.06481 107.348 10.1967 107.348 12.8293C107.348 12.8293 107.693 17.0279 103.967 17.0279Z" fill="#018762"/>
<path d="M153.908 5.9328C151.957 4.73554 148.714 4.46248 146.071 5.97714C144.047 7.13706 142.517 9.39388 142.517 12.8946C142.517 12.8946 142.206 17.833 146.115 20.0525C148.547 21.4341 152.104 20.9767 153.51 20.2766C155.972 19.049 156.235 17.8144 156.205 17.2566C156.13 15.8959 154.387 15.3102 154.387 15.3102C152.946 14.54 153.045 17.0139 150.267 17.0139C147.745 17.0139 147.084 15.2961 146.944 14.3183H155.809C156.707 14.3183 157.339 13.5621 157.339 12.7499C157.339 10.129 156.397 7.45913 153.908 5.93047V5.9328ZM147.077 10.9645C147.077 10.4511 148.043 9.07414 150.061 9.07414C151.934 9.07414 152.958 10.0193 152.958 10.9645H147.077Z" fill="#018762"/>
<path d="M83.0149 20.4539H90.8632C91.2433 20.4539 91.9235 20.3816 92.2052 20.2439C94.2938 19.2217 94.761 16.001 92.9747 16.001H85.8592C85.3646 16.001 84.9615 15.5902 84.9615 15.0861L85.0142 3.35391C85.0142 1.77624 83.7546 0.49263 82.2065 0.49263H81.4324C80.8118 0.49263 80.2438 1.00608 80.2438 1.63854L80.2553 17.6393C80.2553 19.1913 81.4942 20.4539 83.0172 20.4539H83.0149Z" fill="#018762"/>
</svg>
