<?xml version="1.0" encoding="utf-8"?>
<!-- Generator: Adobe Illustrator 18.0.0, SVG Export Plug-In . SVG Version: 6.00 Build 0)  -->
<!DOCTYPE svg PUBLIC "-//W3C//DTD SVG 1.1//EN" "http://www.w3.org/Graphics/SVG/1.1/DTD/svg11.dtd">
<svg version="1.1" id="Camada_1" xmlns="http://www.w3.org/2000/svg" xmlns:xlink="http://www.w3.org/1999/xlink" x="0px" y="0px"
	 viewBox="0 0 150 150" enable-background="new 0 0 150 150" xml:space="preserve">
<path fill="#018383" d="M145.3,37.7c-4-15.6-16.6-25.5-34-27.4c-1.5-0.2-3-0.2-4.4-0.2c-15.1,0-25.9,8.8-32,20.9
	c-6.4-12.6-17.4-20.7-33.4-20.7c-1.1,0-2.1,0-3.2,0.1c-15.9,1-29.5,10.5-33.8,29.1c-7.7,33.3,28.9,67.4,70.4,100.5
	C119.1,107,153.6,69.8,145.3,37.7L145.3,37.7z M104.6,86.8c-5.9,0-11.8,0-17.7,0c0,6,0,12,0,17.9c0,1.4,0,2.9,0,4.3
	c-7.9,0-15.8,0-23.7,0c0-2.9,0-5.7,0-8.6c0-4.5,0-9.1,0-13.6c-7.4,0-14.8,0-22.2,0c0-7.8,0-15.7,0-23.5c7.4,0,14.8,0,22.1,0
	c0-7.4,0-14.8,0-22.3c7.9,0,15.7,0,23.6,0c0,7.4,0,14.8,0,22.3c7.4,0,14.8,0,22.3,0c0,7.8,0,15.7,0,23.5
	C107.5,86.8,106.1,86.8,104.6,86.8L104.6,86.8z"/>
</svg>
