<svg width="513" height="461" viewBox="0 0 513 461" fill="none" xmlns="http://www.w3.org/2000/svg">
<g clip-path="url(#clip0_12635_57535)">
<path d="M5.59131 415.898V443.308H11.914C11.5825 440.423 11.5825 437.511 11.914 434.626C12.5146 431.405 19.3833 423.084 19.1758 415.942L5.59131 415.898Z" fill="#EBEBEB"/>
<path d="M56.1724 415.898V443.308H62.495C62.1635 440.423 62.1635 437.511 62.495 434.626C63.0956 431.405 69.9643 423.084 69.7568 415.942L56.1724 415.898Z" fill="#E0E0E0"/>
<path d="M105.684 415.898V443.308H99.3501C99.6757 440.423 99.6757 437.511 99.3501 434.626C98.7386 431.405 91.8808 423.084 92.0774 415.942L105.684 415.898Z" fill="#EBEBEB"/>
<path d="M149.451 415.898V443.308H143.129C143.454 440.423 143.454 437.511 143.129 434.626C142.528 431.405 135.659 423.084 135.867 415.942L149.451 415.898Z" fill="#E0E0E0"/>
<path d="M152.771 280.742H1.28857V416.773H152.771V280.742Z" fill="#F5F5F5"/>
<path d="M111.963 280.742L113.088 416.773H152.771V280.742H111.963Z" fill="#E0E0E0"/>
<path d="M105.356 290.754H8.10205V325.37H105.356V290.754Z" fill="#EBEBEB"/>
<path d="M105.356 332.262H8.10205V366.878H105.356V332.262Z" fill="#EBEBEB"/>
<path d="M105.356 373.781H8.10205V408.398H105.356V373.781Z" fill="#EBEBEB"/>
<path d="M45.3832 241.66L41.1899 280.59H94.9382L99.3935 241.66H45.3832Z" fill="#E0E0E0"/>
<path d="M47.6002 244.457L43.5161 278.517H92.0228L95.943 244.457H47.6002Z" fill="white"/>
<path d="M55.7577 250.188L53.2461 272.792H83.8549L85.4273 250.188H55.7577Z" fill="#EBEBEB"/>
<path d="M97.4719 258.422L108.578 280.742L94.9385 280.589L97.4719 258.422Z" fill="#EBEBEB"/>
<path d="M60.2888 309.865C60.2909 310.57 60.084 311.259 59.6941 311.846C59.3043 312.433 58.7491 312.891 58.0988 313.162C57.4485 313.433 56.7323 313.505 56.0411 313.369C55.3498 313.233 54.7145 312.895 54.2155 312.397C53.7165 311.9 53.3764 311.266 53.2382 310.575C53.0999 309.884 53.1698 309.168 53.4389 308.517C53.708 307.865 54.1643 307.309 54.7499 306.917C55.3356 306.525 56.0243 306.316 56.7288 306.316C57.6711 306.316 58.5749 306.69 59.2422 307.355C59.9095 308.02 60.2859 308.923 60.2888 309.865Z" fill="#E0E0E0"/>
<path d="M60.2888 351.798C60.2888 352.502 60.08 353.191 59.6888 353.776C59.2977 354.361 58.7417 354.818 58.0912 355.087C57.4407 355.357 56.7249 355.427 56.0344 355.29C55.3438 355.152 54.7095 354.813 54.2116 354.315C53.7138 353.818 53.3747 353.183 53.2374 352.493C53.1 351.802 53.1705 351.086 53.4399 350.436C53.7094 349.785 54.1657 349.229 54.7511 348.838C55.3365 348.447 56.0248 348.238 56.7289 348.238C57.1968 348.237 57.6603 348.328 58.0929 348.506C58.5255 348.685 58.9185 348.947 59.2493 349.278C59.5802 349.609 59.8424 350.002 60.0207 350.434C60.1991 350.867 60.2902 351.33 60.2888 351.798Z" fill="#E0E0E0"/>
<path d="M60.2888 393.72C60.2888 394.424 60.08 395.112 59.6888 395.698C59.2977 396.283 58.7417 396.74 58.0912 397.009C57.4407 397.278 56.7249 397.349 56.0344 397.212C55.3438 397.074 54.7095 396.735 54.2116 396.237C53.7138 395.739 53.3747 395.105 53.2374 394.415C53.1 393.724 53.1705 393.008 53.4399 392.358C53.7094 391.707 54.1657 391.151 54.7511 390.76C55.3365 390.369 56.0248 390.16 56.7289 390.16C57.673 390.16 58.5785 390.535 59.2461 391.203C59.9137 391.87 60.2888 392.776 60.2888 393.72Z" fill="#E0E0E0"/>
<path d="M105.203 59.6112L19.3169 58.7812L21.7084 170.711L107.594 171.028L105.203 59.6112Z" fill="#E0E0E0"/>
<path d="M99.6666 64.6039L24.4824 62.6602L26.6555 164.172L101.818 165.101L99.6666 64.6039Z" fill="#FAFAFA"/>
<path d="M86.8354 79.7713L36.9419 78.9414L38.4707 149.9L88.3096 148.829L86.8354 79.7713Z" fill="#EBEBEB"/>
<path d="M38.4707 149.9L87.5342 112.378L36.9419 78.9414L38.4707 149.9Z" fill="#F5F5F5"/>
<path d="M474.791 1.2668L399.432 0.535156L401.539 98.7387L476.876 99.0117L474.791 1.2668Z" fill="#E0E0E0"/>
<path d="M469.92 5.65585L403.963 3.94141L405.874 92.994L471.809 93.8021L469.92 5.65585Z" fill="#FAFAFA"/>
<path d="M458.662 18.9582L414.905 18.2266L416.238 80.4706L459.961 79.5424L458.662 18.9582Z" fill="#EBEBEB"/>
<path d="M416.238 80.4706L459.284 47.5577L414.905 18.2266L416.238 80.4706Z" fill="#F5F5F5"/>
<path d="M390.38 370.473C390.063 371.434 401.3 414.153 401.3 414.153L409.009 412.547L398.406 370.473H390.38Z" fill="#EBEBEB"/>
<path d="M450.123 364.367L434.704 414.151H443.702L458.476 367.905L450.123 364.367Z" fill="#F5F5F5"/>
<path d="M464.253 356.66L446.584 414.154H455.583L472.607 360.198L464.253 356.66Z" fill="#EBEBEB"/>
<path d="M395.839 410.625L404.837 441.78H450.123L458.476 410.625H395.839Z" fill="#E0E0E0"/>
<path d="M419.197 410.623C419.158 410.516 419.125 410.406 419.099 410.295L418.859 409.345C418.651 408.472 418.367 407.238 417.996 405.665L414.884 392.059L404.717 346.686L404.99 346.916H397.062L397.335 346.566C401.365 364.42 404.979 380.418 407.567 391.971C408.834 397.726 409.86 402.367 410.581 405.621C410.909 407.205 411.182 408.439 411.367 409.323C411.444 409.727 411.509 410.044 411.553 410.284C411.571 410.396 411.571 410.511 411.553 410.623C411.514 410.516 411.481 410.406 411.455 410.295C411.389 410.055 411.313 409.738 411.215 409.345C410.996 408.472 410.701 407.238 410.319 405.665C409.566 402.389 408.485 397.792 407.141 392.059C404.488 380.505 400.83 364.529 396.746 346.686L396.658 346.348H405.176L405.23 346.566C409.151 364.42 412.678 380.418 415.222 391.971C416.456 397.726 417.461 402.367 418.16 405.621C418.487 407.205 418.738 408.439 418.924 409.323L419.11 410.284C419.157 410.392 419.186 410.506 419.197 410.623Z" fill="#E0E0E0"/>
<path d="M463.456 443.077C463.456 443.23 359.781 443.361 231.952 443.361C104.122 443.361 0.447754 443.23 0.447754 443.077C0.447754 442.924 104.1 442.793 232.006 442.793C359.912 442.793 463.456 442.924 463.456 443.077Z" fill="#263238"/>
<path d="M433.645 145.03C433.395 144.925 433.135 144.844 432.87 144.79C432.09 144.614 431.28 144.614 430.5 144.79C429.236 145.115 428.06 145.719 427.06 146.559C425.7 147.736 424.523 149.109 423.566 150.632C421.327 154.061 419.569 158.8 417.516 164.326C415.141 170.635 413.085 177.061 411.357 183.578C411.036 184.179 410.607 184.715 410.091 185.161C409.824 185.403 409.509 185.585 409.166 185.695C408.823 185.804 408.46 185.838 408.103 185.794C407.402 185.616 406.768 185.236 406.279 184.702C405.766 184.233 405.286 183.73 404.805 183.217C403.857 182.175 402.847 181.19 401.78 180.269C400.75 179.277 399.378 178.718 397.948 178.707C397.232 178.829 396.55 179.1 395.946 179.503C395.342 179.906 394.83 180.431 394.442 181.044C393.667 182.371 393.249 183.876 393.23 185.412C393.044 188.535 393.951 191.691 394.497 194.956C395.043 198.221 395.731 201.574 396.364 204.992C396.692 206.706 397.008 208.431 397.336 210.179L397.827 212.821C397.977 213.283 398.027 213.771 397.972 214.253C397.918 214.736 397.76 215.201 397.511 215.617C397.347 215.836 397.12 216 396.861 216.088C396.602 216.176 396.322 216.183 396.058 216.108C395.587 215.971 395.146 215.745 394.759 215.442L392.575 213.782C391.089 212.659 389.543 211.617 387.945 210.659C386.345 209.664 384.598 208.926 382.769 208.475C381.864 208.262 380.922 208.262 380.017 208.475C379.116 208.703 378.321 209.235 377.767 209.982C376.717 211.603 376.201 213.513 376.293 215.442C376.296 217.429 376.49 219.411 376.872 221.361C377.66 225.369 378.774 229.306 380.203 233.133C380.618 234.111 380.936 235.128 381.153 236.168C381.205 236.463 381.196 236.765 381.126 237.057C381.057 237.348 380.928 237.621 380.749 237.861C380.651 237.974 380.545 238.08 380.432 238.178C380.308 238.289 380.163 238.374 380.006 238.429C379.673 238.479 379.334 238.401 379.056 238.21C378.149 237.628 377.304 236.955 376.533 236.201L374.197 234.017C372.666 232.535 371.003 231.198 369.228 230.02C368.343 229.439 367.375 228.997 366.356 228.71C365.872 228.56 365.362 228.514 364.859 228.576C364.357 228.639 363.873 228.807 363.44 229.07C362.597 229.683 362.01 230.585 361.791 231.604C361.529 232.646 361.396 233.717 361.398 234.792C361.409 237.001 361.683 239.201 362.217 241.344C363.296 245.701 364.891 249.913 366.967 253.891C369.035 257.971 371.396 261.894 374.033 265.63C375.352 267.526 376.774 269.349 378.292 271.09C379.755 272.903 381.24 274.705 382.725 276.55V276.616L382.463 276.507L389.408 275.502C391.709 275.228 393.995 274.834 396.255 274.323C400.711 273.32 405.09 272.003 409.359 270.381C413.571 268.823 417.584 266.774 421.316 264.276C423.149 263.063 424.825 261.629 426.307 260.007C427.038 259.212 427.665 258.327 428.174 257.375C428.695 256.474 428.866 255.413 428.655 254.394C428.514 253.906 428.271 253.454 427.941 253.068C427.612 252.682 427.203 252.37 426.744 252.155C425.794 251.691 424.783 251.368 423.741 251.194C421.634 250.876 419.503 250.748 417.374 250.812H414.186C413.089 250.855 411.992 250.785 410.91 250.605C410.574 250.561 410.268 250.389 410.058 250.124C409.978 249.975 409.93 249.812 409.916 249.644C409.899 249.495 409.899 249.345 409.916 249.196C409.949 248.9 410.041 248.614 410.185 248.353C410.329 248.093 410.523 247.863 410.757 247.678C411.616 247.056 412.534 246.518 413.498 246.073C417.132 244.204 420.605 242.038 423.883 239.597C425.469 238.414 426.932 237.076 428.251 235.6C429.614 234.237 430.515 232.48 430.828 230.577C430.919 229.651 430.688 228.721 430.172 227.946C429.65 227.176 428.955 226.54 428.141 226.089C426.495 225.184 424.714 224.546 422.867 224.2C421.041 223.832 419.197 223.566 417.341 223.403L414.59 223.141C414.099 223.113 413.619 222.982 413.181 222.759C412.937 222.633 412.737 222.436 412.606 222.194C412.476 221.953 412.421 221.678 412.449 221.404C412.55 220.931 412.748 220.485 413.032 220.094C413.316 219.702 413.68 219.375 414.098 219.133L416.282 217.517L420.486 214.317L428.611 208.148C431.221 206.106 434.005 204.38 435.971 201.934C436.977 200.791 437.669 199.406 437.98 197.916C438.107 197.199 438.081 196.464 437.904 195.758C437.728 195.053 437.404 194.392 436.954 193.821C436.477 193.294 435.859 192.915 435.174 192.729C434.489 192.525 433.781 192.407 433.066 192.379C431.659 192.342 430.252 192.393 428.851 192.532C428.152 192.532 427.453 192.63 426.765 192.641C426.049 192.695 425.332 192.539 424.702 192.193C424.4 191.99 424.147 191.723 423.958 191.412C423.77 191.101 423.651 190.753 423.61 190.392C423.529 189.713 423.57 189.025 423.73 188.361C426.855 182.439 429.68 176.363 432.193 170.157C434.377 164.697 436.266 160.001 436.943 155.961C437.274 154.197 437.347 152.395 437.161 150.61C437.02 149.313 436.583 148.065 435.884 146.963C435.461 146.288 434.884 145.723 434.202 145.314C433.97 145.172 433.725 145.051 433.47 144.954C433.735 145.025 433.988 145.131 434.224 145.27C434.926 145.672 435.525 146.233 435.971 146.908C436.684 148.019 437.136 149.278 437.292 150.588C437.505 152.388 437.45 154.21 437.128 155.994C436.473 160.045 434.617 164.73 432.444 170.19C429.984 176.467 427.207 182.616 424.123 188.612C423.972 189.226 423.935 189.862 424.014 190.49C424.043 190.799 424.139 191.098 424.293 191.367C424.447 191.637 424.657 191.87 424.909 192.051C425.479 192.353 426.123 192.486 426.765 192.434C427.442 192.434 428.13 192.368 428.829 192.314C430.248 192.171 431.674 192.116 433.099 192.15C433.839 192.179 434.573 192.3 435.283 192.51C436.034 192.71 436.714 193.115 437.249 193.679C437.725 194.291 438.068 194.995 438.256 195.747C438.444 196.499 438.473 197.283 438.341 198.047C438.023 199.611 437.3 201.065 436.244 202.262C434.224 204.773 431.417 206.52 428.829 208.573L420.716 214.754L416.522 217.943L414.393 219.57C414.033 219.81 413.707 220.097 413.421 220.422C413.158 220.734 412.985 221.111 412.919 221.514C412.9 221.695 412.937 221.878 413.024 222.038C413.112 222.198 413.247 222.328 413.41 222.409C413.796 222.596 414.216 222.704 414.644 222.726L417.396 222.988C419.266 223.147 421.126 223.413 422.965 223.785C424.876 224.137 426.719 224.79 428.425 225.718C429.296 226.219 430.042 226.909 430.609 227.738C431.178 228.607 431.44 229.641 431.352 230.676C431.027 232.689 430.085 234.551 428.655 236.004C427.298 237.505 425.799 238.869 424.177 240.078C420.879 242.543 417.383 244.735 413.727 246.63C412.798 247.051 411.913 247.563 411.084 248.158C410.903 248.298 410.752 248.472 410.639 248.671C410.526 248.869 410.455 249.089 410.429 249.316C410.418 249.425 410.418 249.535 410.429 249.644C410.429 249.731 410.429 249.938 410.506 249.927C410.646 250.053 410.821 250.133 411.008 250.157C412.033 250.322 413.071 250.388 414.109 250.353H417.298C419.46 250.275 421.625 250.403 423.762 250.736C424.864 250.907 425.933 251.25 426.929 251.751C427.456 252.003 427.923 252.364 428.3 252.81C428.676 253.256 428.953 253.778 429.113 254.339C429.361 255.487 429.174 256.685 428.589 257.703C428.061 258.696 427.408 259.617 426.645 260.443C425.134 262.103 423.425 263.57 421.557 264.811C417.792 267.344 413.737 269.415 409.479 270.981C405.176 272.623 400.76 273.951 396.266 274.956C393.999 275.47 391.706 275.864 389.397 276.135L382.441 277.151H382.277L382.179 277.02H382.124L377.691 271.56C376.174 269.815 374.749 267.993 373.421 266.1C370.764 262.336 368.384 258.383 366.301 254.274C364.215 250.251 362.613 245.996 361.529 241.596C360.977 239.422 360.695 237.188 360.688 234.945C360.69 233.819 360.829 232.696 361.103 231.604C361.361 230.459 362.029 229.449 362.982 228.765C363.479 228.457 364.036 228.259 364.616 228.184C365.196 228.108 365.786 228.157 366.345 228.328C367.414 228.63 368.43 229.094 369.359 229.704C371.164 230.897 372.853 232.257 374.404 233.766L376.741 235.95C377.484 236.671 378.296 237.319 379.165 237.883C379.321 237.995 379.508 238.056 379.7 238.057C379.7 238.057 379.864 237.959 379.94 237.905L380.181 237.664C380.313 237.48 380.406 237.271 380.455 237.049C380.504 236.828 380.507 236.599 380.465 236.376C380.257 235.376 379.95 234.399 379.547 233.46C378.112 229.605 376.994 225.639 376.206 221.601C375.818 219.619 375.624 217.604 375.627 215.584C375.541 213.543 376.098 211.525 377.221 209.818C377.844 208.989 378.729 208.397 379.733 208.137C380.713 207.908 381.734 207.908 382.714 208.137C384.591 208.58 386.385 209.318 388.032 210.321C389.65 211.281 391.21 212.335 392.706 213.477L394.89 215.136C395.215 215.4 395.585 215.603 395.982 215.737C396.158 215.788 396.346 215.785 396.519 215.726C396.693 215.668 396.845 215.557 396.954 215.409C397.169 215.084 397.294 214.707 397.314 214.317C397.325 213.883 397.278 213.45 397.172 213.029C397.008 212.144 396.856 211.271 396.692 210.397C396.364 208.65 396.047 206.914 395.731 205.21C395.108 201.781 394.486 198.44 393.885 195.175C393.285 191.91 392.444 188.743 392.629 185.521C392.662 183.925 393.105 182.364 393.918 180.99C394.339 180.325 394.896 179.757 395.553 179.324C396.21 178.891 396.952 178.602 397.729 178.478C398.503 178.414 399.278 178.569 399.968 178.926C400.638 179.251 401.265 179.658 401.835 180.138C402.915 181.071 403.936 182.07 404.893 183.13C405.359 183.639 405.839 184.131 406.334 184.604C406.778 185.075 407.346 185.412 407.972 185.576C408.281 185.61 408.594 185.579 408.889 185.483C409.185 185.387 409.457 185.229 409.687 185.019C410.165 184.606 410.564 184.111 410.866 183.556C412.615 177.028 414.7 170.595 417.112 164.282C419.187 158.767 420.978 154.017 423.26 150.588C424.236 149.057 425.436 147.68 426.82 146.504C427.839 145.66 429.038 145.062 430.325 144.757C431.115 144.571 431.938 144.571 432.728 144.757C433.047 144.795 433.357 144.888 433.645 145.03Z" fill="#263238"/>
<path d="M427.912 159.879C427.893 160.004 427.857 160.125 427.803 160.239L427.432 161.266C427.071 162.194 426.569 163.515 425.936 165.186C424.603 168.626 422.714 173.551 420.377 179.611L402.239 227.266C395.185 245.83 388.72 262.723 383.937 274.867C381.557 280.938 379.569 285.841 378.215 289.226C377.538 290.886 377.003 292.186 376.621 293.103C376.435 293.529 376.304 293.856 376.195 294.118L376.031 294.446C376.051 294.325 376.088 294.207 376.14 294.097C376.228 293.835 376.359 293.496 376.512 293.07C376.872 292.131 377.374 290.821 378.008 289.139C379.34 285.699 381.229 280.785 383.566 274.725L401.704 227.092C408.758 208.473 415.212 191.645 420.006 179.502C422.387 173.431 424.374 168.517 425.728 165.142C426.405 163.483 426.94 162.172 427.322 161.255C427.508 160.84 427.639 160.501 427.748 160.25L427.912 159.879Z" fill="#263238"/>
<path d="M428.502 197.609C427.639 198.227 426.726 198.772 425.772 199.236L419.089 202.949C416.468 204.402 414.087 205.701 412.329 206.586C411.405 207.11 410.428 207.535 409.414 207.852C410.284 207.245 411.196 206.702 412.144 206.225L418.805 202.458C421.426 201.005 423.817 199.739 425.586 198.876C426.515 198.362 427.492 197.938 428.502 197.609Z" fill="#263238"/>
<path d="M408.528 207.156C408.386 207.221 405.787 202.263 402.73 196.083C399.672 189.902 397.27 184.835 397.434 184.759C397.597 184.682 400.175 189.651 403.243 195.832C406.312 202.012 408.67 207.079 408.528 207.156Z" fill="#263238"/>
<path d="M398.985 236.235C398.113 235.59 397.308 234.858 396.583 234.051C395.163 232.631 393.307 230.611 391.287 228.274C389.267 225.937 387.629 223.731 386.471 222.093C385.79 221.248 385.201 220.333 384.713 219.363C385.463 220.143 386.156 220.975 386.788 221.853C388.033 223.426 389.747 225.577 391.724 227.903C393.7 230.229 395.535 232.271 396.867 233.767C397.634 234.535 398.342 235.36 398.985 236.235Z" fill="#263238"/>
<path d="M418.958 231.539C418.025 231.912 417.06 232.197 416.075 232.391C414.284 232.839 411.794 233.417 409.042 234.029C406.291 234.64 403.779 235.121 401.966 235.514C400.993 235.759 399.998 235.909 398.996 235.962C399.929 235.592 400.894 235.311 401.879 235.121C403.67 234.673 406.16 234.029 408.922 233.472C411.685 232.915 414.175 232.38 415.988 231.998C416.961 231.754 417.956 231.6 418.958 231.539Z" fill="#263238"/>
<path d="M413.793 258.293C412.581 258.713 411.34 259.045 410.08 259.287C407.765 259.822 404.62 260.532 401.038 261.274C397.457 262.017 394.279 262.672 391.953 263.109C390.707 263.406 389.44 263.607 388.164 263.709C389.375 263.286 390.616 262.954 391.876 262.716C394.18 262.18 397.336 261.471 400.918 260.728C404.5 259.986 407.667 259.33 409.993 258.894C411.242 258.596 412.512 258.395 413.793 258.293Z" fill="#263238"/>
<path d="M388.731 263.402C388.427 263.192 388.152 262.942 387.912 262.66C387.41 262.158 386.711 261.415 385.848 260.476C384.134 258.598 381.83 255.944 379.405 252.919C376.981 249.894 374.895 247.055 373.443 244.969C372.711 243.932 372.144 243.08 371.761 242.48C371.534 242.184 371.35 241.856 371.215 241.508C371.489 241.758 371.731 242.04 371.936 242.349L373.771 244.74C375.299 246.76 377.429 249.545 379.853 252.559C382.277 255.573 384.516 258.27 386.154 260.203C387.082 261.212 387.943 262.28 388.731 263.402Z" fill="#263238"/>
<path d="M377.811 336.557C358.854 321.269 356.102 295.137 358.483 271.976C358.887 268.11 358.734 263.993 360.809 260.717C362.883 257.441 367.361 255.421 370.713 257.288C373.498 258.839 374.513 262.279 375.933 265.151C377.833 268.99 380.777 272.215 384.428 274.454C386.809 275.907 389.812 276.901 392.335 275.721C395.807 274.105 396.517 269.519 396.757 265.664L398.1 244.108C398.341 240.242 398.603 236.311 400.055 232.74C401.507 229.169 404.423 225.948 408.125 225.162C411.827 224.375 416.249 226.821 416.763 230.622C416.799 232.226 416.726 233.832 416.544 235.426C416.544 237.032 417.167 238.855 418.652 239.401C420.137 239.947 421.775 238.975 423.02 237.927C427.268 234.313 430.303 229.486 433.175 224.67C436.047 219.854 438.832 214.919 442.741 210.922C446.651 206.925 451.859 203.9 457.407 203.966C462.954 204.031 468.589 207.842 469.615 213.357C470.642 218.872 467.093 224.19 463.336 228.35C457.759 234.536 451.315 239.88 444.205 244.217C442.817 244.843 441.668 245.9 440.929 247.231C439.913 249.743 442.173 252.462 444.652 253.488C447.459 254.635 450.604 254.58 453.585 255.115C456.566 255.65 459.733 257.223 460.672 260.138C461.982 264.19 458.401 268.088 454.972 270.578C448.138 275.545 440.503 279.305 432.4 281.694C429.484 282.535 426.438 283.234 424.013 285.069C421.589 286.903 419.973 290.278 421.174 293.084C422.375 295.89 425.859 297.015 428.818 296.666C431.778 296.316 434.595 294.886 437.5 294.012C442.96 292.374 449.752 293.215 452.788 298.02C454.808 301.187 454.721 305.391 453.345 308.94C451.81 312.386 449.601 315.49 446.847 318.069C437.762 327.579 426.313 334.506 413.672 338.14C401.092 341.558 389.648 341.929 377.724 336.622" fill="#018762"/>
<g opacity="0.1">
<path d="M377.811 336.557C358.854 321.269 356.102 295.137 358.483 271.976C358.887 268.11 358.734 263.993 360.809 260.717C362.883 257.441 367.361 255.421 370.713 257.288C373.498 258.839 374.513 262.279 375.933 265.151C377.833 268.99 380.777 272.215 384.428 274.454C386.809 275.907 389.812 276.901 392.335 275.721C395.807 274.105 396.517 269.519 396.757 265.664L398.1 244.108C398.341 240.242 398.603 236.311 400.055 232.74C401.507 229.169 404.423 225.948 408.125 225.162C411.827 224.375 416.249 226.821 416.763 230.622C416.799 232.226 416.726 233.832 416.544 235.426C416.544 237.032 417.167 238.855 418.652 239.401C420.137 239.947 421.775 238.975 423.02 237.927C427.268 234.313 430.303 229.486 433.175 224.67C436.047 219.854 438.832 214.919 442.741 210.922C446.651 206.925 451.859 203.9 457.407 203.966C462.954 204.031 468.589 207.842 469.615 213.357C470.642 218.872 467.093 224.19 463.336 228.35C457.759 234.536 451.315 239.88 444.205 244.217C442.817 244.843 441.668 245.9 440.929 247.231C439.913 249.743 442.173 252.462 444.652 253.488C447.459 254.635 450.604 254.58 453.585 255.115C456.566 255.65 459.733 257.223 460.672 260.138C461.982 264.19 458.401 268.088 454.972 270.578C448.138 275.545 440.503 279.305 432.4 281.694C429.484 282.535 426.438 283.234 424.013 285.069C421.589 286.903 419.973 290.278 421.174 293.084C422.375 295.89 425.859 297.015 428.818 296.666C431.778 296.316 434.595 294.886 437.5 294.012C442.96 292.374 449.752 293.215 452.788 298.02C454.808 301.187 454.721 305.391 453.345 308.94C451.81 312.386 449.601 315.49 446.847 318.069C437.762 327.579 426.313 334.506 413.672 338.14C401.092 341.558 389.648 341.929 377.724 336.622" fill="black"/>
</g>
<path d="M376.326 353.764C378.145 343.074 380.983 332.583 384.8 322.434C389.523 310.052 394.952 297.952 401.059 286.191L405.81 276.909C407.382 273.862 408.933 270.848 410.636 267.987C413.916 262.511 417.492 257.217 421.349 252.131C425.007 247.25 428.643 242.751 432.083 238.569C435.523 234.386 438.821 230.564 441.966 227.201C446.905 221.869 452.258 216.936 457.975 212.448C459.995 210.865 461.6 209.685 462.703 208.899L463.959 208.014C464.097 207.909 464.243 207.814 464.395 207.73C464.281 207.861 464.149 207.975 464.002 208.069L462.79 209.019C461.698 209.838 460.137 211.05 458.149 212.677C452.513 217.232 447.228 222.203 442.337 227.55C439.225 230.925 435.96 234.768 432.509 238.951C429.058 243.133 425.466 247.687 421.84 252.535C418.004 257.604 414.453 262.883 411.204 268.347C409.512 271.198 407.928 274.19 406.41 277.236L401.66 286.518C395.569 298.256 390.133 310.323 385.378 322.663C381.549 332.769 378.672 343.21 376.784 353.851" fill="#263238"/>
<path d="M410.844 267.956C410.69 267.411 410.598 266.85 410.571 266.285C410.451 265.193 410.309 263.642 410.167 261.698C409.894 257.833 409.686 252.46 409.479 246.552C409.271 240.645 408.987 235.283 408.649 231.417C408.485 229.495 408.343 227.934 408.223 226.853C408.125 226.294 408.092 225.726 408.125 225.16C408.302 225.696 408.427 226.249 408.496 226.809C408.692 227.901 408.922 229.441 409.151 231.374C409.621 235.228 409.981 240.59 410.243 246.52C410.505 252.449 410.603 257.636 410.724 261.677C410.8 263.5 410.855 265.029 410.909 266.263C410.942 266.828 410.92 267.395 410.844 267.956Z" fill="#263238"/>
<path d="M461.032 262.093C460.371 262.197 459.702 262.233 459.033 262.203C457.756 262.203 455.91 262.203 453.573 262.355C449.009 262.541 442.653 263 435.763 263.83C428.872 264.66 422.582 265.675 418.083 266.549C415.834 266.964 414.021 267.357 412.765 267.641C412.121 267.811 411.464 267.924 410.8 267.979C411.414 267.72 412.05 267.515 412.7 267.368C413.934 267.018 415.736 266.56 417.985 266.068C422.462 265.075 428.72 263.972 435.676 263.131C441.612 262.406 447.583 261.987 453.563 261.875C455.856 261.875 457.712 261.875 459.023 261.941C459.695 261.932 460.368 261.983 461.032 262.093Z" fill="#263238"/>
<path d="M385.476 321.543C385.347 321.352 385.247 321.142 385.181 320.92L384.45 319.064C383.827 317.459 382.986 315.1 381.993 312.184C379.994 306.342 377.483 298.185 374.829 289.154C372.176 280.123 369.751 271.944 367.873 266.069C366.956 263.208 366.191 260.86 365.634 259.113L365.034 257.224C364.949 257.007 364.894 256.779 364.87 256.547C364.994 256.741 365.093 256.95 365.165 257.169C365.362 257.672 365.602 258.261 365.886 259.026C366.508 260.631 367.349 262.99 368.354 265.905C370.352 271.748 372.864 279.905 375.506 288.947C378.149 297.988 380.595 306.146 382.473 312.02C383.39 314.882 384.144 317.229 384.657 318.977L385.258 320.866C385.362 321.08 385.435 321.308 385.476 321.543Z" fill="#263238"/>
<path d="M452.788 304.832C452.576 304.945 452.348 305.023 452.111 305.061L450.156 305.575L442.949 307.376C436.856 308.894 428.48 311.089 419.22 313.535C409.96 315.981 401.551 318.1 395.425 319.498C392.368 320.196 389.889 320.742 388.163 321.081L386.176 321.463C385.948 321.52 385.712 321.546 385.477 321.54C385.689 321.438 385.913 321.365 386.143 321.321L388.109 320.808L395.316 319.006C401.398 317.488 409.785 315.282 419.045 312.836C428.305 310.39 436.714 308.272 442.829 306.874C445.886 306.175 448.376 305.64 450.091 305.302L452.078 304.919C452.311 304.863 452.549 304.833 452.788 304.832Z" fill="#263238"/>
<path d="M382.222 35.1094H117.401V397.981H382.222V35.1094Z" fill="#455A64"/>
<path d="M371.75 376.402H322.708H139.459V49.7734H371.75V335.768V376.402Z" fill="#E0E0E0"/>
<path d="M368.081 370.342H319.476H137.876V45.4609H368.081V329.927V370.342Z" fill="#EBEBEB"/>
<path d="M343.347 345.063L316.833 366.652H133.584V46.2812H365.875V326.794L343.347 345.063Z" fill="#FAFAFA"/>
<path d="M343.347 345.029C343.347 345.029 343.817 344.625 344.767 343.849L349.014 340.377L365.82 326.694V326.759C365.82 280.677 365.733 178.247 365.657 46.2465L365.908 46.5085H135.638H133.617L133.901 46.2246C133.901 166.672 133.901 277.783 133.836 366.596L133.617 366.366L316.866 366.497H316.8L336.719 350.347L341.709 346.317C342.801 345.422 343.38 344.985 343.38 344.985L341.742 346.35L336.751 350.489L316.899 366.716L133.585 366.869H133.355V366.639C133.355 277.827 133.355 166.716 133.301 46.2683V45.9844H135.605H365.875H366.137V46.2355C366.061 178.28 365.995 280.666 365.973 326.748L349.102 340.366L344.832 343.937L343.347 345.029Z" fill="#263238"/>
<path d="M218.389 23.8945H281.889C285.987 23.8945 289.918 25.5225 292.815 28.4203C295.713 31.318 297.341 35.2483 297.341 39.3463V56.4798H202.271V40.0015C202.274 35.7287 203.974 31.6318 206.996 28.6115C210.019 25.5912 214.117 23.8945 218.389 23.8945Z" fill="#018762"/>
<path d="M225.564 23.8937L222.091 6.3125H276.833L273.787 23.8937H225.564Z" fill="#018762"/>
<path d="M197.008 136.458H157.882V97.3203H197.008V136.458ZM158.974 135.366H195.916V98.4123H158.974V135.366Z" fill="#018762"/>
<path d="M335.31 106.776C335.31 106.929 308.065 107.06 274.475 107.06C240.885 107.06 213.628 106.929 213.628 106.776C213.628 106.623 240.863 106.492 274.475 106.492C308.086 106.492 335.31 106.612 335.31 106.776Z" fill="#263238"/>
<path d="M335.31 114.901C335.31 115.065 308.065 115.185 274.475 115.185C240.885 115.185 213.628 115.065 213.628 114.901C213.628 114.737 240.863 114.617 274.475 114.617C308.086 114.617 335.31 114.748 335.31 114.901Z" fill="#263238"/>
<path d="M335.31 123.034C335.31 123.187 308.065 123.318 274.475 123.318C240.885 123.318 213.628 123.187 213.628 123.034C213.628 122.881 240.863 122.75 274.475 122.75C308.086 122.75 335.31 122.881 335.31 123.034Z" fill="#263238"/>
<path d="M335.31 131.171C335.31 131.324 308.065 131.455 274.475 131.455C240.885 131.455 213.628 131.324 213.628 131.171C213.628 131.018 240.863 130.887 274.475 130.887C308.086 130.887 335.31 130.996 335.31 131.171Z" fill="#263238"/>
<path d="M197.008 196.77H157.882V157.633H197.008V196.77ZM158.974 195.678H195.916V158.725H158.974V195.678Z" fill="#018762"/>
<path d="M165.657 178.007L170.855 172.427L179.514 179.35L199.334 160.109L204.084 165.711L179.132 190.325L165.657 178.007Z" fill="#018762"/>
<path d="M335.31 167.089C335.31 167.241 308.065 167.373 274.475 167.373C240.885 167.373 213.628 167.241 213.628 167.089C213.628 166.936 240.863 166.805 274.475 166.805C308.086 166.805 335.31 166.936 335.31 167.089Z" fill="#263238"/>
<path d="M335.31 175.221C335.31 175.374 308.065 175.505 274.475 175.505C240.885 175.505 213.628 175.374 213.628 175.221C213.628 175.069 240.863 174.938 274.475 174.938C308.086 174.938 335.31 175.058 335.31 175.221Z" fill="#263238"/>
<path d="M335.31 183.346C335.31 183.51 308.065 183.63 274.475 183.63C240.885 183.63 213.628 183.51 213.628 183.346C213.628 183.183 240.863 183.062 274.475 183.062C308.086 183.062 335.31 183.194 335.31 183.346Z" fill="#263238"/>
<path d="M335.31 191.483C335.31 191.636 308.065 191.767 274.475 191.767C240.885 191.767 213.628 191.636 213.628 191.483C213.628 191.33 240.863 191.199 274.475 191.199C308.086 191.199 335.31 191.33 335.31 191.483Z" fill="#263238"/>
<path d="M197.008 255.137H157.882V216H197.008V255.137ZM158.974 254.045H195.916V217.092H158.974V254.045Z" fill="#018762"/>
<path d="M165.657 236.374L170.855 230.794L179.514 237.718L199.334 218.477L204.084 224.079L179.132 248.692L165.657 236.374Z" fill="#018762"/>
<path d="M335.31 225.456C335.31 225.609 308.065 225.74 274.475 225.74C240.885 225.74 213.628 225.609 213.628 225.456C213.628 225.303 240.863 225.172 274.475 225.172C308.086 225.172 335.31 225.292 335.31 225.456Z" fill="#263238"/>
<path d="M335.31 233.581C335.31 233.745 308.065 233.865 274.475 233.865C240.885 233.865 213.628 233.745 213.628 233.581C213.628 233.417 240.863 233.297 274.475 233.297C308.086 233.297 335.31 233.428 335.31 233.581Z" fill="#263238"/>
<path d="M335.31 241.714C335.31 241.877 308.065 241.998 274.475 241.998C240.885 241.998 213.628 241.877 213.628 241.714C213.628 241.55 240.863 241.43 274.475 241.43C308.086 241.43 335.31 241.561 335.31 241.714Z" fill="#263238"/>
<path d="M335.31 249.85C335.31 250.003 308.065 250.134 274.475 250.134C240.885 250.134 213.628 250.003 213.628 249.85C213.628 249.697 240.863 249.566 274.475 249.566C308.086 249.566 335.31 249.697 335.31 249.85Z" fill="#263238"/>
<path d="M197.008 311.493H157.882V272.355H197.008V311.493ZM158.974 310.401H195.916V273.447H158.974V310.401Z" fill="#018762"/>
<path d="M165.657 292.734L170.855 287.154L179.514 294.077L199.334 274.836L204.084 280.427L179.132 305.041L165.657 292.734Z" fill="#018762"/>
<path d="M335.31 281.8C335.31 281.963 308.065 282.083 274.475 282.083C240.885 282.083 213.628 281.963 213.628 281.8C213.628 281.636 240.863 281.516 274.475 281.516C308.086 281.516 335.31 281.69 335.31 281.8Z" fill="#263238"/>
<path d="M335.31 289.936C335.31 290.089 308.065 290.22 274.475 290.22C240.885 290.22 213.628 290.089 213.628 289.936C213.628 289.783 240.863 289.652 274.475 289.652C308.086 289.652 335.31 289.783 335.31 289.936Z" fill="#263238"/>
<path d="M335.31 298.073C335.31 298.226 308.065 298.357 274.475 298.357C240.885 298.357 213.628 298.226 213.628 298.073C213.628 297.92 240.863 297.789 274.475 297.789C308.086 297.789 335.31 297.909 335.31 298.073Z" fill="#263238"/>
<path d="M335.31 306.198C335.31 306.362 308.065 306.482 274.475 306.482C240.885 306.482 213.628 306.362 213.628 306.198C213.628 306.034 240.863 305.914 274.475 305.914C308.086 305.914 335.31 306.045 335.31 306.198Z" fill="#263238"/>
<path d="M324.117 313.613L298.651 366.357H316.833L324.117 313.613Z" fill="#E0E0E0"/>
<path d="M316.833 366.65L324.117 313.906L365.875 326.792L316.833 366.65Z" fill="#FAFAFA"/>
<path d="M316.833 366.648L330.876 355.084L365.7 326.572L365.798 327.053L349.669 322.095L324.084 314.156L324.422 313.938C322.238 329.226 320.371 342.384 319.05 351.71C317.728 360.784 317.051 365.469 316.866 366.648C316.862 366.568 316.862 366.488 316.866 366.408L316.964 365.687C317.051 365 317.172 364.039 317.335 362.816C317.674 360.249 318.154 356.569 318.766 351.896C320.033 342.493 321.802 329.269 323.865 313.817V313.512L324.16 313.599L349.811 321.505L365.929 326.485L366.432 326.638L366.028 326.965C351.93 338.333 339.601 348.27 330.778 355.357L320.48 363.624L317.728 365.808L317.03 366.365L316.833 366.648Z" fill="#263238"/>
<g opacity="0.3">
<path d="M273.044 6.3125L270.03 23.8937H273.786L276.833 6.3125H272.039" fill="black"/>
</g>
<path d="M112.705 191.732C114.022 191.831 115.345 191.664 116.596 191.241C117.846 190.817 118.999 190.146 119.984 189.268C120.97 188.389 121.768 187.321 122.332 186.127C122.896 184.933 123.213 183.638 123.265 182.319C123.472 176.968 123.658 171.562 123.658 171.562C123.658 171.562 131.761 170.809 132.394 162.826C133.027 154.844 132.711 136.302 132.711 136.302C128.269 134.061 123.309 133.047 118.345 133.366C113.38 133.685 108.59 135.324 104.472 138.114L104.963 166.332V181.521C104.974 186.567 107.628 191.349 112.705 191.732Z" fill="#FFBE9D"/>
<path d="M124.358 153C123.766 152.149 122.875 151.553 121.863 151.33C120.851 151.107 119.792 151.275 118.898 151.798C117.99 152.429 117.336 153.361 117.052 154.429C116.768 155.497 116.873 156.632 117.347 157.63C117.76 158.37 118.323 159.017 119 159.528C119.677 160.04 120.453 160.405 121.278 160.6C122.01 160.759 122.659 161.18 123.103 161.783C123.547 162.386 123.756 163.13 123.692 163.876C123.355 165.984 122.371 167.934 120.874 169.456C118.401 171.973 115.108 173.522 111.592 173.824C108.174 174.228 104.265 173.518 102.277 170.712C100.825 168.67 100.727 165.994 100.672 163.494C100.548 157.582 100.425 151.671 100.301 145.76C100.172 143.629 100.308 141.491 100.705 139.393C101.123 137.278 102.324 135.398 104.068 134.13C106.023 132.841 108.491 132.732 110.708 132.022C113.492 131.116 115.851 129.281 118.45 127.949C121.049 126.617 124.227 125.82 126.836 127.13C128.715 128.069 129.971 129.937 131.783 130.974C134.382 132.448 137.909 132.066 139.165 135.932C139.607 137.253 139.607 138.683 139.165 140.005C137.407 145.192 130.986 147.288 126.356 145.05C126.269 145.923 127.131 147.878 126.203 150.652C125.908 151.547 125.81 152.89 124.423 152.923" fill="#263238"/>
<path d="M102.223 136.455C103.496 133.919 104.365 131.2 104.8 128.396C105.006 126.992 104.886 125.559 104.448 124.209C104.011 122.859 103.268 121.627 102.278 120.611C100.816 119.341 98.9271 118.674 96.9925 118.743C95.1547 118.848 93.394 119.518 91.9515 120.661C90.5089 121.805 89.4549 123.366 88.9335 125.131C88.4837 126.911 88.5532 128.783 89.1338 130.525C89.7143 132.266 90.7817 133.805 92.2095 134.959C93.6695 136.081 95.3998 136.797 97.2254 137.034C99.0509 137.272 100.907 137.023 102.605 136.313" fill="#263238"/>
<path d="M103.795 133.56C103.736 134.54 103.314 135.463 102.611 136.15C101.909 136.836 100.976 137.236 99.9946 137.273C99.9946 137.109 101.174 136.792 102.179 135.744C103.183 134.695 103.642 133.516 103.795 133.56Z" fill="#018762"/>
<path d="M101.163 135.525C100.537 136.181 99.797 136.718 98.9789 137.108C98.1046 137.607 97.1234 137.888 96.1179 137.927C95.4794 137.962 94.8419 137.843 94.2587 137.581C93.6755 137.319 93.1635 136.921 92.7654 136.42C92.4131 135.894 92.1781 135.297 92.0764 134.672C91.9747 134.046 92.0085 133.406 92.1757 132.795C92.4292 131.825 92.8871 130.92 93.5189 130.141C94.0418 129.403 94.6839 128.758 95.419 128.23C94.933 128.985 94.4081 129.714 93.8465 130.414C93.2984 131.175 92.9051 132.036 92.689 132.948C92.5527 133.486 92.5299 134.046 92.6221 134.593C92.7142 135.14 92.9192 135.662 93.2241 136.126C93.5731 136.552 94.0158 136.892 94.5177 137.119C95.0196 137.346 95.5672 137.455 96.1179 137.436C97.051 137.421 97.9689 137.197 98.8042 136.781C100.224 136.049 101.108 135.438 101.163 135.525Z" fill="#263238"/>
<path d="M87.5356 144.581C87.7003 144.858 87.8287 145.155 87.9178 145.465C88.2009 146.284 88.6019 147.056 89.1081 147.759C89.4448 148.267 89.9164 148.671 90.47 148.925C91.0237 149.18 91.6374 149.275 92.2422 149.2C92.966 148.996 93.6248 148.608 94.1547 148.074C94.6847 147.54 95.0678 146.879 95.267 146.153C95.6593 144.626 95.9331 143.071 96.086 141.501C96.2402 140.156 96.77 138.88 97.6148 137.821C98.2199 137.125 99.044 136.655 99.9517 136.489C100.28 136.409 100.626 136.44 100.934 136.576C100.934 136.576 100.574 136.576 99.9954 136.707C99.1752 136.934 98.4486 137.416 97.9206 138.083C97.1765 139.11 96.7203 140.316 96.5992 141.578C96.4732 143.185 96.2065 144.778 95.8021 146.339C95.5768 147.158 95.1373 147.903 94.5289 148.496C93.9205 149.089 93.1651 149.509 92.3404 149.713C91.5863 149.834 90.8138 149.687 90.1564 149.298C89.6111 148.967 89.1421 148.524 88.7805 147.999C88.2798 147.248 87.9106 146.417 87.6885 145.542C87.5765 145.234 87.5246 144.908 87.5356 144.581Z" fill="#263238"/>
<path d="M83.5929 211.946C83.5929 211.946 79.4979 241.889 83.5929 245.689C87.6879 249.489 91.6082 248.222 91.6082 248.222L99.3942 241.67L100.923 211.902L83.5929 211.946Z" fill="#FFBE9D"/>
<path d="M168.168 127.894L173.366 122.314L182.026 129.237L201.846 109.996L206.596 115.598L181.644 140.212L168.168 127.894Z" fill="#018762"/>
<path d="M192.586 129.41L185.051 134.248C184.712 131.267 182.441 128.318 182.55 129.814C182.66 131.31 182.55 139.074 182.55 139.074L169.13 167.346C167.306 171.823 163.604 174.641 160.841 175.307L148.272 179.042L153.176 195.629L170.648 189.841C172.878 189.103 174.904 187.851 176.563 186.188C178.222 184.525 179.469 182.496 180.203 180.265L192.215 143.661C193.012 141.303 193.654 138.895 194.136 136.454C194.661 133.385 192.586 129.41 192.586 129.41Z" fill="#FFBE9D"/>
<path d="M130.855 438.633L130.659 430.258L114.956 430.509L115.098 442.772L116.08 442.827C120.448 442.991 138.15 443.384 141.033 442.466C144.243 441.429 130.855 438.633 130.855 438.633Z" fill="#018762"/>
<g opacity="0.5">
<path d="M120.797 442.567C120.533 441.26 119.798 440.094 118.733 439.291C117.685 438.475 116.366 438.085 115.042 438.199L115.108 442.567H120.797Z" fill="white"/>
</g>
<g opacity="0.4">
<path d="M137.353 440.238C137.353 440.238 142.048 441.505 141.481 442.291C140.913 443.077 122.982 443.383 115.054 442.772V442.422L135.977 442.28C135.977 442.28 136.49 440.293 137.353 440.238Z" fill="white"/>
</g>
<path d="M114.867 442.413H115.14H115.916L118.777 442.49C121.19 442.544 124.521 442.566 128.201 442.49C131.881 442.413 135.222 442.315 137.625 442.195L140.486 442.031L141.261 441.977H141.523H141.25H140.475L137.625 442.086C135.211 442.162 131.881 442.271 128.201 442.326C124.521 442.381 121.19 442.326 118.777 442.326H115.926H114.834L114.867 442.413Z" fill="#263238"/>
<path d="M136.042 442.52C136.155 442.045 136.328 441.586 136.555 441.155C136.83 440.756 137.148 440.39 137.505 440.062C137.04 440.281 136.652 440.634 136.391 441.076C136.13 441.518 136.008 442.029 136.042 442.541V442.52Z" fill="#263238"/>
<path d="M131.367 440.237C131.367 440.237 131.629 439.997 131.859 439.637C132.088 439.277 132.219 438.949 132.175 438.927C132.132 438.905 131.913 439.167 131.695 439.528C131.477 439.888 131.324 440.216 131.367 440.237Z" fill="#263238"/>
<path d="M130.09 439.595C130.09 439.595 130.363 439.464 130.636 439.213C130.909 438.962 131.084 438.732 131.051 438.699C131.018 438.667 130.767 438.831 130.505 439.071C130.243 439.311 130.046 439.551 130.09 439.595Z" fill="#263238"/>
<path d="M129.26 438.121C129.522 438.216 129.803 438.246 130.079 438.209C130.356 438.241 130.637 438.207 130.898 438.11C130.634 438.026 130.355 437.997 130.079 438.023C129.802 437.992 129.522 438.026 129.26 438.121Z" fill="#263238"/>
<path d="M128.966 437.082C129.242 437.251 129.56 437.338 129.883 437.333C130.207 437.38 130.537 437.331 130.833 437.191C130.521 437.161 130.206 437.161 129.894 437.191C129.589 437.126 129.278 437.09 128.966 437.082Z" fill="#263238"/>
<path d="M131.892 438.86C132.224 438.921 132.565 438.921 132.897 438.86C133.268 438.811 133.633 438.727 133.989 438.609C134.201 438.543 134.406 438.455 134.6 438.347C134.662 438.314 134.716 438.269 134.759 438.215C134.802 438.16 134.834 438.097 134.851 438.03C134.864 437.954 134.856 437.876 134.827 437.805C134.798 437.733 134.75 437.672 134.688 437.626C134.299 437.446 133.859 437.405 133.444 437.51C133.028 437.616 132.661 437.861 132.405 438.205C132.258 438.409 132.151 438.638 132.089 438.882C132.069 438.972 132.069 439.065 132.089 439.155C132.193 438.846 132.344 438.555 132.536 438.292C132.762 438.025 133.056 437.824 133.388 437.713C133.785 437.576 134.22 437.599 134.6 437.779C134.753 437.899 134.699 438.085 134.524 438.194C134.343 438.295 134.153 438.38 133.956 438.445C133.6 438.568 133.235 438.663 132.864 438.729C132.263 438.827 131.892 438.827 131.892 438.86Z" fill="#263238"/>
<path d="M132.143 438.941C132.266 438.73 132.305 438.48 132.252 438.242C132.211 437.979 132.11 437.728 131.957 437.51C131.871 437.362 131.748 437.239 131.601 437.151C131.454 437.063 131.287 437.014 131.116 437.008C131.065 437.018 131.017 437.039 130.973 437.068C130.93 437.097 130.893 437.135 130.865 437.179C130.837 437.222 130.817 437.271 130.808 437.322C130.798 437.374 130.799 437.426 130.81 437.477C130.835 437.638 130.894 437.791 130.985 437.925C131.118 438.149 131.283 438.351 131.477 438.526C131.632 438.707 131.831 438.846 132.055 438.93C132.055 438.93 131.859 438.755 131.575 438.438C131.411 438.252 131.265 438.051 131.138 437.838C130.996 437.63 130.898 437.248 131.138 437.193C131.378 437.139 131.651 437.412 131.804 437.608C131.95 437.803 132.054 438.026 132.11 438.264C132.14 438.488 132.151 438.714 132.143 438.941Z" fill="#263238"/>
<path d="M115.13 438.108C115.13 438.108 115.578 438.108 116.287 438.108C117.213 438.196 118.095 438.544 118.832 439.112C119.568 439.68 120.128 440.445 120.448 441.319C120.699 441.985 120.732 442.411 120.765 442.411C120.786 442.306 120.786 442.198 120.765 442.094C120.729 441.808 120.667 441.527 120.579 441.253C120.276 440.341 119.706 439.541 118.943 438.956C118.179 438.372 117.258 438.031 116.298 437.977C116.012 437.945 115.722 437.945 115.436 437.977C115.326 438 115.222 438.044 115.13 438.108Z" fill="#263238"/>
<path d="M116.659 431.559C116.561 432.629 116.532 433.705 116.571 434.78C116.536 435.873 116.569 436.967 116.67 438.056C116.769 436.967 116.798 435.873 116.757 434.78C116.783 433.705 116.75 432.63 116.659 431.559Z" fill="#263238"/>
<path d="M122.741 441.002C123.499 441.158 124.273 441.221 125.045 441.188C125.816 441.221 126.588 441.147 127.339 440.97C127.339 440.915 126.247 440.97 125.045 440.97C123.844 440.97 122.752 440.948 122.741 441.002Z" fill="#263238"/>
<path d="M119.672 441.036C119.672 441.036 119.76 441.255 119.858 441.495C119.956 441.735 120.033 441.932 120.087 441.932C120.142 441.932 120.164 441.68 120.033 441.407C119.902 441.134 119.705 441.003 119.672 441.036Z" fill="#263238"/>
<path d="M118.482 439.615C118.482 439.615 118.548 439.811 118.723 439.975C118.897 440.139 119.05 440.237 119.083 440.204C119.116 440.171 119.017 439.997 118.854 439.844C118.69 439.691 118.526 439.571 118.482 439.615Z" fill="#263238"/>
<path d="M116.812 438.938C116.812 438.938 117.041 438.938 117.271 439.059C117.5 439.179 117.664 439.255 117.707 439.222C117.751 439.19 117.62 438.971 117.325 438.884C117.03 438.797 116.801 438.938 116.812 438.938Z" fill="#263238"/>
<path d="M115.632 438.689C115.632 438.689 115.697 438.82 115.828 438.864C115.959 438.908 116.08 438.919 116.101 438.864C116.123 438.809 116.025 438.733 115.894 438.689C115.763 438.646 115.643 438.635 115.632 438.689Z" fill="#263238"/>
<path d="M75.4248 435.959L80.7538 429.483L68.6762 419.426L60.792 428.817L61.4909 429.494C64.6686 432.453 77.8709 444.312 80.6446 445.492C83.7568 446.813 75.4248 435.959 75.4248 435.959Z" fill="#018762"/>
<g opacity="0.5">
<path d="M65.2801 432.389C65.9482 431.222 66.1621 429.849 65.8807 428.534C65.6129 427.234 64.864 426.084 63.7841 425.312L60.9121 428.665L65.2801 432.389Z" fill="white"/>
</g>
<g opacity="0.4">
<path d="M79.3451 441.441C79.3451 441.441 82.0751 445.471 81.136 445.689C80.1968 445.907 66.3721 434.42 60.792 428.818L61.0322 428.566L76.9864 442.107C76.9864 442.107 78.6134 440.884 79.3451 441.441Z" fill="white"/>
</g>
<path d="M60.8467 428.402L61.0323 428.599L61.6002 429.134L63.7186 431.056C65.5095 432.661 68.0211 434.856 70.8494 437.215C73.6777 439.574 76.3094 441.659 78.1876 443.144L80.459 444.881L81.0814 445.339L81.3108 445.492L81.1033 445.306L80.5027 444.815L78.3187 443.035C76.4295 441.528 73.8415 439.432 71.0132 437.073C68.1849 434.714 65.6624 432.541 63.8497 430.958L61.6657 429.079L61.076 428.566L60.8467 428.402Z" fill="#263238"/>
<path d="M76.8223 442.293C77.2202 442.003 77.6532 441.764 78.1108 441.583C78.583 441.463 79.0658 441.39 79.5523 441.365C79.0659 441.186 78.5317 441.186 78.0453 441.365C77.5387 441.516 77.1042 441.846 76.8223 442.293Z" fill="#263238"/>
<path d="M74.7695 437.51C74.7695 437.565 75.1299 437.51 75.5339 437.368C75.938 437.226 76.2656 437.095 76.2437 437.04C76.2219 436.986 75.8834 437.04 75.4793 437.182C75.2219 437.239 74.9798 437.351 74.7695 437.51Z" fill="#263238"/>
<path d="M74.2236 436.177C74.2236 436.177 74.5185 436.264 74.8898 436.253C75.261 436.242 75.545 436.188 75.545 436.133C75.545 436.079 75.2392 436.046 74.8788 436.057C74.6541 436.046 74.4299 436.087 74.2236 436.177Z" fill="#263238"/>
<path d="M74.5508 434.572C74.5508 434.572 74.7692 434.878 75.1186 435.173C75.3157 435.372 75.5493 435.532 75.8066 435.642C75.8066 435.642 75.5882 435.326 75.2387 435.031C74.8893 434.736 74.5945 434.485 74.5508 434.572Z" fill="#263238"/>
<path d="M75.0103 433.543C75.1292 433.842 75.3104 434.113 75.542 434.337C75.7736 434.561 76.0502 434.733 76.3534 434.842C76.1419 434.613 75.9157 434.398 75.6764 434.198C75.316 433.848 75.1085 433.477 75.0103 433.543Z" fill="#263238"/>
<path d="M76.0582 436.753C76.2748 437.013 76.5376 437.232 76.8335 437.397C77.1433 437.597 77.4726 437.766 77.8163 437.899C78.0193 437.991 78.2317 438.061 78.4497 438.107C78.5871 438.13 78.7281 438.099 78.8428 438.019C78.903 437.973 78.9484 437.91 78.9736 437.838C78.9988 437.767 79.0027 437.689 78.9848 437.615C78.8163 437.216 78.5133 436.888 78.1283 436.689C77.7434 436.489 77.3007 436.431 76.8772 436.523C76.6278 436.572 76.3927 436.677 76.1892 436.829C76.1128 436.878 76.0461 436.941 75.9927 437.015C76.2724 436.845 76.5788 436.723 76.899 436.654C77.2456 436.595 77.6021 436.636 77.9255 436.775C78.3147 436.925 78.6287 437.224 78.7991 437.605C78.7991 437.801 78.679 437.91 78.4715 437.878C78.2701 437.832 78.0729 437.77 77.8818 437.692C77.5454 437.567 77.2202 437.414 76.91 437.233C76.3749 437.026 76.08 436.753 76.0582 436.753Z" fill="#263238"/>
<path d="M76.1996 437.008C76.1996 437.008 76.4836 436.921 76.7456 436.55C76.8864 436.325 76.9758 436.071 77.0077 435.807C77.0327 435.637 77.0171 435.463 76.9621 435.3C76.907 435.136 76.8142 434.989 76.691 434.868C76.5969 434.818 76.4866 434.807 76.3842 434.837C76.2819 434.868 76.1959 434.938 76.145 435.032C76.062 435.168 76.0098 435.321 75.9922 435.48C75.9603 435.737 75.9603 435.998 75.9922 436.255C75.9921 436.495 76.0522 436.732 76.1669 436.943C76.1669 436.943 76.1669 436.67 76.1669 436.255C76.1639 436.006 76.1859 435.757 76.2324 435.512C76.2324 435.261 76.429 434.912 76.6583 435.032C76.8876 435.152 76.8985 435.534 76.8985 435.785C76.8791 436.027 76.8083 436.261 76.691 436.473C76.5476 436.669 76.3828 436.849 76.1996 437.008Z" fill="#263238"/>
<path d="M63.8501 425.312C63.8501 425.312 64.2214 425.564 64.7128 426.077C65.3523 426.753 65.7942 427.591 65.9904 428.501C66.1713 429.414 66.0957 430.359 65.772 431.231C65.5209 431.908 65.2479 432.269 65.2806 432.323C65.3627 432.251 65.4327 432.166 65.4881 432.072C65.6509 431.837 65.7864 431.584 65.8921 431.319C66.2696 430.43 66.3686 429.447 66.1761 428.501C65.9789 427.557 65.5035 426.694 64.8111 426.022C64.6047 425.821 64.3778 425.641 64.134 425.487C64.0515 425.411 63.9551 425.352 63.8501 425.312Z" fill="#263238"/>
<path d="M69.2874 421.324C68.5117 422.076 67.7823 422.875 67.1034 423.716C66.3826 424.517 65.7046 425.355 65.0723 426.227C65.8529 425.484 66.5825 424.688 67.2563 423.847C67.9759 423.041 68.6538 422.199 69.2874 421.324Z" fill="#263238"/>
<path d="M67.7373 432.462C68.204 433.075 68.7471 433.626 69.3535 434.1C69.9204 434.627 70.5558 435.076 71.2426 435.433C71.2426 435.433 70.4455 434.777 69.4845 433.958C68.5235 433.139 67.781 432.386 67.7373 432.462Z" fill="#263238"/>
<path d="M65.3784 430.489C65.3784 430.489 65.3019 430.707 65.2364 430.958C65.1709 431.209 65.0726 431.395 65.1163 431.428C65.16 431.461 65.3347 431.297 65.4221 431.002C65.5094 430.707 65.433 430.478 65.3784 430.489Z" fill="#263238"/>
<path d="M65.4111 428.633C65.3565 428.633 65.3347 428.829 65.3565 429.059C65.3784 429.288 65.433 429.474 65.4876 429.474C65.5422 429.474 65.564 429.277 65.4876 429.048C65.4111 428.818 65.4657 428.633 65.4111 428.633Z" fill="#263238"/>
<path d="M64.5596 427.058C64.5596 427.113 64.7015 427.244 64.8217 427.452C64.9418 427.659 64.9964 427.866 65.051 427.866C65.1056 427.866 65.1383 427.615 64.9855 427.353C64.8326 427.091 64.5814 427.015 64.5596 427.058Z" fill="#263238"/>
<path d="M63.8501 426.066C63.8501 426.066 63.8501 426.219 63.8501 426.339C63.8501 426.459 64.0139 426.536 64.0576 426.514C64.1013 426.492 64.0576 426.361 64.0576 426.241C64.0576 426.121 63.8938 426.044 63.8501 426.066Z" fill="#263238"/>
<path d="M108.109 260.496C108.109 260.496 102.878 282.62 104.363 286.999C105.848 291.378 115.425 293.9 115.425 293.9L115.098 354.495L62.1138 420.015L81.6606 436.002C81.6606 436.002 139.034 370.384 144.09 358.47C149.146 346.557 140.814 259.48 140.814 259.48L108.109 260.496Z" fill="#263238"/>
<path d="M135.168 251.477L137.756 435.5L110.816 435.664L97.2866 285.754C94.4255 283.024 90.396 278.351 90.953 267.922L91.6082 255.812L135.168 251.477Z" fill="#263238"/>
<path d="M106.776 364.74C106.816 364.643 106.867 364.551 106.929 364.467C107.071 364.27 107.235 364.019 107.442 363.713L109.441 360.885L116.757 350.751V350.893C116.168 344.505 115.458 336.763 114.693 328.409C113.711 317.489 112.924 307.552 112.455 300.356C112.215 296.763 112.062 293.858 111.974 291.849C111.974 290.888 111.909 290.113 111.898 289.523C111.865 289.255 111.865 288.983 111.898 288.715C111.951 288.981 111.984 289.252 111.996 289.523C111.996 290.102 112.105 290.877 112.182 291.838C112.346 293.902 112.564 296.785 112.848 300.334C113.416 307.508 114.267 317.413 115.25 328.354C115.982 336.741 116.724 344.472 117.216 350.893V350.97V351.035L109.736 361.038L107.628 363.801L107.06 364.511C106.831 364.685 106.776 364.751 106.776 364.74Z" fill="#455A64"/>
<path d="M115.031 288.715C112.62 288.587 110.228 288.221 107.889 287.623C105.51 287.22 103.176 286.584 100.922 285.723C103.309 286.029 105.676 286.477 108.009 287.066C110.379 287.481 112.724 288.032 115.031 288.715Z" fill="#455A64"/>
<path d="M133.487 351.579C131.162 350.614 128.714 349.975 126.214 349.679C123.695 349.577 121.175 349.824 118.723 350.41C119.363 350.006 120.075 349.728 120.82 349.591C122.6 349.127 124.446 348.964 126.28 349.111C128.102 349.257 129.888 349.704 131.565 350.432C132.269 350.696 132.92 351.084 133.487 351.579Z" fill="#455A64"/>
<path d="M142.998 360.075C143.118 360.173 135.539 370.351 126.061 382.799C116.582 395.248 108.796 405.284 108.676 405.196C108.556 405.109 116.135 394.921 125.613 382.461C135.092 370.001 142.878 359.977 142.998 360.075Z" fill="#455A64"/>
<path d="M139.35 265.138C139.04 265.935 138.514 266.63 137.832 267.147C137.052 267.83 136.139 268.345 135.15 268.659C134.161 268.972 133.118 269.078 132.087 268.97C131.055 268.861 130.057 268.54 129.155 268.027C128.254 267.514 127.468 266.82 126.847 265.989C126.269 265.351 125.889 264.558 125.755 263.707C126.175 264.406 126.635 265.08 127.131 265.727C128.379 267.24 130.171 268.202 132.122 268.406C134.072 268.611 136.025 268.041 137.559 266.819C138.185 266.29 138.783 265.729 139.35 265.138Z" fill="#455A64"/>
<path d="M102.518 170.451C98.0786 166.234 95.4611 160.45 95.2225 154.331C94.9838 148.212 97.1429 142.242 101.24 137.691" fill="#263238"/>
<path d="M87.3714 187.617C87.3714 187.617 81.5183 194.235 80.3062 219.536C80.3062 219.536 96.981 222.703 97.2867 221.797C97.5925 220.89 87.3714 187.617 87.3714 187.617Z" fill="#018762"/>
<g opacity="0.3">
<path d="M87.3709 187.617C87.3709 187.617 81.5178 194.235 80.3057 219.536C80.3057 219.536 96.9805 222.703 97.2863 221.797C97.592 220.89 87.3709 187.617 87.3709 187.617Z" fill="black"/>
</g>
<path d="M90.0797 261.314H141.284L140.454 253.309C140.454 253.309 134.601 222.886 134.644 222.482L135.562 220.549C136.758 218.039 137.398 215.301 137.437 212.521C137.477 209.741 136.915 206.985 135.791 204.442L160.907 195.87L154.77 175.188C143.391 177.099 126.192 179.25 126.192 179.25L123.637 179.457C123.637 179.457 105.881 180.385 105.499 180.429C98.0732 181.335 89.4355 181.903 86.2796 189.853C84.587 194.101 86.1922 200.478 88.955 207.052L95.507 227.254C98.1278 238.36 93.9454 237.825 91.6413 249.007C91.27 250.688 90.047 259.763 90.0797 261.314Z" fill="#018762"/>
<g opacity="0.3">
<path d="M90.0793 261.314H141.283L140.453 253.309C140.453 253.309 134.6 222.886 134.644 222.482L135.561 220.549C136.757 218.039 137.397 215.301 137.437 212.521C137.477 209.741 136.915 206.985 135.79 204.442L160.906 195.87L154.769 175.188C143.391 177.099 126.192 179.25 126.192 179.25L123.636 179.457C123.636 179.457 105.881 180.385 105.498 180.429C98.0727 181.335 89.435 181.903 86.2791 189.853C84.5865 194.101 86.1917 200.478 88.9545 207.052L95.5065 227.254C98.1273 238.36 93.9449 237.825 91.6408 249.007C91.2695 250.688 90.0465 259.763 90.0793 261.314Z" fill="black"/>
</g>
<path d="M160.623 196.211C160.276 196.406 159.91 196.563 159.531 196.68C158.81 196.943 157.751 197.303 156.44 197.772C153.819 198.657 150.172 199.825 146.154 201.114C142.135 202.403 138.51 203.68 135.998 204.729C134.709 205.253 133.694 205.711 132.984 206.017C132.64 206.208 132.273 206.355 131.892 206.454C132.209 206.202 132.554 205.986 132.919 205.81C133.607 205.449 134.6 204.925 135.867 204.357C139.177 202.915 142.564 201.653 146.012 200.579C150.041 199.29 153.656 198.177 156.353 197.39C157.674 196.997 158.755 196.691 159.498 196.484C159.86 196.346 160.238 196.255 160.623 196.211Z" fill="#263238"/>
<path d="M157.653 185.19C157.653 185.343 142.507 185.474 123.801 185.474C105.095 185.474 89.9487 185.343 89.9487 185.19C89.9487 185.037 105.084 184.906 123.801 184.906C142.518 184.906 157.653 185.037 157.653 185.19Z" fill="#FAFAFA"/>
<path d="M159.192 195.249C159.192 195.402 142.342 195.533 121.561 195.533C100.781 195.533 83.9419 195.402 83.9419 195.249C83.9419 195.096 100.781 194.965 121.561 194.965C142.342 194.965 159.192 195.096 159.192 195.249Z" fill="#FAFAFA"/>
<path d="M88.2121 206.692C87.1884 206.969 86.124 207.065 85.0671 206.975C84.0139 207.065 82.9531 206.969 81.9331 206.692C82.9531 206.414 84.0139 206.318 85.0671 206.408C86.124 206.318 87.1884 206.414 88.2121 206.692Z" fill="#FAFAFA"/>
<path d="M137.352 207.042C137.352 207.195 126.333 207.326 112.749 207.326C99.1643 207.326 88.146 207.195 88.146 207.042C88.146 206.889 99.1534 206.758 112.749 206.758C126.344 206.758 137.352 206.878 137.352 207.042Z" fill="#FAFAFA"/>
<path d="M136.261 218.827C136.261 218.991 126.367 219.111 114.181 219.111C101.994 219.111 92.0894 218.991 92.0894 218.827C92.0894 218.663 101.972 218.543 114.181 218.543C126.389 218.543 136.261 218.674 136.261 218.827Z" fill="#FAFAFA"/>
<path d="M135.955 229.757C135.955 229.909 127 230.041 115.949 230.041C104.898 230.041 95.9219 229.909 95.9219 229.757C95.9219 229.604 104.887 229.473 115.949 229.473C127.011 229.473 135.955 229.593 135.955 229.757Z" fill="#FAFAFA"/>
<path d="M137.712 238.589C137.712 238.752 128.124 238.873 116.298 238.873C104.472 238.873 94.8838 238.752 94.8838 238.589C94.8838 238.425 104.472 238.305 116.298 238.305C128.124 238.305 137.712 238.436 137.712 238.589Z" fill="#FAFAFA"/>
<path d="M140.486 249.862C140.486 250.026 129.566 250.146 116.123 250.146C102.681 250.146 91.7607 250.026 91.7607 249.862C91.7607 249.698 102.681 249.578 116.123 249.578C129.566 249.578 140.486 249.709 140.486 249.862Z" fill="#FAFAFA"/>
<path d="M95.1678 226.304C94.9616 225.997 94.8067 225.657 94.7091 225.3L93.6171 222.504C92.7108 220.146 91.4331 216.891 90.1227 213.255C88.8123 209.619 87.7094 206.299 87.0215 203.864C86.6829 202.641 86.4209 201.68 86.2789 200.959C86.1739 200.604 86.1115 200.237 86.0933 199.867C86.5985 201.135 87.0359 202.429 87.4037 203.744C88.1899 206.146 89.3365 209.444 90.6797 213.069C92.0228 216.695 93.2022 219.971 93.9557 222.373C94.3597 223.574 94.6655 224.557 94.862 225.234C95.0092 225.577 95.1119 225.936 95.1678 226.304Z" fill="#263238"/>
<path d="M414.382 457.076C414.087 457.076 413.94 456.921 413.94 456.611V449.775C413.94 449.465 414.087 449.31 414.382 449.31C414.678 449.31 414.825 449.465 414.825 449.775V456.611C414.825 456.921 414.678 457.076 414.382 457.076ZM418.193 457.097C417.675 457.097 417.279 456.942 417.005 456.633C416.731 456.316 416.595 455.859 416.595 455.261V449.753C416.595 449.458 416.739 449.31 417.027 449.31C417.322 449.31 417.469 449.458 417.469 449.753V455.196C417.469 455.967 417.775 456.352 418.387 456.352C418.452 456.352 418.51 456.348 418.56 456.341C418.611 456.334 418.661 456.33 418.711 456.33C418.791 456.323 418.845 456.341 418.873 456.384C418.909 456.428 418.927 456.514 418.927 456.644C418.927 456.888 418.805 457.029 418.56 457.065C418.503 457.079 418.441 457.086 418.377 457.086C418.312 457.094 418.251 457.097 418.193 457.097ZM421.648 457.097C420.388 457.097 419.758 456.402 419.758 455.013V452.118C419.758 451.823 419.902 451.676 420.19 451.676C420.485 451.676 420.633 451.823 420.633 452.118V455.002C420.633 455.47 420.726 455.816 420.914 456.039C421.108 456.262 421.41 456.374 421.821 456.374C422.267 456.374 422.631 456.226 422.912 455.931C423.192 455.628 423.333 455.229 423.333 454.732V452.118C423.333 451.823 423.48 451.676 423.776 451.676C424.064 451.676 424.208 451.823 424.208 452.118V456.622C424.208 456.924 424.067 457.076 423.786 457.076C423.498 457.076 423.354 456.924 423.354 456.622V456.114C423.189 456.431 422.955 456.676 422.652 456.849C422.357 457.014 422.022 457.097 421.648 457.097ZM427.615 457.097C427.291 457.097 426.964 457.058 426.633 456.978C426.309 456.892 426.006 456.755 425.725 456.568C425.596 456.489 425.531 456.388 425.531 456.266C425.538 456.136 425.589 456.035 425.682 455.963C425.776 455.891 425.895 455.891 426.039 455.963C426.319 456.136 426.589 456.258 426.849 456.33C427.115 456.395 427.378 456.428 427.637 456.428C428.047 456.428 428.357 456.352 428.566 456.201C428.775 456.05 428.879 455.844 428.879 455.585C428.879 455.384 428.811 455.225 428.674 455.11C428.537 454.988 428.321 454.894 428.026 454.829L427.043 454.613C426.15 454.419 425.704 453.958 425.704 453.231C425.704 452.756 425.891 452.374 426.265 452.086C426.647 451.798 427.144 451.654 427.756 451.654C428.065 451.654 428.364 451.697 428.652 451.784C428.94 451.863 429.199 451.992 429.43 452.172C429.552 452.259 429.606 452.363 429.592 452.486C429.577 452.608 429.52 452.705 429.419 452.777C429.325 452.842 429.21 452.831 429.073 452.745C428.857 452.601 428.638 452.496 428.415 452.432C428.191 452.36 427.972 452.324 427.756 452.324C427.353 452.324 427.047 452.403 426.838 452.561C426.629 452.72 426.525 452.928 426.525 453.188C426.525 453.591 426.791 453.85 427.324 453.965L428.307 454.17C428.767 454.271 429.117 454.433 429.354 454.656C429.592 454.872 429.711 455.168 429.711 455.542C429.711 456.024 429.52 456.406 429.138 456.687C428.757 456.96 428.249 457.097 427.615 457.097ZM433.097 457.097C432.478 457.097 432.013 456.935 431.704 456.611C431.394 456.28 431.239 455.805 431.239 455.186V452.432H430.516C430.264 452.432 430.138 452.316 430.138 452.086C430.138 451.863 430.264 451.751 430.516 451.751H431.239V450.509C431.239 450.214 431.387 450.066 431.682 450.066C431.97 450.066 432.114 450.214 432.114 450.509V451.751H433.475C433.727 451.751 433.853 451.863 433.853 452.086C433.853 452.316 433.727 452.432 433.475 452.432H432.114V455.099C432.114 455.51 432.201 455.823 432.373 456.039C432.546 456.248 432.827 456.352 433.216 456.352C433.353 456.352 433.468 456.338 433.561 456.309C433.655 456.28 433.738 456.266 433.81 456.266C433.875 456.258 433.929 456.28 433.972 456.33C434.015 456.381 434.037 456.467 434.037 456.59C434.037 456.676 434.019 456.755 433.983 456.827C433.954 456.899 433.9 456.95 433.821 456.978C433.734 457.007 433.619 457.032 433.475 457.054C433.338 457.083 433.212 457.097 433.097 457.097ZM435.21 457.076C434.914 457.076 434.767 456.924 434.767 456.622V452.118C434.767 451.823 434.907 451.676 435.188 451.676C435.476 451.676 435.62 451.823 435.62 452.118V452.691C435.764 452.36 435.987 452.108 436.29 451.935C436.592 451.755 436.952 451.658 437.37 451.643C437.6 451.622 437.722 451.737 437.737 451.989C437.758 452.241 437.629 452.381 437.348 452.41L437.175 452.432C436.678 452.475 436.3 452.633 436.041 452.907C435.782 453.173 435.652 453.54 435.652 454.008V456.622C435.652 456.924 435.505 457.076 435.21 457.076ZM440.237 457.097C439.877 457.097 439.553 457.029 439.265 456.892C438.984 456.748 438.761 456.554 438.596 456.309C438.43 456.064 438.347 455.79 438.347 455.488C438.347 455.106 438.444 454.804 438.639 454.581C438.84 454.358 439.168 454.199 439.622 454.106C440.082 454.005 440.709 453.954 441.501 453.954H441.846V453.62C441.846 453.173 441.753 452.853 441.566 452.658C441.386 452.457 441.094 452.356 440.691 452.356C440.439 452.356 440.183 452.388 439.924 452.453C439.672 452.518 439.409 452.622 439.136 452.766C439.013 452.831 438.909 452.846 438.822 452.81C438.743 452.766 438.686 452.702 438.65 452.615C438.621 452.522 438.621 452.428 438.65 452.334C438.686 452.234 438.758 452.158 438.866 452.108C439.175 451.949 439.485 451.834 439.794 451.762C440.111 451.69 440.41 451.654 440.691 451.654C441.368 451.654 441.868 451.82 442.192 452.151C442.523 452.482 442.689 452.997 442.689 453.695V456.622C442.689 456.924 442.556 457.076 442.289 457.076C442.008 457.076 441.868 456.924 441.868 456.622V456.093C441.731 456.402 441.519 456.647 441.231 456.827C440.95 457.007 440.619 457.097 440.237 457.097ZM440.378 456.438C440.81 456.438 441.162 456.291 441.436 455.996C441.71 455.693 441.846 455.312 441.846 454.851V454.527H441.512C440.928 454.527 440.468 454.556 440.129 454.613C439.798 454.664 439.564 454.757 439.427 454.894C439.298 455.024 439.233 455.204 439.233 455.434C439.233 455.729 439.334 455.97 439.535 456.158C439.744 456.345 440.025 456.438 440.378 456.438ZM446.31 457.097C445.842 457.097 445.431 456.986 445.079 456.762C444.733 456.539 444.463 456.226 444.269 455.823C444.081 455.412 443.988 454.93 443.988 454.376C443.988 453.814 444.081 453.332 444.269 452.928C444.463 452.518 444.733 452.205 445.079 451.989C445.431 451.766 445.842 451.654 446.31 451.654C446.72 451.654 447.08 451.744 447.39 451.924C447.707 452.104 447.941 452.352 448.092 452.669V449.753C448.092 449.458 448.239 449.31 448.535 449.31C448.823 449.31 448.967 449.458 448.967 449.753V456.622C448.967 456.924 448.823 457.076 448.535 457.076C448.247 457.076 448.103 456.924 448.103 456.622V456.06C447.944 456.384 447.707 456.64 447.39 456.827C447.08 457.007 446.72 457.097 446.31 457.097ZM446.493 456.395C446.983 456.395 447.375 456.222 447.671 455.877C447.966 455.524 448.113 455.024 448.113 454.376C448.113 453.72 447.966 453.22 447.671 452.874C447.375 452.529 446.983 452.356 446.493 452.356C445.997 452.356 445.601 452.529 445.305 452.874C445.017 453.22 444.873 453.72 444.873 454.376C444.873 455.024 445.017 455.524 445.305 455.877C445.601 456.222 445.997 456.395 446.493 456.395ZM452.79 457.097C452.279 457.097 451.836 456.986 451.461 456.762C451.087 456.539 450.795 456.226 450.587 455.823C450.385 455.412 450.284 454.93 450.284 454.376C450.284 453.821 450.385 453.342 450.587 452.939C450.795 452.529 451.087 452.212 451.461 451.989C451.836 451.766 452.279 451.654 452.79 451.654C453.294 451.654 453.733 451.766 454.107 451.989C454.489 452.212 454.781 452.529 454.982 452.939C455.191 453.342 455.295 453.821 455.295 454.376C455.295 454.93 455.191 455.412 454.982 455.823C454.781 456.226 454.489 456.539 454.107 456.762C453.733 456.986 453.294 457.097 452.79 457.097ZM452.79 456.395C453.279 456.395 453.672 456.222 453.967 455.877C454.262 455.524 454.41 455.024 454.41 454.376C454.41 453.72 454.262 453.22 453.967 452.874C453.672 452.529 453.279 452.356 452.79 452.356C452.293 452.356 451.897 452.529 451.602 452.874C451.314 453.22 451.17 453.72 451.17 454.376C451.17 455.024 451.314 455.524 451.602 455.877C451.897 456.222 452.293 456.395 452.79 456.395ZM459.826 459.02C459.538 459.02 459.394 458.872 459.394 458.577V452.118C459.394 451.823 459.534 451.676 459.815 451.676C460.11 451.676 460.258 451.823 460.258 452.118V452.68C460.409 452.363 460.643 452.115 460.96 451.935C461.277 451.748 461.64 451.654 462.051 451.654C462.519 451.654 462.925 451.766 463.271 451.989C463.624 452.205 463.894 452.518 464.081 452.928C464.275 453.332 464.373 453.814 464.373 454.376C464.373 454.93 464.275 455.412 464.081 455.823C463.894 456.226 463.624 456.539 463.271 456.762C462.925 456.986 462.519 457.097 462.051 457.097C461.647 457.097 461.287 457.007 460.971 456.827C460.654 456.647 460.42 456.399 460.269 456.082V458.577C460.269 458.872 460.121 459.02 459.826 459.02ZM461.867 456.395C462.357 456.395 462.749 456.222 463.044 455.877C463.339 455.524 463.487 455.024 463.487 454.376C463.487 453.72 463.339 453.22 463.044 452.874C462.749 452.529 462.357 452.356 461.867 452.356C461.377 452.356 460.985 452.529 460.69 452.874C460.395 453.22 460.247 453.72 460.247 454.376C460.247 455.024 460.395 455.524 460.69 455.877C460.985 456.222 461.377 456.395 461.867 456.395ZM467.872 457.097C467.361 457.097 466.918 456.986 466.543 456.762C466.169 456.539 465.877 456.226 465.669 455.823C465.467 455.412 465.366 454.93 465.366 454.376C465.366 453.821 465.467 453.342 465.669 452.939C465.877 452.529 466.169 452.212 466.543 451.989C466.918 451.766 467.361 451.654 467.872 451.654C468.376 451.654 468.815 451.766 469.189 451.989C469.571 452.212 469.863 452.529 470.064 452.939C470.273 453.342 470.377 453.821 470.377 454.376C470.377 454.93 470.273 455.412 470.064 455.823C469.863 456.226 469.571 456.539 469.189 456.762C468.815 456.986 468.376 457.097 467.872 457.097ZM467.872 456.395C468.361 456.395 468.754 456.222 469.049 455.877C469.344 455.524 469.492 455.024 469.492 454.376C469.492 453.72 469.344 453.22 469.049 452.874C468.754 452.529 468.361 452.356 467.872 452.356C467.375 452.356 466.979 452.529 466.684 452.874C466.396 453.22 466.252 453.72 466.252 454.376C466.252 455.024 466.396 455.524 466.684 455.877C466.979 456.222 467.375 456.395 467.872 456.395ZM472.134 457.076C471.839 457.076 471.691 456.924 471.691 456.622V452.118C471.691 451.823 471.832 451.676 472.113 451.676C472.401 451.676 472.545 451.823 472.545 452.118V452.691C472.689 452.36 472.912 452.108 473.214 451.935C473.517 451.755 473.877 451.658 474.294 451.643C474.525 451.622 474.647 451.737 474.661 451.989C474.683 452.241 474.553 452.381 474.273 452.41L474.1 452.432C473.603 452.475 473.225 452.633 472.966 452.907C472.707 453.173 472.577 453.54 472.577 454.008V456.622C472.577 456.924 472.429 457.076 472.134 457.076ZM478.94 457.076C478.624 457.076 478.465 456.914 478.465 456.59V449.872C478.465 449.548 478.627 449.386 478.951 449.386H482.872C483.124 449.386 483.25 449.508 483.25 449.753C483.25 450.005 483.124 450.131 482.872 450.131H479.351V452.788H482.645C482.904 452.788 483.034 452.91 483.034 453.155C483.034 453.407 482.904 453.533 482.645 453.533H479.351V456.59C479.351 456.914 479.214 457.076 478.94 457.076ZM484.601 457.076C484.305 457.076 484.158 456.924 484.158 456.622V452.118C484.158 451.823 484.298 451.676 484.579 451.676C484.867 451.676 485.011 451.823 485.011 452.118V452.691C485.155 452.36 485.378 452.108 485.681 451.935C485.983 451.755 486.343 451.658 486.761 451.643C486.991 451.622 487.113 451.737 487.128 451.989C487.149 452.241 487.02 452.381 486.739 452.41L486.566 452.432C486.069 452.475 485.691 452.633 485.432 452.907C485.173 453.173 485.043 453.54 485.043 454.008V456.622C485.043 456.924 484.896 457.076 484.601 457.076ZM490.33 457.097C489.502 457.097 488.847 456.856 488.365 456.374C487.882 455.884 487.641 455.222 487.641 454.386C487.641 453.846 487.749 453.371 487.965 452.961C488.181 452.543 488.476 452.223 488.851 452C489.232 451.769 489.672 451.654 490.168 451.654C490.881 451.654 491.439 451.884 491.842 452.345C492.246 452.799 492.447 453.425 492.447 454.224C492.447 454.448 492.321 454.559 492.069 454.559H488.494C488.523 455.157 488.696 455.614 489.013 455.931C489.33 456.24 489.769 456.395 490.33 456.395C490.568 456.395 490.809 456.366 491.054 456.309C491.299 456.244 491.536 456.132 491.767 455.974C491.932 455.866 492.069 455.844 492.177 455.909C492.292 455.974 492.35 456.075 492.35 456.212C492.357 456.341 492.285 456.456 492.134 456.557C491.896 456.73 491.612 456.863 491.281 456.957C490.957 457.05 490.64 457.097 490.33 457.097ZM490.19 452.302C489.693 452.302 489.301 452.457 489.013 452.766C488.725 453.076 488.556 453.483 488.505 453.987H491.691C491.67 453.454 491.529 453.04 491.27 452.745C491.018 452.45 490.658 452.302 490.19 452.302ZM496.078 457.097C495.25 457.097 494.595 456.856 494.113 456.374C493.63 455.884 493.389 455.222 493.389 454.386C493.389 453.846 493.497 453.371 493.713 452.961C493.929 452.543 494.224 452.223 494.599 452C494.98 451.769 495.42 451.654 495.916 451.654C496.629 451.654 497.187 451.884 497.59 452.345C497.994 452.799 498.195 453.425 498.195 454.224C498.195 454.448 498.069 454.559 497.817 454.559H494.242C494.271 455.157 494.444 455.614 494.761 455.931C495.078 456.24 495.517 456.395 496.078 456.395C496.316 456.395 496.557 456.366 496.802 456.309C497.047 456.244 497.284 456.132 497.515 455.974C497.68 455.866 497.817 455.844 497.925 455.909C498.04 455.974 498.098 456.075 498.098 456.212C498.105 456.341 498.033 456.456 497.882 456.557C497.644 456.73 497.36 456.863 497.029 456.957C496.705 457.05 496.388 457.097 496.078 457.097ZM495.938 452.302C495.441 452.302 495.049 452.457 494.761 452.766C494.473 453.076 494.304 453.483 494.253 453.987H497.439C497.418 453.454 497.277 453.04 497.018 452.745C496.766 452.45 496.406 452.302 495.938 452.302ZM499.893 459.02C499.605 459.02 499.461 458.872 499.461 458.577V452.118C499.461 451.823 499.602 451.676 499.882 451.676C500.178 451.676 500.325 451.823 500.325 452.118V452.68C500.476 452.363 500.71 452.115 501.027 451.935C501.344 451.748 501.708 451.654 502.118 451.654C502.586 451.654 502.993 451.766 503.338 451.989C503.691 452.205 503.961 452.518 504.148 452.928C504.343 453.332 504.44 453.814 504.44 454.376C504.44 454.93 504.343 455.412 504.148 455.823C503.961 456.226 503.691 456.539 503.338 456.762C502.993 456.986 502.586 457.097 502.118 457.097C501.715 457.097 501.355 457.007 501.038 456.827C500.721 456.647 500.487 456.399 500.336 456.082V458.577C500.336 458.872 500.188 459.02 499.893 459.02ZM501.934 456.395C502.424 456.395 502.816 456.222 503.112 455.877C503.407 455.524 503.554 455.024 503.554 454.376C503.554 453.72 503.407 453.22 503.112 452.874C502.816 452.529 502.424 452.356 501.934 452.356C501.445 452.356 501.052 452.529 500.757 452.874C500.462 453.22 500.314 453.72 500.314 454.376C500.314 455.024 500.462 455.524 500.757 455.877C501.052 456.222 501.445 456.395 501.934 456.395ZM506.19 450.488C505.808 450.488 505.617 450.308 505.617 449.948C505.617 449.595 505.808 449.418 506.19 449.418C506.571 449.418 506.762 449.595 506.762 449.948C506.762 450.308 506.571 450.488 506.19 450.488ZM506.19 457.054C505.902 457.054 505.758 456.896 505.758 456.579V452.162C505.758 451.852 505.902 451.697 506.19 451.697C506.485 451.697 506.632 451.852 506.632 452.162V456.579C506.632 456.896 506.485 457.054 506.19 457.054ZM508.7 457.076C508.412 457.076 508.268 456.924 508.268 456.622V449.753C508.268 449.458 508.412 449.31 508.7 449.31C508.995 449.31 509.143 449.458 509.143 449.753V454.084H509.164L511.378 451.967C511.472 451.874 511.558 451.802 511.637 451.751C511.717 451.701 511.821 451.676 511.951 451.676C512.123 451.676 512.235 451.744 512.285 451.881C512.343 452.01 512.307 452.144 512.177 452.28L510.071 454.278L512.383 456.449C512.534 456.593 512.573 456.734 512.501 456.87C512.437 457.007 512.325 457.076 512.167 457.076C512.037 457.076 511.929 457.05 511.843 457C511.763 456.942 511.67 456.86 511.562 456.752L509.164 454.538H509.143V456.622C509.143 456.924 508.995 457.076 508.7 457.076Z" fill="#515151"/>
</g>
<defs>
<clipPath id="clip0_12635_57535">
<rect width="513" height="461" fill="white"/>
</clipPath>
</defs>
</svg>
