<svg width="90" height="90" viewBox="0 0 90 90" fill="none" xmlns="http://www.w3.org/2000/svg">
<g id="type=acessibilidade, Size=90" clip-path="url(#clip0_18348_4905)">
<g id="Icon">
<g id="Bounding box">
<g id="Vector">
<path fill-rule="evenodd" clip-rule="evenodd" d="M45 78.4286C63.4621 78.4286 78.4286 63.4621 78.4286 45C78.4286 26.5379 63.4621 11.5714 45 11.5714C26.5379 11.5714 11.5714 26.5379 11.5714 45C11.5714 63.4621 26.5379 78.4286 45 78.4286ZM45 84C66.5391 84 84 66.5391 84 45C84 23.4609 66.5391 6 45 6C23.4609 6 6 23.4609 6 45C6 66.5391 23.4609 84 45 84Z" fill="url(#paint0_linear_18348_4905)"/>
<path d="M32.6356 55.6723C32.6777 55.6916 32.7188 55.7117 32.7589 55.7326L31.6806 54.9573L31.6754 54.9624C31.6601 54.9771 31.6445 54.9917 31.6286 55.0063C31.4176 55.1991 31.1498 55.3751 30.8343 55.4993C30.4942 55.6331 30.186 55.6723 29.9571 55.6723H32.6356Z" fill="url(#paint1_linear_18348_4905)"/>
<path d="M36.6266 40.6752L36.6191 40.9184L36.6305 40.8531L36.5106 41.8092C36.4949 42.018 36.4861 42.2276 36.4844 42.4379L39.0601 43.1463L36.6266 40.6752Z" fill="url(#paint2_linear_18348_4905)"/>
<path d="M36.6162 40.9359C36.3608 40.9278 36.0351 40.8718 35.6882 40.7183C35.3768 40.5805 35.1217 40.3965 34.9262 40.2059C34.9017 40.182 34.8781 40.158 34.8555 40.134L34.89 40.1707L36.5106 41.8092C36.5193 41.6926 36.5302 41.5752 36.5431 41.4591C36.5626 41.2837 36.587 41.1093 36.6162 40.9359Z" fill="url(#paint3_linear_18348_4905)"/>
<path d="M36.792 32.5808C35.897 32.566 35.0225 32.7461 34.2194 33.1177L36.792 32.5808Z" fill="url(#paint4_linear_18348_4905)"/>
<path d="M39.2754 43.3649H39.8549L39.0601 43.1463L39.2754 43.3649Z" fill="url(#paint5_linear_18348_4905)"/>
<path fill-rule="evenodd" clip-rule="evenodd" d="M28.2865 62.7766C28.0206 62.5931 27.7659 62.3843 27.525 62.1498C26.368 61.0255 25.7786 59.547 25.7786 57.9969C25.7786 57.7439 25.7943 57.4929 25.8256 57.245C24.6871 56.1242 24.1071 54.6571 24.1071 53.1195C24.1071 51.5694 24.6966 50.0909 25.8536 48.9667C26.0945 48.7321 26.3492 48.5233 26.6151 48.3398L26.6143 48.2422C26.6143 46.69 27.2051 45.2118 28.3607 44.0877C29.512 42.9679 30.9765 42.4379 32.4643 42.4379H32.4978L32.4634 42.4029L32.4319 42.3695C31.3384 41.2091 30.8114 39.7287 30.8583 38.1987L30.8581 38.2037L35.0349 38.325L30.8584 38.1936L30.8583 38.1987C30.9052 36.6288 31.5573 35.1543 32.7756 34.0681L32.8257 34.0239C32.7858 33.7122 32.7707 33.3959 32.7804 33.0775L32.7803 33.0825L34.206 33.1239L34.2194 33.1177L32.7806 33.0724L32.7804 33.0775C32.8273 31.5076 33.4794 30.0331 34.6977 28.9469C34.88 28.7843 35.0696 28.6349 35.2654 28.4989C35.3007 26.9082 35.9753 25.4538 37.1631 24.3947C38.3416 23.3439 39.7998 22.8686 41.2704 22.909L41.28 22.9092C41.6301 22.9196 41.978 22.9595 42.3197 23.0295C42.3951 22.9546 42.473 22.8812 42.5534 22.8095C43.7079 21.7801 45.151 21.2817 46.6441 21.3239L46.6542 21.3242C48.1702 21.3707 49.5989 21.9767 50.684 23.1109L55.7424 28.2995C56.2929 27.7798 56.9323 27.3603 57.634 27.0481L57.6394 27.0457C59.1997 26.3542 60.9219 26.2413 62.5938 26.8069L62.621 26.8161L65.8929 27.9734V43.812C65.8929 44.9797 65.646 46.1163 65.1578 47.1804L65.1547 47.1872C64.6851 48.2057 64.0261 49.1078 63.1949 49.8646L60.8786 51.9889V60.4356C60.8786 62.6894 60.0273 64.7355 58.4017 66.3166C56.7814 67.8927 54.7335 68.6786 52.5214 68.6786H34.1357C32.6435 68.6786 31.1799 68.1451 30.0305 67.0271C28.8728 65.9011 28.2857 64.4219 28.2857 62.8742L28.2865 62.7766ZM52.5214 64.5C53.6914 64.5 54.6804 64.1071 55.4882 63.3213C56.2961 62.5355 56.7 61.5736 56.7 60.4356V51.9409C56.7 51.3989 56.5886 50.8705 56.3657 50.3557C56.2899 50.1806 56.2028 50.0132 56.1044 49.8538C56.0094 49.6998 55.9039 49.5532 55.7879 49.4139C55.7122 49.3229 55.6319 49.235 55.5472 49.1503C55.5193 49.1224 55.4909 49.0948 55.462 49.0676L55.4046 49.0145L45.8357 40.1133L45.3761 40.3572C45.2444 40.4184 45.1219 40.4865 45.0086 40.5615C44.9698 40.5871 44.9321 40.6136 44.8954 40.6408L44.8914 40.6437C44.8363 40.6849 44.7836 40.7279 44.7334 40.7727C44.6107 40.882 44.5025 41.0022 44.4087 41.1332C44.279 41.3144 44.1769 41.5164 44.1024 41.7391L44.0958 41.7591C44.0619 41.8628 44.0351 41.9665 44.0154 42.0702C44.0018 42.1422 43.9916 42.2143 43.9848 42.2863C43.9801 42.3366 43.977 42.3876 43.9757 42.4379C43.9727 42.5501 43.978 42.6623 43.9917 42.7745C44.0001 42.8432 44.0117 42.9118 44.0263 42.9805C44.071 43.1899 44.1449 43.3993 44.2479 43.6087L45.8357 46.6164H32.4643C31.9907 46.6164 31.594 46.772 31.2742 47.083C31.1989 47.1563 31.1324 47.2337 31.0747 47.3152C30.8868 47.5807 30.7929 47.8897 30.7929 48.2422C30.7929 48.7029 30.9533 49.0887 31.2742 49.3998C31.594 49.7119 31.9907 49.868 32.4643 49.868H41.6571V51.4938H29.9571C29.5553 51.4938 29.2089 51.6061 28.9178 51.8308C28.889 51.8531 28.8607 51.8764 28.833 51.9008C28.8107 51.9205 28.7887 51.9409 28.7671 51.962C28.7227 52.005 28.6814 52.0494 28.6432 52.0953C28.6179 52.1257 28.5939 52.1567 28.5712 52.1884C28.5115 52.2719 28.4611 52.3598 28.4201 52.4521C28.3305 52.6537 28.2857 52.8762 28.2857 53.1195C28.2857 53.1521 28.2865 53.1842 28.2881 53.216C28.3092 53.6343 28.4688 53.988 28.7671 54.2771C29.0869 54.5893 29.4836 54.7453 29.9571 54.7453H41.6571V56.3711H31.6286C31.155 56.3711 30.7583 56.5272 30.4385 56.8393C30.1176 57.1504 29.9571 57.5362 29.9571 57.9969C29.9571 58.2398 30.0018 58.4619 30.091 58.6633C30.1314 58.7544 30.181 58.8413 30.2397 58.9239C30.2523 58.9417 30.2654 58.9594 30.279 58.9768C30.3268 59.0385 30.38 59.0977 30.4385 59.1544C30.473 59.1881 30.5084 59.22 30.5447 59.25C30.8448 59.4985 31.2061 59.6227 31.6286 59.6227H41.6571V61.2484H34.1357C33.6621 61.2484 33.2649 61.4045 32.944 61.7167C32.6242 62.0277 32.4643 62.4136 32.4643 62.8742C32.4643 63.2271 32.5581 63.5361 32.7458 63.8012C32.8031 63.8822 32.8692 63.959 32.944 64.0318C33.2649 64.3439 33.6621 64.5 34.1357 64.5H52.5214ZM32.7804 33.0775L32.7806 33.0724L34.2194 33.1177C35.0225 32.7461 35.897 32.566 36.792 32.5808L34.2194 33.1177L34.206 33.1239L32.7803 33.0825L32.7804 33.0775ZM30.8583 38.1987L30.8584 38.1936L35.0349 38.325C35.0383 38.2082 35.052 38.0967 35.076 37.9904C35.1467 37.6773 35.3069 37.4094 35.5564 37.1869C35.8907 36.8889 36.2874 36.7463 36.7465 36.7593C37.1693 36.7723 37.5272 36.9165 37.8202 37.192C37.8377 37.2085 37.8549 37.2254 37.872 37.2427L37.8964 37.2682L41.0721 40.4791C41.0423 40.5496 41.0141 40.6206 40.9875 40.692L40.9857 40.697C40.8742 40.9974 40.7916 41.3061 40.7379 41.6232C40.7211 41.7217 40.7072 41.821 40.6961 41.9212L40.6908 41.971C40.6747 42.1287 40.6655 42.2843 40.6632 42.4379C40.6585 42.7556 40.6834 43.0646 40.7379 43.3649H39.8549H39.2754L39.0601 43.1463L36.4844 42.4379C36.4861 42.2276 36.4949 42.018 36.5106 41.8092L34.89 40.1707L34.8555 40.134C34.8781 40.158 34.9017 40.182 34.9262 40.2059C35.1217 40.3965 35.3768 40.5805 35.6882 40.7183C36.0351 40.8718 36.3608 40.9278 36.6162 40.9359L36.6191 40.9184L36.6266 40.6752L35.4729 39.5037C35.1664 39.1785 35.0205 38.7856 35.0349 38.325L30.8581 38.2037L30.8583 38.1987ZM57.7029 46.6571C57.9536 46.8738 58.1764 47.1042 58.3714 47.348C58.5664 47.5919 58.7475 47.8493 58.9146 48.1203L60.3771 46.779C60.795 46.3997 61.1226 45.9526 61.3599 45.4377C61.46 45.2198 61.5388 44.9969 61.5965 44.7692L61.6112 44.7089C61.6799 44.4178 61.7143 44.1188 61.7143 43.812V30.9277L61.2546 30.7651C60.6139 30.5483 59.9732 30.5819 59.3325 30.8659C59.288 30.8857 59.2446 30.9063 59.2021 30.9277C58.9983 31.0305 58.8176 31.1521 58.6602 31.2925C58.3779 31.5441 58.1703 31.856 58.0371 32.2283L56.8671 35.4392L47.6743 26.0097L47.6498 25.9842C47.6336 25.9676 47.6171 25.9515 47.6005 25.9358C47.3071 25.6588 46.9489 25.5138 46.526 25.5008C46.3936 25.4971 46.2665 25.5062 46.1445 25.5282C45.8425 25.5827 45.5724 25.7161 45.3343 25.9284C45 26.2265 44.8256 26.6058 44.8111 27.0664C44.7978 27.5271 44.9443 27.92 45.2507 28.2451L51.6021 34.7076L50.3486 35.8456L42.3257 27.5948C42.3108 27.579 42.2957 27.5635 42.2803 27.5484L42.2464 27.5159C41.9529 27.2422 41.5894 27.0989 41.1557 27.086C40.9704 27.0809 40.7957 27.0996 40.6318 27.1421C40.3767 27.2083 40.1474 27.3321 39.9439 27.5135C39.9161 27.5384 39.8893 27.5638 39.8638 27.5896C39.5829 27.8742 39.4425 28.2211 39.4425 28.6304C39.4425 29.0781 39.5957 29.4645 39.9021 29.7896L46.17 36.2521L46.3789 36.1302L57.7029 46.6571ZM38.6703 31.6381C39.0984 31.6513 39.4602 31.7997 39.7555 32.0834L39.8152 32.1949C39.8164 32.179 39.8175 32.163 39.8186 32.147L44.6239 37.065C44.5124 37.1192 44.4053 37.1722 44.3027 37.2239C44.1944 37.2784 44.091 37.3315 43.9926 37.3832L43.9234 37.4197L43.841 37.4638C43.4983 37.6483 43.2228 37.8134 43.0143 37.9592C42.9867 37.9785 42.9589 37.9986 42.931 38.0194C42.7771 38.1339 42.619 38.2693 42.4569 38.4255C42.2788 38.5972 42.0958 38.794 41.9079 39.0159L37.395 34.3824C37.0886 34.0573 36.9426 33.6644 36.9571 33.2038C36.9611 33.0658 36.9795 32.9352 37.0123 32.8118C37.0324 32.7362 37.0579 32.6632 37.0888 32.5931C37.1113 32.5421 37.1365 32.4927 37.1647 32.4446C37.2142 32.3601 37.2726 32.28 37.3398 32.2043C37.3825 32.1563 37.4288 32.1101 37.4786 32.0657C37.5046 32.0425 37.5311 32.0202 37.558 31.9988C37.6287 31.9425 37.7021 31.8928 37.7781 31.8497C38.0432 31.6993 38.3406 31.6288 38.6703 31.6381ZM33.3468 56.1541L33.352 56.1591L32.7589 55.7326C32.7188 55.7117 32.6777 55.6916 32.6356 55.6723H29.9571C30.186 55.6723 30.4942 55.6331 30.8343 55.4993C31.1498 55.3751 31.4176 55.1991 31.6286 55.0063C31.6445 54.9917 31.6601 54.9771 31.6754 54.9624L31.6806 54.9573L32.7589 55.7326C32.9882 55.8524 33.1857 55.9987 33.3468 56.1541Z" fill="url(#paint6_linear_18348_4905)"/>
</g>
</g>
</g>
</g>
<defs>
<linearGradient id="paint0_linear_18348_4905" x1="20.3203" y1="6.00001" x2="85.3423" y2="23.9488" gradientUnits="userSpaceOnUse">
<stop stop-color="#018383"/>
<stop offset="1" stop-color="#014687"/>
</linearGradient>
<linearGradient id="paint1_linear_18348_4905" x1="20.3203" y1="6.00001" x2="85.3423" y2="23.9488" gradientUnits="userSpaceOnUse">
<stop stop-color="#018383"/>
<stop offset="1" stop-color="#014687"/>
</linearGradient>
<linearGradient id="paint2_linear_18348_4905" x1="20.3203" y1="6.00001" x2="85.3423" y2="23.9488" gradientUnits="userSpaceOnUse">
<stop stop-color="#018383"/>
<stop offset="1" stop-color="#014687"/>
</linearGradient>
<linearGradient id="paint3_linear_18348_4905" x1="20.3203" y1="6.00001" x2="85.3423" y2="23.9488" gradientUnits="userSpaceOnUse">
<stop stop-color="#018383"/>
<stop offset="1" stop-color="#014687"/>
</linearGradient>
<linearGradient id="paint4_linear_18348_4905" x1="20.3203" y1="6.00001" x2="85.3423" y2="23.9488" gradientUnits="userSpaceOnUse">
<stop stop-color="#018383"/>
<stop offset="1" stop-color="#014687"/>
</linearGradient>
<linearGradient id="paint5_linear_18348_4905" x1="20.3203" y1="6.00001" x2="85.3423" y2="23.9488" gradientUnits="userSpaceOnUse">
<stop stop-color="#018383"/>
<stop offset="1" stop-color="#014687"/>
</linearGradient>
<linearGradient id="paint6_linear_18348_4905" x1="20.3203" y1="6.00001" x2="85.3423" y2="23.9488" gradientUnits="userSpaceOnUse">
<stop stop-color="#018383"/>
<stop offset="1" stop-color="#014687"/>
</linearGradient>
<clipPath id="clip0_18348_4905">
<rect width="90" height="90" fill="white"/>
</clipPath>
</defs>
</svg>
