<svg width="78" height="66" viewBox="0 0 78 66" fill="none" xmlns="http://www.w3.org/2000/svg">
<path d="M76.9025 25.8655C76.9874 25.5659 77.0879 25.2738 77.16 24.9691C77.1754 24.9081 77.1806 24.8472 77.196 24.7862C77.9316 21.8578 77.9287 18.7963 77.1876 15.8692C76.4466 12.9421 74.9899 10.2386 72.9449 7.99495C71.0592 5.49412 68.6022 3.46696 65.7735 2.07796C62.9447 0.688953 59.8237 -0.0227649 56.6638 0.000555124H56.5299C56.2724 0.000555124 55.984 0.0183323 55.7111 0.0259509H55.3995C49.9577 0.322073 44.5486 1.0473 39.2241 2.1947L27.6963 0.378943H27.6062C22.1155 -0.556613 16.4654 0.33685 11.5465 2.91846C8.77542 4.5656 6.39568 6.78101 4.56858 9.41454L4.46301 9.55421L4.39864 9.6431C1.98147 13.1795 0.667075 17.3366 0.617658 21.6013C0.56824 25.8659 1.78597 30.0515 4.12055 33.6415C4.07163 33.7279 4.04331 33.8244 3.99696 33.9132C3.77379 34.3535 3.5836 34.8093 3.42791 35.277C3.34551 35.5309 3.28371 35.8001 3.22449 36.0642C3.17814 36.2801 3.13179 36.4934 3.1009 36.7093C3.06912 36.9783 3.05022 37.2486 3.04425 37.5194C3.04425 37.7378 3.0185 37.9511 3.0288 38.1669C3.04682 38.4514 3.0803 38.7332 3.12664 39.0151C3.15754 39.2158 3.17299 39.4164 3.21934 39.6145C3.29659 39.9268 3.39958 40.2341 3.51803 40.5338C3.57725 40.6938 3.61587 40.8588 3.68797 41.0163C3.89911 41.481 4.1566 41.9203 4.46044 42.3317C5.62542 43.9769 7.3444 45.1612 9.31154 45.6737C9.23813 46.7566 9.4209 47.8415 9.84541 48.8429C10.2699 49.8442 10.9246 50.7345 11.7577 51.4435C13.2332 52.7185 15.0429 53.5581 16.9796 53.8662C17.3787 55.1436 18.079 56.3092 19.0215 57.2692C20.3072 58.6441 22.0449 59.5257 23.9266 59.7579C24.3747 61.2638 25.2244 62.625 26.3882 63.6941C27.8224 65.0858 29.7433 65.8781 31.7543 65.9035C33.2333 65.8966 34.6859 65.5173 35.9746 64.8014C37.8903 65.8832 40.1356 66.2489 42.3036 65.8324C43.4416 65.627 44.5198 65.1773 45.4618 64.515C46.4039 63.8528 47.1867 62.9942 47.7547 62.0003C47.8088 61.9165 47.8397 61.8428 47.8886 61.759C50.0772 62.2009 52.356 61.8124 54.2692 60.6721C55.9516 59.7353 57.2324 58.2285 57.874 56.4311C60.176 56.4616 62.4058 55.6439 64.1233 54.1329C65.0643 53.3216 65.7951 52.3002 66.2547 51.1539C66.7142 50.0075 66.8892 48.7694 66.7651 47.5428C66.7651 47.4717 66.7471 47.4158 66.742 47.3473C68.0858 46.9501 69.2946 46.1995 70.2387 45.176C71.4591 43.9067 72.2449 42.2916 72.4851 40.5584C72.7253 38.8253 72.4079 37.0615 71.5776 35.5157C73.8925 32.8777 75.644 29.8063 76.7274 26.4852C76.7892 26.2896 76.8407 26.0763 76.9025 25.8655ZM72.4943 21.5483C72.3658 22.8252 72.0814 24.0821 71.6471 25.2916L71.5647 25.5455C70.7091 27.8048 69.4749 29.9062 67.9135 31.7623C59.8361 24.8091 48.0869 14.6612 47.1213 13.752C46.006 12.6992 44.5247 12.1068 42.9808 12.0963C42.5021 12.0922 42.0254 12.1598 41.5672 12.2969C39.9347 12.8048 35.9231 14.0746 32.4212 15.357C31.0823 15.8471 29.5528 14.5951 29.0867 13.5286C28.7777 12.8886 28.7262 12.1572 28.9374 11.4817C29.3571 10.7325 30.0626 10.1764 30.8969 9.93768C38.8177 7.1915 47.0934 5.56696 55.4768 5.1126H55.7884C56.0742 5.1126 56.3574 5.09228 56.6201 5.08721C58.5432 5.05601 60.4525 5.41292 62.2307 6.13603C64.8677 7.3215 67.1829 9.10541 68.9873 11.342C70.5978 13.1398 71.7241 15.3082 72.2625 17.6476L72.2857 17.7645C72.4096 18.3896 72.4879 19.0227 72.52 19.6589C72.5277 19.8646 72.5406 20.1237 72.5406 20.3522C72.5406 20.7205 72.5406 21.0862 72.4968 21.4493L72.4943 21.5483ZM8.23781 38.459C8.21978 38.3498 8.21978 38.2304 8.21978 38.1161C8.19138 37.8715 8.19138 37.6244 8.21978 37.3797C8.2482 37.2355 8.28517 37.093 8.3305 36.953C8.382 36.727 8.45925 36.5061 8.55194 36.2953C8.63692 36.1429 8.73476 35.9956 8.84291 35.8585C8.99616 35.6108 9.18235 35.3845 9.39651 35.1855L9.41196 35.1728L14.2553 31.1223C14.5771 30.8779 14.9446 30.6985 15.3368 30.5943C15.729 30.4901 16.1381 30.4632 16.5408 30.515C16.9436 30.5669 17.332 30.6966 17.6838 30.8967C18.0357 31.0968 18.3441 31.3633 18.5915 31.681C18.7716 31.941 18.8885 32.2385 18.9331 32.5503C18.9778 32.8622 18.949 33.1799 18.8489 33.479L11.253 40.7776C10.7286 40.7868 10.2108 40.6618 9.75004 40.4148C9.28927 40.1678 8.90132 39.8072 8.62404 39.3681C8.4327 39.0948 8.30116 38.7852 8.23781 38.459ZM14.7162 44.5411L23.0512 36.5315L23.0125 36.4934C23.4815 36.263 24.0113 36.1814 24.5292 36.2598C25.1909 36.4375 25.7883 36.8032 26.244 37.3111C26.6972 37.692 27.0011 38.2152 27.104 38.7942C27.1423 39.3808 27.012 39.9661 26.7281 40.483C26.7018 40.5537 26.6795 40.6257 26.6612 40.6988L18.2387 48.7923C17.6477 48.8177 17.0581 48.7175 16.5099 48.4984C15.9617 48.2793 15.4676 47.9465 15.0613 47.5225C14.7269 47.1071 14.5173 46.6075 14.4563 46.0805C14.3953 45.5535 14.4854 45.0202 14.7162 44.5411ZM21.8873 52.3755L30.5905 44.0231C31.1441 44.1323 31.6513 44.4116 32.0375 44.8205C32.5713 45.2814 32.9428 45.8977 33.0984 46.5803C33.139 46.874 33.126 47.1725 33.0598 47.4616L25.5334 54.6865C25.0312 54.7784 24.5136 54.7427 24.0294 54.5828C23.5451 54.4228 23.1101 54.1439 22.7654 53.7723C22.3632 53.3829 22.0621 52.9039 21.8873 52.3755ZM29.9648 60.0245C29.499 59.6189 29.1313 59.1157 28.8885 58.5516L35.9977 51.7279C36.505 51.893 36.9685 52.1647 37.3573 52.5228C37.7203 52.8088 37.9943 53.1899 38.1478 53.6224C38.2351 53.9426 38.2351 54.2799 38.1478 54.6001C37.8261 55.6245 37.2902 56.571 36.5745 57.3784L34.6279 59.6131H34.6433C34.579 59.6538 34.5069 59.6716 34.4476 59.7173C33.7217 60.3708 32.7875 60.7542 31.8058 60.8016C31.1127 60.7901 30.4517 60.5111 29.9648 60.0245ZM41.4848 60.8042C41.1037 60.8626 40.7201 60.8804 40.3364 60.855L40.527 60.6366L40.5888 60.5629L40.5913 60.5655C41.3718 59.6141 42.0323 58.5729 42.5586 57.4647L43.6967 58.6532C43.6034 58.8925 43.4915 59.1243 43.3619 59.3465C43.1784 59.7117 42.9147 60.0319 42.59 60.2841C42.2653 60.5362 41.8878 60.7139 41.4848 60.8042ZM57.9641 51.3445L53.3834 46.3391C52.9901 45.8852 52.447 45.5827 51.8498 45.4848C51.2526 45.3868 50.6395 45.4998 50.1184 45.8038C49.5973 46.1078 49.2016 46.5833 49.001 47.1466C48.8004 47.71 48.8077 48.3251 49.0215 48.8837C49.1407 49.2004 49.3228 49.4905 49.5571 49.737L53.2547 53.8002C53.2289 54.0592 53.1748 54.3157 53.0924 54.562C52.878 55.2814 52.3887 55.8905 51.7277 56.261C50.9227 56.7818 49.9458 56.9781 48.9984 56.8095L45.9085 53.5742C45.5749 53.2282 45.1486 52.9827 44.6791 52.8662C44.2096 52.7498 43.7162 52.7672 43.2564 52.9164C43.2165 52.6698 43.1623 52.4256 43.0941 52.1851C42.669 50.8581 41.8783 49.6737 40.8102 48.7643C40.0619 48.091 39.2047 47.5459 38.2739 47.1517C38.2919 46.6793 38.2617 46.2063 38.1838 45.7398C37.8518 44.0104 36.9708 42.43 35.6681 41.2271C34.7212 40.2814 33.5505 39.5832 32.2616 39.1954C32.2744 38.8551 32.2616 38.5174 32.2229 38.1796C31.9823 36.4692 31.1533 34.8922 29.8746 33.7126C28.7103 32.5105 27.2145 31.6709 25.572 31.2975C25.0132 31.1912 24.4434 31.1528 23.8751 31.1833C23.673 30.2399 23.2644 29.3516 22.6778 28.5803C22.0168 27.7336 21.1929 27.0238 20.2534 26.4916C19.3139 25.9594 18.2771 25.6151 17.2025 25.4785C16.1279 25.3419 15.0366 25.4157 13.9909 25.6957C12.9453 25.9756 11.9659 26.4562 11.1088 27.1099L11.0187 27.181L7.8387 29.8221C6.34761 27.1441 5.63416 24.1124 5.7768 21.0604C5.91945 18.0084 6.91265 15.0543 8.64721 12.5229L8.70129 12.4467C10.1111 10.3735 11.9604 8.62673 14.1214 7.32706C18.0635 5.30223 22.5774 4.63113 26.9496 5.41988L28.1443 5.60781C26.3792 6.39226 24.9692 7.79099 24.1841 9.53644C23.8046 10.4941 23.6241 11.5172 23.6533 12.545C23.6825 13.5728 23.9208 14.5843 24.3541 15.5195C25.1254 17.3595 26.5638 18.8501 28.389 19.7009C30.2141 20.5516 32.2951 20.7014 34.2262 20.1211C37.6251 18.8793 41.5235 17.6324 42.9808 17.1778C43.0967 17.1741 43.212 17.1961 43.3181 17.2422C43.4242 17.2884 43.5184 17.3575 43.5937 17.4445C44.8528 18.6127 60.0524 31.7343 66.4021 37.1918L66.917 37.626C67.3169 38.2648 67.4878 39.0174 67.4024 39.7633C67.3169 40.5093 66.9801 41.2054 66.4458 41.74C66.0789 42.13 65.597 42.3965 65.0683 42.5019L60.606 38.04C60.1203 37.584 59.474 37.332 58.8036 37.3371C58.1331 37.3422 57.4908 37.6041 57.0124 38.0674C56.5339 38.5307 56.2567 39.1592 56.2392 39.8203C56.2218 40.4814 56.4654 41.1233 56.9187 41.6105L61.1828 45.8718C61.2008 45.948 61.2214 46.0242 61.2446 46.0978L61.2755 46.1766C61.4688 46.7186 61.5857 47.2843 61.6231 47.8577C61.6946 48.2931 61.6566 48.7392 61.5125 49.1567C61.3684 49.5743 61.1225 49.9505 60.7965 50.2525C60.0266 50.9636 59.0095 51.3546 57.9564 51.3445H57.9641Z" fill="url(#paint0_linear_820_34337)"/>
<defs>
<linearGradient id="paint0_linear_820_34337" x1="14.7767" y1="6.62977e-06" x2="77.4501" y2="20.2178" gradientUnits="userSpaceOnUse">
<stop stop-color="#018383"/>
<stop offset="1" stop-color="#014687"/>
</linearGradient>
</defs>
</svg>
