<svg width="77" height="66" viewBox="0 0 77 66" fill="none" xmlns="http://www.w3.org/2000/svg">
<path d="M38.5417 65.9999C38.0667 66.0046 37.5988 65.886 37.1848 65.6561C35.6887 64.8311 0.96582 45.3405 0.96582 20.625C0.96582 16.2961 2.34438 12.0771 4.90623 8.56533C7.46807 5.05361 11.0833 2.4273 15.2399 1.05841C19.3964 -0.310487 23.8836 -0.352557 28.0657 0.938156C32.2478 2.22887 35.9128 4.78693 38.5417 8.24998C41.1705 4.78693 44.8355 2.22887 49.0177 0.938156C53.1998 -0.352557 57.6869 -0.310487 61.8434 1.05841C66 2.4273 69.6152 5.05361 72.1771 8.56533C74.7389 12.0771 76.1175 16.2961 76.1175 20.625C76.1175 31.1437 69.9592 41.9374 57.8167 52.7311C52.3029 57.6285 46.2993 61.9591 39.8986 65.6561C39.4845 65.886 39.0166 66.0046 38.5417 65.9999ZM21.8413 5.49999C17.7812 5.49999 13.8874 7.09351 11.0164 9.92999C8.14549 12.7665 6.53261 16.6136 6.53261 20.625C6.53261 39.5999 32.279 56.2718 38.5417 60.053C44.8043 56.2718 70.5507 39.5999 70.5507 20.625C70.5539 17.1284 69.3309 13.7388 67.0897 11.0328C64.8485 8.32673 61.7276 6.47147 58.258 5.78263C54.7883 5.09378 51.1843 5.61391 48.0591 7.25452C44.9338 8.89513 42.4804 11.5549 41.1163 14.7812C40.9066 15.2856 40.5499 15.717 40.0914 16.0206C39.633 16.3242 39.0936 16.4863 38.5417 16.4863C37.9898 16.4863 37.4503 16.3242 36.9919 16.0206C36.5335 15.717 36.1767 15.2856 35.967 14.7812C34.8085 12.0253 32.8472 9.6716 30.3321 8.01909C27.8171 6.36659 24.8617 5.48977 21.8413 5.49999Z" fill="url(#paint0_linear_820_34327)"/>
<defs>
<linearGradient id="paint0_linear_820_34327" x1="14.7632" y1="6.62977e-06" x2="76.1224" y2="19.2863" gradientUnits="userSpaceOnUse">
<stop stop-color="#018383"/>
<stop offset="1" stop-color="#014687"/>
</linearGradient>
</defs>
</svg>
