<svg width="52" height="42" viewBox="0 0 52 42" fill="none" xmlns="http://www.w3.org/2000/svg">
<path d="M4.49362 41.6662C3.33112 41.6662 2.31948 41.2358 1.45872 40.375C0.596915 39.5142 0.166016 38.5026 0.166016 37.3401V4.65991C0.166016 3.49741 0.596915 2.48578 1.45872 1.62501C2.31948 0.764246 3.33112 0.333862 4.49362 0.333862H47.5061C48.6686 0.333862 49.6803 0.764246 50.541 1.62501C51.4028 2.48578 51.8337 3.49741 51.8337 4.65991V37.3401C51.8337 38.5026 51.4028 39.5142 50.541 40.375C49.6803 41.2358 48.6686 41.6662 47.5061 41.6662H4.49362ZM25.9999 22.6151L4.49362 8.72866V37.3401H47.5061V8.72866L25.9999 22.6151ZM25.9999 18.3526L47.3775 4.65991H4.68737L25.9999 18.3526ZM4.49362 8.72866V4.65991V37.3401V8.72866Z" fill="white"/>
</svg>
