<svg width="30" height="30" viewBox="0 0 30 30" fill="none" xmlns="http://www.w3.org/2000/svg">
<path d="M1.833 30C1.30567 30 0.868333 29.8263 0.521 29.479C0.173667 29.1317 0 28.6943 0 28.167V22.167C0 21.7503 0.132 21.382 0.396 21.062C0.66 20.7427 1.00033 20.5413 1.417 20.458L6.625 19.333C7.01367 19.2497 7.39567 19.2707 7.771 19.396C8.14567 19.5207 8.458 19.736 8.708 20.042L12.667 24.042C15.0003 22.736 17.1043 21.1527 18.979 19.292C20.8543 17.4307 22.5003 15.3057 23.917 12.917L19.792 8.75C19.5693 8.528 19.4233 8.25733 19.354 7.938C19.2847 7.618 19.2777 7.26367 19.333 6.875L20.458 1.417C20.514 1.00033 20.6947 0.66 21 0.396C21.3053 0.132 21.6527 0 22.042 0H28.167C28.6943 0 29.1317 0.173667 29.479 0.521C29.8263 0.868333 30 1.30567 30 1.833C30 5.27767 29.1807 8.68733 27.542 12.062C25.9027 15.4373 23.7567 18.4513 21.104 21.104C18.4513 23.7567 15.4373 25.9027 12.062 27.542C8.68733 29.1807 5.27767 30 1.833 30Z" fill="white"/>
</svg>
