<svg width="90" height="90" viewBox="0 0 90 90" fill="none" xmlns="http://www.w3.org/2000/svg">
<circle cx="45" cy="45" r="42.5" stroke="url(#paint0_linear_555_35570)" stroke-width="5"/>
<path d="M41.5833 46.9435C42.2326 46.9435 42.8552 47.2014 43.3143 47.6606C43.7733 48.1197 44.0313 48.7425 44.0313 49.3918C44.0313 50.0411 43.7733 50.6639 43.3143 51.123C42.8552 51.5822 42.2326 51.8401 41.5833 51.8401C40.9341 51.8401 40.3115 51.5822 39.8524 51.123C39.3933 50.6639 39.1354 50.0411 39.1354 49.3918C39.1354 48.7425 39.3933 48.1197 39.8524 47.6606C40.3115 47.2014 40.9341 46.9435 41.5833 46.9435ZM41.5833 27.8389C45.6214 27.8389 48.8409 31.1529 48.8409 35.4776C48.8409 37.7732 48.0028 39.0345 45.9935 40.6406L44.9086 41.4828C43.9451 42.2428 43.62 42.658 43.5534 43.2378L43.5103 43.8489C43.4231 44.3305 43.1588 44.762 42.7694 45.0584C42.38 45.3549 41.8938 45.4948 41.4064 45.4505C40.919 45.4063 40.4659 45.1812 40.1362 44.8195C39.8065 44.4578 39.6241 43.9857 39.625 43.4963C39.625 41.2634 40.4475 40.0334 42.4293 38.4508L43.5182 37.6086C44.6462 36.7077 44.9282 36.2689 44.9282 35.4776C44.9282 33.2918 43.432 31.7562 41.5833 31.7562C39.6485 31.7562 38.2189 33.1899 38.2424 35.458C38.2476 35.9775 38.0463 36.4778 37.6827 36.8487C37.5027 37.0324 37.2882 37.1789 37.0516 37.2797C36.815 37.3805 36.5608 37.4337 36.3037 37.4363C35.7843 37.4415 35.2841 37.2401 34.9132 36.8764C34.5423 36.5128 34.331 36.0167 34.3258 35.4972C34.2827 31.0393 37.4787 27.8389 41.5833 27.8389ZM22 39.579C22.0016 35.3407 23.3778 31.2172 25.9219 27.8276C28.466 24.438 32.0408 21.9653 36.1096 20.7807C40.1784 19.596 44.5216 19.7633 48.4873 21.2575C52.4529 22.7517 55.8269 25.4921 58.1028 29.0674C60.3787 32.6427 61.4336 36.8598 61.1092 41.0857C60.7848 45.3117 59.0986 49.3183 56.3037 52.5042C53.5088 55.6901 49.7561 57.8833 45.6089 58.7545C41.4617 59.6258 37.1438 59.128 33.3035 57.336L24.3422 59.1262C24.0263 59.1891 23.6997 59.1731 23.3915 59.0796C23.0833 58.9861 22.8028 58.8181 22.5751 58.5903C22.3473 58.3625 22.1793 58.082 22.0858 57.7737C21.9923 57.4654 21.9763 57.1388 22.0392 56.8229L23.8291 47.8562C22.6205 45.2645 21.9961 42.4388 22 39.579ZM41.5833 23.9099C38.9017 23.9092 36.2647 24.597 33.9249 25.9074C31.5852 27.2178 29.6208 29.107 28.22 31.3941C26.8192 33.6811 26.0289 36.2895 25.9246 38.9696C25.8203 41.6496 26.4055 44.3116 27.6243 46.7006C27.8255 47.0942 27.8876 47.5443 27.8006 47.9777L26.4533 54.7115L33.186 53.3639C33.6193 53.2769 34.0693 53.339 34.4628 53.5402C36.5728 54.6155 38.8991 55.1984 41.2668 55.2451C43.6345 55.2918 45.9819 54.801 48.1326 53.8097C50.2834 52.8184 52.1814 51.3523 53.6841 49.5218C55.1868 47.6912 56.255 45.5437 56.8084 43.2408C57.3618 40.9379 57.386 38.5394 56.8793 36.2258C56.3725 33.9122 55.3479 31.7436 53.8825 29.883C52.4171 28.0224 50.549 26.5183 48.4188 25.4837C46.2885 24.4492 43.9515 23.9111 41.5833 23.9099ZM37.1183 62.6596C40.5984 65.4749 44.9407 67.0074 49.4167 67C52.3698 67 55.1742 66.3458 57.6926 65.1706L66.6578 66.9608C66.9737 67.0237 67.3003 67.0077 67.6085 66.9142C67.9167 66.8207 68.1972 66.6526 68.4249 66.4248C68.6527 66.197 68.8207 65.9166 68.9142 65.6083C69.0077 65.3 69.0237 64.9734 68.9608 64.6574L67.1709 55.6947C68.3459 53.1759 69 50.3672 69 47.4136C69.0065 42.9383 67.4743 38.5968 64.6603 35.1172C65.2184 38.0173 65.2277 40.9963 64.6877 43.8998C65.509 47.4892 65.0446 51.2531 63.3757 54.5352C63.1745 54.9288 63.1124 55.3788 63.1994 55.8122L64.5467 62.546L57.8101 61.1985C57.378 61.1124 56.9296 61.1745 56.5372 61.3748C53.2549 63.0465 49.4895 63.511 45.8995 62.687C42.9965 63.2269 40.018 63.2176 37.1183 62.6596Z" fill="url(#paint1_linear_555_35570)"/>
<defs>
<linearGradient id="paint0_linear_555_35570" x1="16.5234" y1="9.04059e-06" x2="91.5488" y2="20.7101" gradientUnits="userSpaceOnUse">
<stop stop-color="#018383"/>
<stop offset="1" stop-color="#014687"/>
</linearGradient>
<linearGradient id="paint1_linear_555_35570" x1="30.6289" y1="20" x2="69.8088" y2="30.8153" gradientUnits="userSpaceOnUse">
<stop stop-color="#018383"/>
<stop offset="1" stop-color="#014687"/>
</linearGradient>
</defs>
</svg>
