<svg width="48" height="48" viewBox="0 0 48 48" fill="none" xmlns="http://www.w3.org/2000/svg">
<path d="M43.6333 47.25L27.3583 30.975C26.0667 32.0083 24.5812 32.8264 22.9021 33.4292C21.2229 34.0319 19.4361 34.3333 17.5417 34.3333C12.8486 34.3333 8.87717 32.7084 5.62733 29.4586C2.37578 26.207 0.75 22.2347 0.75 17.5417C0.75 12.8486 2.37578 8.87631 5.62733 5.62475C8.87717 2.37492 12.8486 0.75 17.5417 0.75C22.2347 0.75 26.207 2.37492 29.4586 5.62475C32.7084 8.87631 34.3333 12.8486 34.3333 17.5417C34.3333 19.4361 34.0319 21.2229 33.4292 22.9021C32.8264 24.5812 32.0083 26.0667 30.975 27.3583L47.25 43.6333L43.6333 47.25ZM17.5417 29.1667C20.7708 29.1667 23.5161 28.0369 25.7773 25.7773C28.0369 23.5161 29.1667 20.7708 29.1667 17.5417C29.1667 14.3125 28.0369 11.5673 25.7773 9.306C23.5161 7.04644 20.7708 5.91667 17.5417 5.91667C14.3125 5.91667 11.5673 7.04644 9.306 9.306C7.04644 11.5673 5.91667 14.3125 5.91667 17.5417C5.91667 20.7708 7.04644 23.5161 9.306 25.7773C11.5673 28.0369 14.3125 29.1667 17.5417 29.1667Z" fill="white"/>
</svg>
