<svg width="90" height="90" viewBox="0 0 90 90" fill="none" xmlns="http://www.w3.org/2000/svg">
<circle cx="45" cy="45" r="42.5" stroke="url(#paint0_linear_555_35549)" stroke-width="5"/>
<path d="M43.4296 48.7437L39.0284 44.5993L39.0696 44.5605L42.0585 47.3751L43.4296 48.6661L44.8007 47.3751L52.2015 40.4061L52.2427 40.4449L43.4296 48.7437ZM45.1482 66.047L45.6096 66.1564L46.071 66.047C51.3442 64.7967 55.7049 61.9319 59.106 57.5264L59.106 57.5263C62.4971 53.1332 64.2192 48.2021 64.2192 42.7909V30.8651V29.4503L62.8851 28.9793L46.2755 23.1141L45.6096 22.879L44.9437 23.1141L28.3341 28.9793L27 29.4503V30.8651V42.7909C27 48.2021 28.7228 53.1331 32.1151 57.526C35.5148 61.9318 39.875 64.7967 45.1482 66.047Z" stroke="url(#paint1_linear_555_35549)" stroke-width="4"/>
<defs>
<linearGradient id="paint0_linear_555_35549" x1="16.5234" y1="9.04059e-06" x2="91.5488" y2="20.7101" gradientUnits="userSpaceOnUse">
<stop stop-color="#018383"/>
<stop offset="1" stop-color="#014687"/>
</linearGradient>
<linearGradient id="paint1_linear_555_35549" x1="35.0988" y1="25" x2="63.3473" y2="31.6248" gradientUnits="userSpaceOnUse">
<stop stop-color="#018383"/>
<stop offset="1" stop-color="#014687"/>
</linearGradient>
</defs>
</svg>
