<svg width="56" height="66" viewBox="0 0 56 66" fill="none" xmlns="http://www.w3.org/2000/svg">
<path d="M25.4114 0.521948L3.87672 9.93215C1.66172 10.9004 0.21582 13.079 0.21582 15.4693V29.6905C0.21582 46.4837 12.0291 62.1875 27.9033 66C43.7774 62.1875 55.5907 46.4837 55.5907 29.6905V15.4693C55.5907 13.079 54.1448 10.9004 51.9298 9.93215L30.3952 0.521948C28.8262 -0.173983 26.9804 -0.173983 25.4114 0.521948ZM27.9033 32.6861H49.438C47.8075 45.1523 39.3474 56.257 27.9033 59.7366V32.7163H6.36859V15.4693L27.9033 6.05914V32.6861Z" fill="url(#paint0_linear_820_34330)"/>
<defs>
<linearGradient id="paint0_linear_820_34330" x1="10.3823" y1="6.62977e-06" x2="57.532" y2="10.92" gradientUnits="userSpaceOnUse">
<stop stop-color="#018383"/>
<stop offset="1" stop-color="#014687"/>
</linearGradient>
</defs>
</svg>
