<svg width="506" height="572" viewBox="0 0 506 572" fill="none" xmlns="http://www.w3.org/2000/svg">
<path d="M252.998 457.286C361.365 457.286 449.215 452.276 449.215 446.096C449.215 439.916 361.365 434.906 252.998 434.906C144.63 434.906 56.7812 439.916 56.7812 446.096C56.7812 452.276 144.63 457.286 252.998 457.286Z" fill="#F5F5F5"/>
<path d="M408.54 157.961L407.863 166.625L408.873 166.7L409.549 158.036L408.54 157.961Z" fill="#018762"/>
<path d="M411.178 124.751L409.293 148.84L410.302 148.915L412.187 124.827L411.178 124.751Z" fill="#018762"/>
<path d="M411.56 87.5547H237.496L215.344 370.077H389.408L411.56 87.5547Z" fill="#018762"/>
<g opacity="0.7">
<path opacity="0.7" d="M405.014 80.6289H230.95L208.797 363.151H382.861L405.014 80.6289Z" fill="#018762"/>
<path opacity="0.9" d="M405.014 80.6289H230.95L208.797 363.151H382.861L405.014 80.6289Z" fill="white"/>
</g>
<path d="M278.087 113.336H244.357L245.015 104.914H278.745L278.087 113.336Z" fill="#018762"/>
<path d="M335.443 131.856H242.896L243.563 123.434H336.101L335.443 131.856Z" fill="white"/>
<path d="M364.331 113.336H288.208L288.866 104.914H364.999L364.331 113.336Z" fill="white"/>
<path d="M326.238 168.893H366.05L366.708 160.48H326.906L326.238 168.893Z" fill="white"/>
<path d="M349.716 141.953H242.11L241.452 150.375H349.058L349.716 141.953Z" fill="white"/>
<path d="M239.996 168.893H316.119L316.787 160.48H240.664L239.996 168.893Z" fill="#018762"/>
<path d="M272.283 187.418H238.553L239.211 178.996H272.94L272.283 187.418Z" fill="#018762"/>
<path d="M295.962 205.936H237.094L237.752 197.523H296.62L295.962 205.936Z" fill="white"/>
<path d="M349.764 205.936H306.076L306.734 197.523H350.422L349.764 205.936Z" fill="white"/>
<path d="M358.52 187.418H282.397L283.055 178.996H359.188L358.52 187.418Z" fill="white"/>
<path d="M320.428 242.981H360.24L360.898 234.559H321.096L320.428 242.981Z" fill="#018762"/>
<path d="M343.908 216.035H236.302L235.645 224.457H343.25L343.908 216.035Z" fill="white"/>
<path d="M234.187 242.981H310.309L310.977 234.559H234.844L234.187 242.981Z" fill="white"/>
<path opacity="0.4" d="M376.569 320.083H228.149L232.825 260.438H381.255L376.569 320.083Z" fill="white"/>
<path opacity="0.4" d="M375.585 332.598H227.165L225.87 349.076H374.3L375.585 332.598Z" fill="white"/>
<path d="M113.288 200.28L109.796 196.033C109.165 195.243 108.348 194.614 107.415 194.198C106.482 193.782 105.46 193.593 104.435 193.645L94.7446 194.072C92.8325 194.162 90.97 194.696 89.3119 195.631C87.6537 196.565 86.2478 197.872 85.2109 199.444L83.9014 201.423C89.1396 208.842 100.262 213.14 100.262 213.14L103.3 214.709C103.917 215.05 104.598 215.268 105.301 215.35C106.005 215.433 106.719 215.378 107.401 215.189C108.083 215 108.72 214.681 109.275 214.25C109.83 213.82 110.292 213.286 110.634 212.679L113.899 206.812C114.453 205.782 114.689 204.617 114.581 203.458C114.473 202.299 114.024 201.195 113.288 200.28Z" fill="#CE7A63"/>
<path d="M99.9332 131.253L98.3268 133.471L96.5807 135.927C95.4457 137.632 94.2759 139.338 93.0885 141.043C90.8361 144.454 88.7408 147.968 86.7328 151.481C84.7247 154.995 82.8914 158.61 81.2151 162.226C79.5389 165.842 78.1245 169.509 76.815 173.193L77.1642 170.771C76.9023 170.771 76.815 172.203 77.6706 174.182C78.777 176.463 80.1543 178.61 81.7739 180.578C83.647 182.935 85.6584 185.184 87.7979 187.314C89.9456 189.532 92.4075 191.8 94.5552 193.898L94.9918 194.307C96.0534 195.33 96.7278 196.675 96.9047 198.122C97.0815 199.568 96.7502 201.031 95.965 202.269C95.1799 203.508 93.9874 204.449 92.583 204.939C91.1785 205.429 89.6453 205.439 88.2344 204.967C84.6256 203.774 81.1219 202.296 77.7578 200.549C74.3399 198.792 71.0806 196.755 68.0147 194.461C64.5874 191.896 61.5381 188.883 58.9525 185.507C57.4398 183.449 56.1853 181.222 55.2158 178.872C54.0613 176.039 53.4687 173.018 53.4697 169.969C53.4741 169.43 53.5326 168.893 53.6443 168.366L53.8364 167.547C54.8597 162.728 56.213 157.982 57.8873 153.34C58.6905 151.038 59.6334 148.803 60.5414 146.518C61.4494 144.233 62.5145 142.084 63.597 139.935C65.6942 135.621 68.0257 131.419 70.5814 127.348C71.891 125.335 73.1831 123.306 74.6149 121.344C75.3308 120.372 76.0467 119.383 76.7975 118.411C77.5483 117.439 78.2817 116.535 79.277 115.324C81.3609 112.61 84.4632 110.815 87.9015 110.336C91.3398 109.856 94.8323 110.73 97.6109 112.765C100.389 114.801 102.226 117.831 102.718 121.19C103.209 124.548 102.314 127.96 100.23 130.674L99.9332 131.253Z" fill="#CE7A63"/>
<path d="M103.463 100.762C108.369 111.677 109.295 128.596 94.1388 149.438C84.1162 150.495 64.333 134.497 64.333 134.497C64.333 134.497 77.1318 99.6191 103.463 100.762Z" fill="#018762"/>
<path d="M75.0152 136.92C75.7199 136.949 76.4223 136.823 77.0704 136.551C77.7186 136.279 78.296 135.868 78.7601 135.35C79.2243 134.831 79.5633 134.217 79.7523 133.553C79.9412 132.889 79.9752 132.192 79.8518 131.514C79.5927 130.055 78.8221 128.73 77.672 127.765C76.5219 126.8 75.0641 126.256 73.5484 126.227C72.8297 126.221 72.1186 126.37 71.4663 126.665C70.8141 126.96 70.2371 127.393 69.7769 127.932C69.3257 128.449 68.9951 129.055 68.8082 129.709C68.6212 130.363 68.5824 131.049 68.6943 131.719C68.9751 133.163 69.757 134.469 70.9083 135.417C72.0596 136.364 73.5099 136.895 75.0152 136.92ZM70.4229 128.393C70.8163 127.961 71.3013 127.619 71.8441 127.389C72.3869 127.159 72.9745 127.048 73.5659 127.062C74.8838 127.084 76.1529 127.553 77.1539 128.391C78.1549 129.229 78.8251 130.382 79.0486 131.65C79.1427 132.207 79.1135 132.776 78.9629 133.321C78.8123 133.865 78.5438 134.371 78.1756 134.806C77.78 135.235 77.2946 135.575 76.7523 135.805C76.21 136.034 75.6235 136.147 75.0326 136.136C73.7175 136.105 72.4537 135.632 71.4547 134.796C70.4557 133.96 69.7828 132.813 69.5499 131.548C69.4484 130.989 69.474 130.415 69.6249 129.867C69.7758 129.319 70.0482 128.81 70.4229 128.376V128.393Z" fill="white"/>
<path d="M87.9598 110.216C87.2483 110.202 86.5422 110.339 85.8907 110.619C85.2393 110.899 84.6583 111.314 84.1882 111.836C83.735 112.351 83.4031 112.957 83.2161 113.612C83.029 114.266 82.9913 114.952 83.1057 115.622C83.3679 117.08 84.1395 118.404 85.2889 119.368C86.4383 120.332 87.8944 120.877 89.4091 120.91C90.1185 120.921 90.8224 120.785 91.473 120.508C92.1237 120.231 92.706 119.822 93.1806 119.306C93.6271 118.784 93.9533 118.174 94.1371 117.518C94.3209 116.862 94.358 116.175 94.2457 115.503C93.9872 114.047 93.2191 112.724 92.0726 111.759C90.9261 110.795 89.4724 110.249 87.9598 110.216ZM92.5695 118.744C92.1769 119.176 91.692 119.519 91.149 119.749C90.606 119.979 90.0181 120.09 89.4265 120.074C88.1105 120.046 86.8449 119.574 85.8453 118.738C84.8456 117.901 84.1736 116.752 83.9438 115.486C83.8488 114.931 83.8793 114.363 84.0331 113.821C84.1869 113.278 84.4604 112.776 84.8343 112.348C85.2246 111.912 85.709 111.567 86.2526 111.337C86.7961 111.107 87.3852 110.998 87.9773 111.017C89.2952 111.039 90.5642 111.508 91.5653 112.346C92.5663 113.184 93.2364 114.337 93.46 115.605C93.5526 116.16 93.521 116.728 93.3672 117.27C93.2135 117.812 92.9413 118.314 92.5695 118.744Z" fill="white"/>
<path d="M88.6693 147.526C88.5752 146.97 88.6045 146.4 88.7551 145.856C88.9057 145.312 89.1742 144.805 89.5424 144.371C89.9402 143.945 90.426 143.606 90.9679 143.376C91.5097 143.147 92.0952 143.033 92.6857 143.041C93.527 143.059 94.3535 143.26 95.1056 143.628C95.8576 143.997 96.5163 144.525 97.0339 145.173C97.191 144.917 97.3133 144.678 97.4704 144.439C96.8755 143.765 96.142 143.221 95.3177 142.842C94.4934 142.463 93.5966 142.257 92.6857 142.239C91.9762 142.227 91.2723 142.364 90.6215 142.641C89.9708 142.917 89.3885 143.327 88.9138 143.842C88.4672 144.364 88.141 144.974 87.9572 145.631C87.7734 146.287 87.7363 146.974 87.8486 147.646C87.9057 147.962 87.9815 148.275 88.0756 148.584L89.1059 148.874C88.8902 148.449 88.743 147.995 88.6693 147.526Z" fill="white"/>
<path d="M103.847 104.854C104.228 104.849 104.608 104.809 104.982 104.735L104.72 103.95C104.43 103.976 104.138 103.976 103.847 103.95C102.806 103.926 101.792 103.626 100.912 103.082C100.033 102.538 99.3208 101.771 98.8528 100.863L98.0146 100.983C98.5108 102.102 99.3226 103.06 100.355 103.746C101.388 104.431 102.599 104.816 103.847 104.854Z" fill="white"/>
<path d="M103.051 131.492C102.955 130.934 102.986 130.363 103.14 129.818C103.294 129.273 103.567 128.768 103.942 128.337C104.261 127.977 104.653 127.687 105.094 127.484C105.182 127.143 105.252 126.836 105.322 126.512C104.543 126.756 103.848 127.205 103.313 127.808C102.86 128.327 102.529 128.936 102.342 129.593C102.155 130.25 102.116 130.939 102.23 131.611C102.343 132.353 102.604 133.066 102.998 133.709C103.138 133.351 103.26 133.01 103.4 132.669C103.231 132.293 103.114 131.897 103.051 131.492Z" fill="white"/>
<path d="M108.261 61.4609C112.574 72.5469 114.18 94.5654 108.261 100.688C108.261 100.688 121.583 98.2494 143.357 111.399C149.661 102.564 144.981 100.688 144.981 100.688C132.758 97.8742 133.352 87.9479 134.836 79.7443L108.261 61.4609Z" fill="#CE7A63"/>
<path d="M149.519 45.4052C149.746 46.8549 150.672 47.9635 151.633 47.8953C152.594 47.8271 153.17 46.5991 152.96 45.1664C152.751 43.7338 151.808 42.5911 150.864 42.6764C149.921 42.7616 149.24 43.9555 149.519 45.4052Z" fill="#263238"/>
<path d="M150.447 42.7756L153.783 41.5312C153.783 41.5312 152.403 44.3609 150.447 42.7756Z" fill="#263238"/>
<path d="M149.855 48.1367C151.635 51.3483 153.83 54.3232 156.386 56.9885C154.64 58.8987 151.357 58.3188 151.357 58.3188L149.855 48.1367Z" fill="#BA4D3C"/>
<path d="M152 33.9032C152.042 33.8061 152.064 33.7017 152.064 33.5962C152.064 33.4907 152.042 33.3863 152 33.2892C151.968 33.1839 151.915 33.0858 151.844 33.0005C151.773 32.9152 151.686 32.8443 151.587 32.7921C151.488 32.7398 151.38 32.7071 151.268 32.6958C151.156 32.6845 151.043 32.6949 150.935 32.7264C149.564 33.0251 148.283 33.6303 147.192 34.4945C146.101 35.3586 145.231 36.4581 144.648 37.7066C144.608 37.8081 144.59 37.9169 144.596 38.0257C144.602 38.1345 144.631 38.2408 144.682 38.3376C144.734 38.4345 144.805 38.5195 144.893 38.5871C144.98 38.6548 145.082 38.7034 145.19 38.7299C145.412 38.7936 145.651 38.7748 145.861 38.6773C146.07 38.5798 146.235 38.4102 146.325 38.2012C146.801 37.2178 147.503 36.3544 148.375 35.6773C149.246 35.0001 150.266 34.5274 151.354 34.2955C151.485 34.2807 151.61 34.2379 151.722 34.1701C151.834 34.1023 151.929 34.0111 152 33.9032Z" fill="#263238"/>
<path d="M100.942 43.585C104.224 60.6404 105.255 67.923 115.225 76.1096C130.224 88.4236 150.828 81.9085 152.801 64.512C154.547 48.8381 148.907 23.5791 130.905 17.9167C127.077 16.5754 122.952 16.2592 118.957 17.0006C114.962 17.7421 111.243 19.5142 108.186 22.1333C105.128 24.7523 102.844 28.1227 101.571 31.8948C100.297 35.667 100.08 39.7033 100.942 43.585Z" fill="#CE7A63"/>
<path d="M90.6384 14.3265C78.4157 14.7017 72.706 27.1351 80.9476 32.6952C80.4936 27.8514 85.4874 28.5337 85.4874 28.5337C85.4874 28.5337 88.124 42.3826 75.4648 39.432C75.9381 41.5227 77.0989 43.4047 78.7699 44.7905C80.4409 46.1763 82.5303 46.9899 84.7191 47.107C84.7191 47.107 78.6602 53.264 85.4874 65.1174C90.2368 73.3552 87.67 82.9233 82.746 79.8874C87.5478 86.1467 97.2211 84.2024 98.2164 79.3246C104.275 89.7454 119.17 93.1394 124.286 89.319C120.497 87.7499 118.104 83.5202 120.06 81.5077C122.016 79.4951 139.721 85.004 144.68 91.8262C145.169 88.6027 147.491 78.9494 143.231 75.3507C156.798 81.2177 160.29 73.6451 160.692 70.6093C157.199 74.8902 141.083 66.3625 141.677 57.272C136.822 55.8905 138.027 50.7739 139.931 48.1303C145.885 42.3826 146.915 33.7867 142.445 31.3819C153.777 31.0408 163.276 23.5194 157.391 14.3265C155.453 20.9611 148.399 19.6819 144.68 15.9297C148.399 10.3867 145.902 1.89316 136.63 4.36619C127.359 6.83922 113.931 8.66413 113.582 0C113.582 0 104.205 2.13193 105.882 9.4828C92.9956 5.74767 87.3557 10.7278 90.6384 14.3265Z" fill="#263238"/>
<path d="M132.726 51.6476C133.34 53.1968 134.278 54.6038 135.481 55.7785C136.683 56.9532 138.124 57.8698 139.71 58.4697C143.708 59.783 145.769 55.3486 144.721 50.7266C143.796 46.5651 140.583 40.8686 136.549 41.5849C132.516 42.3012 130.962 47.5202 132.726 51.6476Z" fill="#CE7A63"/>
<path d="M59.5442 570.995C47.9327 570.995 43.1135 565.708 36.1815 562.365C30.2797 559.5 27.4511 559.927 22.7192 557.675C18.7206 555.816 20.6064 552.098 23.8716 548.312C25.5129 546.402 25.9494 544.457 27.9225 540.961L47.9676 546.385C49.2597 552.2 51.582 560.336 63.3507 564.446C70.4049 566.902 65.0269 570.995 59.5442 570.995Z" fill="#263238"/>
<path d="M189.557 571.054C176.06 571.054 173.475 570.184 165.897 569.928C159.402 569.706 158.319 571.054 151.736 571.054C147.371 571.054 146.778 566.244 148.367 562.645C149.606 559.848 149.798 556.488 150.706 552.855H169.302C172.672 558.603 181.804 562.867 192.001 563.583C199.352 564.112 194.952 571.054 189.557 571.054Z" fill="#263238"/>
<path d="M173.79 211.914C173.79 211.914 176.479 306.708 170.734 366.913C171.084 423.418 169.303 552.817 169.303 552.817C168.866 555.699 153.343 554.523 150.707 552.817C150.707 552.817 121.652 458.552 134.555 366.913C102.253 271.301 109.22 211.914 109.22 211.914H173.79Z" fill="#018762"/>
<path opacity="0.2" d="M165.094 550.103C164.864 550.098 164.644 550.007 164.482 549.848C164.319 549.689 164.225 549.475 164.221 549.25C164.221 548.022 162.719 425.53 162.352 368.804C162.336 367.511 162.389 366.219 162.51 364.932C167.958 305.409 165.426 212.866 165.391 211.928C165.389 211.816 165.409 211.705 165.451 211.601C165.492 211.496 165.555 211.401 165.634 211.32C165.714 211.24 165.809 211.175 165.914 211.13C166.019 211.085 166.132 211.061 166.247 211.059C166.474 211.066 166.691 211.156 166.855 211.31C167.02 211.464 167.12 211.672 167.137 211.894C167.137 212.815 169.704 305.46 164.256 365.086C164.135 366.321 164.082 367.563 164.099 368.804C164.465 425.53 165.95 548.005 165.967 549.233C165.972 549.345 165.953 549.458 165.912 549.563C165.871 549.668 165.809 549.765 165.729 549.846C165.649 549.927 165.553 549.992 165.447 550.036C165.341 550.08 165.227 550.103 165.111 550.103H165.094Z" fill="white"/>
<path d="M110.111 371.45C122.892 318.902 154.427 211.914 154.427 211.914H99.7043C99.7043 211.914 63.3856 243.177 70.7191 373.94C69.7413 385.845 105.431 389.921 110.111 371.45Z" fill="#018762"/>
<path d="M109.446 373.434C107.868 374.082 106.354 374.87 104.923 375.788C104.874 374.819 104.548 373.883 103.984 373.084C103.419 372.286 102.638 371.657 101.728 371.268C98.6376 370.381 94.8485 373.946 93.2771 379.216C93.1548 379.574 93.1025 379.915 93.0152 380.273C87.1658 375.464 73.8082 373.332 69.7398 375.617C66.5444 384.52 48.0533 419.961 64.5015 429.018C80.6179 437.784 95.0057 427.841 100.087 414.845C105.168 401.848 113.549 379.506 109.446 373.434Z" fill="#018762"/>
<path opacity="0.5" d="M109.446 373.434C107.868 374.082 106.354 374.87 104.923 375.788C104.874 374.819 104.548 373.883 103.984 373.084C103.419 372.286 102.638 371.657 101.728 371.268C98.6376 370.381 94.8485 373.946 93.2771 379.216C93.1548 379.574 93.1025 379.915 93.0152 380.273C87.1658 375.464 73.8082 373.332 69.7398 375.617C66.5444 384.52 48.0533 419.961 64.5015 429.018C80.6179 437.784 95.0057 427.841 100.087 414.845C105.168 401.848 113.549 379.506 109.446 373.434Z" fill="white"/>
<path d="M64.5925 426.15L33.5645 538.17L42.2949 540.967L78.1771 430.755C78.1771 430.755 74.3531 424.325 64.5925 426.15Z" fill="#263238"/>
<path d="M51.6124 539.427C50.9695 541.875 50.5142 544.367 50.2504 546.881C50.2352 547.088 50.1775 547.29 50.0808 547.475C49.9841 547.66 49.8504 547.824 49.6876 547.958C49.5248 548.091 49.3361 548.192 49.1329 548.253C48.9296 548.314 48.7159 548.334 48.5044 548.313C40.8216 547.478 30.6418 542.941 27.429 541.491C27.131 541.35 26.8861 541.121 26.7294 540.836C26.5726 540.551 26.5119 540.226 26.556 539.905L27.3767 532.827C27.4001 532.599 27.4749 532.379 27.5959 532.182C27.7169 531.985 27.881 531.818 28.0763 531.69C28.2717 531.563 28.4934 531.48 28.7257 531.446C28.958 531.413 29.1949 531.43 29.4196 531.497L50.5473 537.62C50.9208 537.741 51.2355 537.992 51.4319 538.326C51.6282 538.659 51.6925 539.051 51.6124 539.427Z" fill="#018762"/>
<path d="M171.43 544.879C171.43 546.841 171.605 550.337 171.797 552.912C171.802 553.321 171.657 553.718 171.388 554.031C171.119 554.344 170.743 554.553 170.33 554.618C163.493 555.166 156.619 555.092 149.796 554.396C149.469 554.368 149.161 554.236 148.918 554.021C148.675 553.805 148.511 553.518 148.452 553.202L147.072 546.159C147.041 545.929 147.057 545.696 147.121 545.473C147.185 545.25 147.294 545.042 147.443 544.861C147.591 544.681 147.776 544.532 147.986 544.424C148.195 544.316 148.425 544.25 148.661 544.231L169.841 543.413C170.046 543.401 170.25 543.43 170.443 543.499C170.635 543.567 170.811 543.673 170.96 543.811C171.109 543.948 171.227 544.114 171.308 544.298C171.389 544.481 171.431 544.679 171.43 544.879Z" fill="#018762"/>
<path d="M177.979 126.719C178.392 137.754 178.229 148.804 177.49 159.823C176.914 174.201 175.919 188.34 173.789 211.91H99.7021C101.186 191.529 98.7592 168.3 85.454 122.438C84.6713 120.038 84.4477 117.497 84.7995 115.002C85.1512 112.507 86.0695 110.12 87.4871 108.016C88.9047 105.912 90.7858 104.144 92.9929 102.841C95.2 101.539 97.6772 100.735 100.243 100.487C103.177 100.198 106.285 99.9587 109.48 99.8052C120.676 99.0285 131.914 99.0285 143.11 99.8052C146.777 100.129 150.566 100.59 154.18 101.084C160.569 102.011 166.432 105.072 170.772 109.745C175.111 114.419 177.658 120.417 177.979 126.719Z" fill="#018762"/>
<path d="M87.9516 111.026C89.2697 111.047 90.5388 111.517 91.5399 112.354C92.541 113.192 93.2112 114.345 93.4348 115.614C93.5298 116.167 93.501 116.734 93.3503 117.276C93.1996 117.818 92.9305 118.321 92.5617 118.752C92.1691 119.184 91.6842 119.528 91.1411 119.757C90.5981 119.987 90.0101 120.098 89.4185 120.082C88.4905 120.062 87.5817 119.82 86.7719 119.376C85.9621 118.933 85.2759 118.303 84.7734 117.541C84.7734 117.984 84.7734 118.428 84.7734 118.888C85.3621 119.507 86.0719 120.004 86.8608 120.349C87.6497 120.695 88.5016 120.882 89.3661 120.901C90.0756 120.913 90.7795 120.776 91.4302 120.499C92.081 120.223 92.6633 119.813 93.138 119.298C93.5845 118.775 93.9108 118.165 94.0946 117.509C94.2784 116.853 94.3154 116.166 94.2032 115.494C93.9441 114.035 93.1733 112.71 92.0231 111.745C90.873 110.78 89.415 110.237 87.8992 110.207C87.3021 110.214 86.7109 110.323 86.153 110.531C85.9958 110.889 85.8561 111.247 85.7164 111.623C86.3921 111.229 87.1649 111.023 87.9516 111.026Z" fill="white"/>
<path d="M94.1556 152.939C94.8744 152.945 95.5856 152.796 96.2379 152.501C96.8902 152.206 97.4673 151.773 97.9275 151.234C98.3798 150.718 98.711 150.112 98.8981 149.458C99.0851 148.803 99.1233 148.117 99.0102 147.447C98.7479 145.99 97.9763 144.666 96.8268 143.702C95.6773 142.738 94.221 142.193 92.7062 142.16C92.112 142.166 91.5226 142.263 90.96 142.45C90.96 142.723 91.0997 142.979 91.152 143.235C91.6422 143.072 92.154 142.98 92.6713 142.962C93.989 142.993 95.2549 143.469 96.2544 144.308C97.2538 145.148 97.9252 146.299 98.1545 147.567C98.2496 148.122 98.2191 148.69 98.0652 149.232C97.9114 149.774 97.6379 150.277 97.2639 150.705C96.8736 151.14 96.3892 151.485 95.8456 151.715C95.3019 151.946 94.7128 152.055 94.1207 152.035C93.8415 152.052 93.5616 152.052 93.2825 152.035C93.2825 152.308 93.4047 152.581 93.4746 152.854C93.6896 152.872 93.9057 152.872 94.1207 152.854L94.1556 152.939Z" fill="white"/>
<path d="M102.919 179.681C103.022 180.227 103 180.788 102.855 181.325C102.71 181.862 102.445 182.361 102.08 182.786C101.715 183.211 101.258 183.553 100.741 183.785C100.225 184.018 99.6631 184.137 99.0947 184.132C99.0947 184.405 99.0947 184.661 99.182 184.934C99.8444 184.917 100.496 184.768 101.097 184.495C101.698 184.222 102.235 183.832 102.675 183.348C103.124 182.831 103.452 182.224 103.636 181.57C103.82 180.916 103.855 180.23 103.74 179.562C103.492 178.159 102.769 176.878 101.685 175.925C100.602 174.972 99.2222 174.403 97.7676 174.309C97.7676 174.581 97.7676 174.854 97.8898 175.127C99.1209 175.249 100.278 175.76 101.185 176.581C102.093 177.403 102.701 178.491 102.919 179.681Z" fill="white"/>
<path d="M108.49 211.619C108.227 210.162 107.456 208.838 106.306 207.874C105.157 206.91 103.701 206.365 102.186 206.332C101.432 206.325 100.686 206.482 100.003 206.793C100.003 207.1 100.003 207.424 100.003 207.748C100.668 207.343 101.437 207.13 102.221 207.134C103.536 207.165 104.8 207.638 105.799 208.474C106.798 209.31 107.471 210.457 107.704 211.722V211.909H108.542C108.49 211.807 108.507 211.722 108.49 211.619Z" fill="white"/>
<path d="M103.847 104.851C104.565 104.854 105.275 104.702 105.927 104.408C106.578 104.113 107.156 103.682 107.618 103.145C108.43 102.194 108.826 100.968 108.719 99.7344H107.88C107.974 100.745 107.654 101.751 106.99 102.531C106.594 102.96 106.109 103.301 105.566 103.531C105.024 103.76 104.438 103.873 103.847 103.862C102.766 103.837 101.714 103.512 100.815 102.927C99.9152 102.341 99.2044 101.518 98.765 100.553L97.9268 100.724C98.3911 101.902 99.1997 102.922 100.252 103.655C101.304 104.389 102.554 104.805 103.847 104.851Z" fill="white"/>
<path d="M107.085 126.21C106.379 126.182 105.677 126.309 105.028 126.581C104.379 126.852 103.801 127.263 103.335 127.781C102.87 128.299 102.529 128.913 102.338 129.577C102.147 130.24 102.11 130.937 102.23 131.617C102.493 133.074 103.264 134.398 104.414 135.362C105.563 136.326 107.019 136.871 108.534 136.904C109.253 136.91 109.964 136.76 110.616 136.465C111.268 136.171 111.845 135.738 112.305 135.198C112.757 134.682 113.087 134.076 113.274 133.422C113.461 132.768 113.5 132.082 113.388 131.412C113.126 129.955 112.354 128.631 111.205 127.667C110.055 126.703 108.599 126.158 107.085 126.125V126.21ZM112.567 131.6C112.664 132.157 112.634 132.729 112.48 133.274C112.326 133.819 112.052 134.325 111.677 134.755C111.283 135.187 110.798 135.529 110.256 135.759C109.713 135.989 109.125 136.1 108.534 136.085C107.217 136.061 105.95 135.59 104.949 134.753C103.949 133.916 103.278 132.765 103.051 131.497C102.956 130.94 102.986 130.369 103.14 129.824C103.294 129.279 103.567 128.773 103.942 128.342C104.335 127.911 104.82 127.568 105.363 127.338C105.906 127.108 106.493 126.997 107.085 127.012C108.402 127.036 109.669 127.507 110.669 128.344C111.67 129.181 112.341 130.332 112.567 131.6Z" fill="white"/>
<path d="M113.288 168.954C113.999 168.965 114.704 168.826 115.355 168.547C116.005 168.267 116.587 167.853 117.059 167.334C117.513 166.816 117.844 166.207 118.028 165.549C118.212 164.892 118.245 164.202 118.124 163.531C117.865 162.072 117.095 160.747 115.944 159.782C114.794 158.817 113.337 158.273 111.821 158.244C111.111 158.226 110.405 158.36 109.753 158.637C109.102 158.914 108.52 159.327 108.049 159.847C107.596 160.365 107.265 160.975 107.081 161.632C106.897 162.29 106.864 162.979 106.984 163.65C107.243 165.109 108.014 166.435 109.164 167.399C110.314 168.364 111.772 168.908 113.288 168.937V168.954ZM107.805 163.548C107.701 162.992 107.726 162.42 107.877 161.874C108.028 161.328 108.302 160.822 108.678 160.393C109.071 159.961 109.556 159.618 110.099 159.389C110.642 159.159 111.23 159.048 111.821 159.062C113.138 159.087 114.405 159.558 115.406 160.395C116.406 161.232 117.077 162.383 117.304 163.65C117.407 164.207 117.383 164.778 117.232 165.324C117.081 165.87 116.807 166.376 116.431 166.805C116.037 167.236 115.551 167.578 115.009 167.808C114.466 168.038 113.879 168.149 113.288 168.136C111.971 168.111 110.703 167.64 109.703 166.803C108.703 165.966 108.032 164.815 107.805 163.548Z" fill="white"/>
<path d="M118.024 200.981C118.729 201.009 119.432 200.883 120.081 200.611C120.73 200.339 121.308 199.929 121.773 199.41C122.239 198.892 122.58 198.279 122.771 197.615C122.962 196.951 122.999 196.254 122.878 195.575C122.612 194.12 121.839 192.801 120.69 191.84C119.541 190.879 118.087 190.337 116.575 190.305C115.87 190.277 115.167 190.403 114.518 190.675C113.869 190.947 113.291 191.357 112.826 191.875C112.36 192.394 112.019 193.007 111.828 193.671C111.637 194.335 111.6 195.032 111.721 195.711C111.983 197.167 112.756 198.488 113.905 199.45C115.055 200.411 116.511 200.952 118.024 200.981ZM113.432 192.454C113.825 192.022 114.31 191.679 114.853 191.45C115.396 191.22 115.983 191.108 116.575 191.123C117.891 191.151 119.156 191.623 120.156 192.46C121.156 193.296 121.828 194.445 122.058 195.711C122.154 196.269 122.124 196.84 121.97 197.385C121.817 197.93 121.542 198.436 121.167 198.866C120.774 199.298 120.289 199.641 119.746 199.87C119.203 200.1 118.615 200.211 118.024 200.197C116.707 200.172 115.44 199.701 114.439 198.864C113.439 198.027 112.768 196.876 112.541 195.609C112.442 195.049 112.471 194.474 112.625 193.926C112.778 193.377 113.054 192.869 113.432 192.436V192.454Z" fill="white"/>
<path d="M121.473 110.219C120.768 110.191 120.065 110.317 119.416 110.589C118.768 110.861 118.189 111.271 117.724 111.789C117.259 112.308 116.918 112.921 116.727 113.585C116.535 114.249 116.499 114.946 116.619 115.625C116.885 117.08 117.658 118.399 118.807 119.36C119.956 120.321 121.41 120.863 122.923 120.895C123.628 120.923 124.331 120.797 124.979 120.525C125.628 120.253 126.206 119.843 126.672 119.325C127.137 118.806 127.478 118.193 127.669 117.529C127.86 116.865 127.897 116.168 127.777 115.489C127.514 114.033 126.742 112.711 125.592 111.75C124.442 110.789 122.986 110.248 121.473 110.219ZM126.083 118.746C125.685 119.177 125.197 119.52 124.652 119.749C124.106 119.979 123.516 120.09 122.923 120.077C121.606 120.049 120.341 119.577 119.341 118.74C118.342 117.904 117.67 116.755 117.44 115.489C117.343 114.931 117.373 114.36 117.527 113.815C117.681 113.27 117.955 112.764 118.33 112.334C118.724 111.902 119.209 111.559 119.751 111.33C120.294 111.1 120.882 110.988 121.473 111.003C122.79 111.028 124.058 111.499 125.058 112.336C126.058 113.173 126.729 114.324 126.956 115.591C127.051 116.147 127.023 116.717 126.872 117.262C126.721 117.806 126.452 118.313 126.083 118.746Z" fill="white"/>
<path d="M127.676 152.854C128.386 152.871 129.092 152.737 129.743 152.46C130.395 152.183 130.977 151.77 131.448 151.25C131.9 150.731 132.231 150.122 132.418 149.465C132.605 148.809 132.643 148.12 132.53 147.447C132.267 145.991 131.495 144.67 130.345 143.709C129.196 142.747 127.74 142.206 126.227 142.177C125.517 142.162 124.812 142.297 124.161 142.574C123.509 142.851 122.928 143.262 122.455 143.78C122.005 144.3 121.676 144.91 121.492 145.567C121.308 146.224 121.273 146.912 121.39 147.584C121.652 149.036 122.422 150.356 123.568 151.317C124.714 152.278 126.166 152.821 127.676 152.854ZM123.049 144.326C123.444 143.897 123.93 143.556 124.472 143.327C125.014 143.097 125.601 142.984 126.192 142.996C127.507 143.026 128.771 143.5 129.77 144.336C130.769 145.172 131.442 146.319 131.675 147.584C131.771 148.141 131.741 148.712 131.587 149.258C131.434 149.803 131.159 150.308 130.784 150.739C130.391 151.17 129.906 151.513 129.363 151.743C128.82 151.972 128.232 152.084 127.641 152.069C126.324 152.045 125.057 151.574 124.056 150.737C123.056 149.9 122.385 148.749 122.158 147.481C122.065 146.924 122.097 146.353 122.251 145.808C122.404 145.264 122.677 144.758 123.049 144.326Z" fill="white"/>
<path d="M132.41 184.949C133.115 184.977 133.818 184.85 134.467 184.579C135.115 184.307 135.694 183.897 136.159 183.378C136.624 182.86 136.965 182.246 137.156 181.583C137.348 180.919 137.384 180.222 137.264 179.542C137.002 178.085 136.23 176.761 135.081 175.797C133.931 174.833 132.475 174.288 130.961 174.255C130.249 174.239 129.542 174.375 128.89 174.655C128.238 174.935 127.658 175.352 127.189 175.876C126.738 176.392 126.407 176.998 126.22 177.652C126.033 178.306 125.994 178.992 126.106 179.662C126.369 181.119 127.14 182.443 128.29 183.407C129.439 184.371 130.895 184.916 132.41 184.949ZM127.818 176.421C128.211 175.99 128.696 175.647 129.239 175.417C129.782 175.188 130.369 175.076 130.961 175.091C132.278 175.115 133.545 175.586 134.545 176.423C135.545 177.261 136.217 178.411 136.443 179.679C136.537 180.235 136.508 180.805 136.358 181.349C136.207 181.893 135.938 182.4 135.57 182.834C135.173 183.265 134.685 183.607 134.139 183.837C133.594 184.067 133.004 184.178 132.41 184.164C131.094 184.137 129.828 183.665 128.829 182.828C127.829 181.992 127.157 180.843 126.927 179.577C126.828 179.016 126.856 178.442 127.01 177.893C127.164 177.345 127.44 176.837 127.818 176.404V176.421Z" fill="white"/>
<path d="M142.006 211.593C141.744 210.135 140.972 208.812 139.823 207.847C138.674 206.883 137.218 206.338 135.703 206.306C134.992 206.292 134.286 206.43 133.635 206.71C132.983 206.99 132.402 207.405 131.931 207.926C131.482 208.443 131.154 209.05 130.97 209.704C130.786 210.358 130.751 211.043 130.866 211.712C130.858 211.78 130.858 211.849 130.866 211.917H131.774C131.774 211.814 131.774 211.712 131.774 211.61C131.679 211.053 131.708 210.484 131.858 209.939C132.009 209.395 132.278 208.888 132.647 208.455C133.043 208.026 133.528 207.685 134.07 207.455C134.613 207.226 135.199 207.113 135.79 207.124C137.106 207.152 138.372 207.624 139.371 208.461C140.371 209.297 141.043 210.446 141.273 211.712V211.917H142.094C142.074 211.807 142.044 211.698 142.006 211.593Z" fill="white"/>
<path d="M131.017 99.5366C131.28 100.994 132.051 102.318 133.201 103.282C134.35 104.246 135.806 104.791 137.321 104.824C138.031 104.839 138.736 104.704 139.387 104.427C140.038 104.15 140.62 103.738 141.092 103.221C141.898 102.267 142.287 101.041 142.175 99.8095H141.354C141.423 100.343 141.38 100.884 141.227 101.4C141.074 101.917 140.814 102.397 140.464 102.811C140.068 103.24 139.583 103.581 139.041 103.811C138.498 104.04 137.912 104.153 137.321 104.142C136.006 104.111 134.742 103.637 133.743 102.801C132.744 101.966 132.071 100.818 131.838 99.5537V99.3661H131C131.017 99.332 131 99.4343 131.017 99.5366Z" fill="white"/>
<path d="M140.595 126.173C139.884 126.16 139.178 126.298 138.527 126.577C137.875 126.857 137.294 127.272 136.824 127.793C136.378 128.313 136.053 128.92 135.869 129.573C135.685 130.226 135.648 130.91 135.758 131.579C136.017 133.038 136.788 134.364 137.938 135.328C139.088 136.293 140.546 136.837 142.062 136.866C142.772 136.882 143.477 136.746 144.128 136.47C144.779 136.193 145.361 135.781 145.833 135.263C146.286 134.744 146.617 134.135 146.804 133.478C146.991 132.821 147.029 132.133 146.916 131.46C146.654 130.002 145.882 128.679 144.733 127.715C143.583 126.751 142.127 126.206 140.613 126.173H140.595ZM146.095 131.579C146.191 132.137 146.16 132.708 146.006 133.253C145.853 133.798 145.579 134.303 145.205 134.735C144.811 135.166 144.326 135.509 143.784 135.739C143.241 135.968 142.653 136.08 142.062 136.065C140.745 136.041 139.478 135.569 138.477 134.732C137.477 133.895 136.806 132.744 136.579 131.477C136.484 130.921 136.512 130.351 136.663 129.806C136.814 129.262 137.083 128.755 137.452 128.322C137.848 127.893 138.333 127.552 138.875 127.322C139.418 127.093 140.004 126.98 140.595 126.991C141.914 127.015 143.184 127.486 144.187 128.322C145.19 129.159 145.865 130.31 146.095 131.579Z" fill="white"/>
<path d="M145.343 158.224C144.632 158.207 143.925 158.344 143.273 158.624C142.621 158.904 142.04 159.321 141.572 159.844C141.12 160.36 140.788 160.966 140.601 161.62C140.414 162.274 140.376 162.961 140.489 163.631C140.752 165.088 141.523 166.412 142.673 167.376C143.822 168.34 145.278 168.885 146.793 168.918C147.502 168.93 148.206 168.793 148.857 168.516C149.507 168.24 150.09 167.83 150.564 167.315C151.011 166.792 151.337 166.182 151.521 165.526C151.705 164.87 151.742 164.183 151.629 163.511C151.371 162.055 150.603 160.732 149.456 159.768C148.31 158.803 146.856 158.258 145.343 158.224ZM149.953 166.752C149.555 167.178 149.07 167.517 148.528 167.746C147.986 167.976 147.401 168.09 146.81 168.082C145.493 168.05 144.227 167.575 143.227 166.735C142.228 165.896 141.557 164.745 141.327 163.477C141.232 162.922 141.263 162.354 141.417 161.812C141.571 161.269 141.844 160.767 142.218 160.339C142.608 159.904 143.093 159.558 143.636 159.328C144.18 159.098 144.769 158.989 145.361 159.009C146.679 159.03 147.948 159.5 148.949 160.337C149.95 161.175 150.62 162.328 150.844 163.596C150.941 164.159 150.911 164.736 150.757 165.287C150.604 165.837 150.329 166.349 149.953 166.786V166.752Z" fill="white"/>
<path d="M151.541 200.968C152.251 200.983 152.956 200.848 153.607 200.571C154.258 200.294 154.84 199.883 155.312 199.365C155.765 198.846 156.096 198.237 156.283 197.58C156.47 196.923 156.508 196.234 156.395 195.561C156.133 194.104 155.361 192.78 154.212 191.816C153.062 190.852 151.606 190.307 150.092 190.274C149.382 190.262 148.678 190.399 148.028 190.676C147.377 190.952 146.795 191.362 146.32 191.877C145.873 192.4 145.547 193.01 145.363 193.666C145.18 194.322 145.143 195.009 145.255 195.681C145.516 197.135 146.285 198.457 147.431 199.421C148.577 200.384 150.029 200.931 151.541 200.968ZM146.931 192.44C147.324 192.008 147.809 191.664 148.352 191.435C148.895 191.205 149.482 191.094 150.074 191.11C151.39 191.137 152.656 191.61 153.655 192.446C154.655 193.283 155.327 194.432 155.557 195.698C155.652 196.253 155.621 196.821 155.467 197.363C155.314 197.905 155.04 198.408 154.666 198.836C154.276 199.271 153.792 199.616 153.248 199.846C152.704 200.077 152.115 200.186 151.523 200.166C150.205 200.145 148.936 199.675 147.935 198.838C146.934 198 146.264 196.847 146.041 195.578C145.945 195.021 145.976 194.45 146.129 193.905C146.283 193.36 146.557 192.854 146.931 192.423V192.44Z" fill="white"/>
<path d="M150.145 115.556C150.407 117.014 151.179 118.337 152.328 119.301C153.477 120.265 154.934 120.81 156.448 120.843C157.16 120.86 157.867 120.723 158.519 120.443C159.171 120.163 159.751 119.747 160.22 119.223C160.673 118.708 161.005 118.102 161.192 117.447C161.379 116.793 161.417 116.107 161.302 115.437C161.04 113.979 160.269 112.656 159.119 111.692C157.97 110.727 156.514 110.183 154.999 110.15C154.289 110.134 153.584 110.27 152.933 110.547C152.282 110.823 151.7 111.235 151.227 111.753C150.775 112.272 150.444 112.881 150.257 113.538C150.07 114.195 150.031 114.883 150.145 115.556ZM154.999 110.968C156.315 110.996 157.581 111.468 158.58 112.305C159.58 113.141 160.252 114.29 160.482 115.556C160.577 116.111 160.546 116.679 160.392 117.222C160.239 117.764 159.965 118.266 159.591 118.694C159.201 119.13 158.716 119.475 158.173 119.705C157.629 119.935 157.04 120.044 156.448 120.025C155.13 120.004 153.861 119.534 152.86 118.696C151.859 117.858 151.189 116.706 150.966 115.437C150.871 114.88 150.901 114.311 151.051 113.767C151.202 113.222 151.47 112.716 151.839 112.282C152.237 111.853 152.726 111.513 153.271 111.286C153.817 111.06 154.406 110.951 154.999 110.968Z" fill="white"/>
<path d="M161.181 152.846C161.899 152.849 162.609 152.698 163.26 152.403C163.912 152.108 164.49 151.677 164.952 151.141C165.401 150.624 165.729 150.017 165.913 149.363C166.097 148.709 166.133 148.023 166.017 147.355C165.758 145.896 164.987 144.57 163.837 143.606C162.687 142.641 161.229 142.097 159.714 142.067C159.004 142.053 158.299 142.189 157.648 142.466C156.997 142.743 156.415 143.154 155.942 143.671C155.49 144.19 155.158 144.799 154.971 145.456C154.784 146.112 154.746 146.801 154.86 147.474C155.104 148.95 155.87 150.296 157.025 151.277C158.18 152.258 159.65 152.814 161.181 152.846ZM156.588 144.319C156.984 143.89 157.469 143.549 158.012 143.319C158.554 143.09 159.14 142.977 159.731 142.988C161.048 143.013 162.316 143.484 163.316 144.321C164.316 145.158 164.987 146.309 165.214 147.576C165.313 148.133 165.286 148.703 165.135 149.248C164.984 149.793 164.713 150.3 164.341 150.732C163.948 151.164 163.464 151.507 162.921 151.737C162.378 151.967 161.79 152.078 161.198 152.062C159.882 152.034 158.616 151.562 157.617 150.726C156.617 149.889 155.945 148.74 155.715 147.474C155.618 146.918 155.645 146.347 155.796 145.802C155.947 145.258 156.217 144.751 156.588 144.319Z" fill="white"/>
<path d="M165.935 184.928C166.647 184.945 167.354 184.808 168.006 184.528C168.658 184.248 169.238 183.831 169.707 183.308C170.158 182.791 170.489 182.185 170.676 181.531C170.862 180.877 170.901 180.191 170.789 179.521C170.527 178.064 169.756 176.74 168.606 175.776C167.457 174.812 166.001 174.267 164.486 174.234C163.781 174.206 163.078 174.333 162.429 174.605C161.78 174.877 161.202 175.287 160.737 175.805C160.271 176.323 159.931 176.937 159.739 177.601C159.548 178.264 159.511 178.961 159.632 179.641C159.894 181.098 160.666 182.422 161.815 183.386C162.964 184.35 164.421 184.895 165.935 184.928ZM161.326 176.4C161.723 175.969 162.211 175.627 162.757 175.397C163.302 175.168 163.892 175.056 164.486 175.07C165.802 175.098 167.068 175.57 168.067 176.406C169.067 177.243 169.739 178.392 169.969 179.658C170.065 180.215 170.035 180.787 169.882 181.332C169.728 181.877 169.454 182.383 169.078 182.813C168.685 183.245 168.2 183.587 167.657 183.817C167.114 184.047 166.527 184.158 165.935 184.143C164.617 184.122 163.348 183.652 162.347 182.815C161.346 181.977 160.676 180.824 160.453 179.556C160.353 178.994 160.38 178.418 160.531 177.867C160.681 177.317 160.952 176.804 161.326 176.366V176.4Z" fill="white"/>
<path d="M169.217 206.294C168.507 206.277 167.801 206.411 167.149 206.688C166.498 206.965 165.916 207.378 165.445 207.898C164.993 208.417 164.661 209.026 164.474 209.683C164.287 210.34 164.249 211.028 164.363 211.701V211.923H165.201C165.201 211.803 165.201 211.701 165.114 211.582C165.018 211.024 165.049 210.453 165.202 209.908C165.356 209.363 165.63 208.858 166.004 208.426C166.397 207.995 166.883 207.652 167.425 207.422C167.968 207.193 168.556 207.081 169.147 207.096C170.109 207.119 171.05 207.378 171.883 207.849C172.716 208.32 173.415 208.988 173.915 209.791L174.019 208.563C173.427 207.876 172.694 207.319 171.866 206.928C171.039 206.537 170.136 206.321 169.217 206.294Z" fill="white"/>
<path d="M174.119 126.957C175.607 127 177.019 127.612 178.049 128.662C178.049 128.287 178.049 127.912 178.049 127.553C176.94 126.692 175.571 126.212 174.154 126.189C173.444 126.171 172.738 126.306 172.087 126.583C171.435 126.86 170.853 127.273 170.382 127.792C169.929 128.31 169.598 128.92 169.414 129.577C169.23 130.235 169.197 130.924 169.317 131.596C169.576 133.055 170.347 134.38 171.497 135.345C172.648 136.309 174.105 136.853 175.621 136.883C176.535 136.87 177.431 136.629 178.223 136.183V135.228C177.474 135.779 176.559 136.073 175.621 136.064C174.304 136.04 173.037 135.569 172.036 134.732C171.036 133.895 170.365 132.744 170.138 131.476C170.036 130.92 170.061 130.348 170.212 129.803C170.363 129.257 170.636 128.751 171.011 128.321C171.398 127.888 171.876 127.543 172.413 127.307C172.949 127.072 173.531 126.952 174.119 126.957Z" fill="white"/>
<path d="M174.839 163.493C174.743 162.936 174.772 162.364 174.926 161.819C175.08 161.274 175.355 160.768 175.73 160.338C176.196 159.818 176.801 159.434 177.477 159.229V158.359C176.515 158.577 175.647 159.084 174.996 159.809C174.544 160.328 174.212 160.937 174.025 161.594C173.838 162.251 173.8 162.94 173.913 163.612C174.073 164.52 174.433 165.383 174.971 166.14C175.508 166.898 176.208 167.531 177.023 167.996V167.041C176.436 166.62 175.941 166.09 175.566 165.481C175.191 164.872 174.944 164.196 174.839 163.493Z" fill="white"/>
<path d="M100.085 202.957C114.892 206.658 137.468 207.715 174.503 203.861C173.613 223.048 182.238 352.072 182.238 352.072C182.238 352.072 107.156 368.19 64.7263 346.307C61.9326 248.802 100.085 202.957 100.085 202.957Z" fill="#263238"/>
<path opacity="0.2" d="M128.43 280.765C128.43 280.765 108.053 262.225 97.9785 249.57C98.7817 262.839 110.935 274.744 128.43 280.765Z" fill="black"/>
<path opacity="0.6" d="M260.695 134.292C251.366 128.886 243.888 120.898 239.207 111.339C234.527 101.781 232.855 91.0805 234.403 80.5932C235.95 70.1059 240.648 60.3027 247.901 52.4241C255.155 44.5455 264.638 38.9456 275.151 36.3331C285.663 33.7206 296.733 34.2128 306.959 37.7476C317.186 41.2823 326.109 47.7006 332.599 56.1904C339.09 64.6802 342.856 74.8598 343.422 85.4411C343.987 96.0224 341.327 106.53 335.777 115.634C328.342 127.821 316.261 136.629 302.186 140.127C288.11 143.625 273.189 141.527 260.695 134.292Z" fill="#018762"/>
<path d="M319.015 38.5839C308.939 32.7259 297.31 29.9184 285.6 30.5165C273.89 31.1146 262.625 35.0915 253.229 41.9441C243.833 48.7967 236.729 58.2172 232.816 69.014C228.902 79.8108 228.354 91.4988 231.242 102.6C234.129 113.701 240.322 123.716 249.038 131.378C257.754 139.04 268.6 144.006 280.205 145.646C291.81 147.287 303.652 145.529 314.234 140.595C324.816 135.66 333.662 127.771 339.654 117.926C347.688 104.731 350.028 88.959 346.157 74.0796C342.286 59.2002 332.523 46.432 319.015 38.5839ZM262.249 131.843C253.441 126.729 246.383 119.179 241.967 110.147C237.552 101.114 235.978 91.0062 237.445 81.1003C238.911 71.1944 243.352 61.9357 250.206 54.4953C257.06 47.0548 266.019 41.7668 275.95 39.3C285.88 36.8332 296.337 37.2984 305.997 40.6368C315.657 43.9752 324.087 50.0368 330.22 58.055C336.353 66.0732 339.914 75.6879 340.453 85.683C340.991 95.6782 338.483 105.605 333.245 114.208C326.209 125.726 314.779 134.045 301.466 137.336C288.154 140.627 274.048 138.62 262.249 131.757V131.843Z" fill="#263238"/>
<path d="M262.961 136.598L260.237 135.012L257.531 133.426C257.531 133.426 233.365 165.029 226.834 175.74C220.304 186.451 216.829 196.087 221.439 198.765C226.049 201.443 233.033 193.853 239.563 183.142C246.094 172.431 262.961 136.598 262.961 136.598Z" fill="#263238"/>
<path d="M243.424 168.332L239.391 166.388C238.188 165.805 236.86 165.512 235.517 165.532C234.174 165.553 232.856 165.887 231.673 166.507L224.933 170.038C222.965 171.068 221.278 172.544 220.014 174.342C218.75 176.141 217.946 178.209 217.669 180.373C217.613 180.768 217.683 181.171 217.871 181.525C218.059 181.88 218.354 182.168 218.717 182.352C226.19 185.95 236.335 185.456 237.348 185.387H237.522L240.875 185.524C241.581 185.57 242.289 185.479 242.958 185.257C243.628 185.035 244.246 184.686 244.777 184.229C245.307 183.772 245.74 183.218 246.051 182.597C246.361 181.976 246.542 181.302 246.585 180.612L246.934 173.943C246.969 172.776 246.656 171.625 246.033 170.628C245.409 169.632 244.503 168.834 243.424 168.332Z" fill="#CE7A63"/>
<path d="M180.462 130.254L180.584 132.965L180.742 135.95C180.881 137.946 181.021 139.975 181.213 141.988C181.562 146.03 182.121 150.055 182.715 154.046C183.308 158.037 184.146 161.977 185.072 165.848C185.997 169.72 187.202 173.455 188.459 177.156L187.237 175.024C186.974 174.713 186.639 174.467 186.259 174.308C186.015 174.222 185.98 174.308 186.154 174.444C187.026 174.907 187.992 175.175 188.983 175.229C192.344 175.533 195.728 175.475 199.076 175.058C202.777 174.7 206.636 174.069 210.53 173.353C214.424 172.636 218.44 171.766 222.229 170.982H222.578C224.077 170.672 225.641 170.883 226.997 171.581C228.354 172.278 229.418 173.417 230.004 174.801C230.591 176.184 230.664 177.724 230.21 179.154C229.756 180.584 228.804 181.814 227.519 182.631C223.785 184.984 219.9 187.103 215.89 188.975C211.834 190.854 207.651 192.461 203.371 193.785C198.633 195.34 193.709 196.286 188.721 196.599C185.531 196.765 182.334 196.454 179.24 195.678C177.214 195.15 175.278 194.334 173.495 193.256C171.366 191.981 169.5 190.326 167.995 188.378C167.637 187.909 167.327 187.406 167.07 186.878L166.773 186.246C164.563 181.829 162.661 177.27 161.081 172.602C160.277 170.3 159.614 167.98 158.915 165.644C158.217 163.307 157.711 160.97 157.169 158.617C156.142 153.942 155.373 149.216 154.865 144.461C154.638 142.073 154.411 139.702 154.306 137.28C154.306 136.087 154.201 134.876 154.184 133.648C154.166 132.42 154.184 131.294 154.184 129.742C154.144 126.349 155.486 123.081 157.914 120.655C160.342 118.229 163.658 116.844 167.131 116.806C170.604 116.767 173.951 118.078 176.434 120.45C178.918 122.821 180.336 126.06 180.375 129.452L180.462 130.254Z" fill="#CE7A63"/>
<path d="M162.707 103.719C174.371 110.029 183.172 120.774 184.237 146.238C176.973 153.06 154.344 154.1 154.344 154.1C154.344 154.1 141.161 118.523 162.707 103.719Z" fill="#018762"/>
<path d="M155.583 111.008C156.79 111.151 157.919 111.668 158.803 112.485C159.686 113.302 160.278 114.375 160.49 115.545C160.585 116.099 160.554 116.668 160.4 117.21C160.246 117.752 159.973 118.255 159.599 118.683C159.209 119.118 158.724 119.463 158.181 119.693C157.637 119.923 157.048 120.033 156.456 120.013C155.653 119.999 154.863 119.819 154.137 119.483C153.412 119.148 152.767 118.666 152.247 118.069C152.143 118.359 152.073 118.649 151.985 118.939C153.164 120.117 154.769 120.797 156.456 120.832C157.168 120.848 157.875 120.712 158.526 120.432C159.178 120.152 159.759 119.735 160.228 119.212C160.681 118.696 161.013 118.09 161.2 117.436C161.387 116.782 161.425 116.095 161.31 115.425C161.064 114.157 160.432 112.991 159.498 112.079C158.563 111.166 157.37 110.549 156.072 110.309L155.583 111.008Z" fill="white"/>
<path d="M159.714 142.199C159.004 142.184 158.299 142.32 157.648 142.597C156.997 142.874 156.415 143.285 155.942 143.802C155.49 144.321 155.158 144.93 154.971 145.587C154.784 146.244 154.746 146.932 154.86 147.605C155.122 149.063 155.893 150.386 157.043 151.35C158.192 152.314 159.648 152.859 161.163 152.892C161.881 152.895 162.591 152.744 163.243 152.449C163.895 152.154 164.472 151.723 164.935 151.187C165.384 150.67 165.712 150.063 165.896 149.409C166.08 148.755 166.115 148.069 166 147.4C165.741 145.942 164.97 144.616 163.82 143.651C162.67 142.687 161.212 142.143 159.696 142.113L159.714 142.199ZM165.197 147.588C165.295 148.144 165.268 148.715 165.118 149.26C164.967 149.805 164.696 150.311 164.323 150.743C163.931 151.176 163.446 151.519 162.903 151.749C162.36 151.979 161.772 152.09 161.181 152.074C159.864 152.046 158.599 151.574 157.599 150.737C156.6 149.901 155.928 148.752 155.698 147.486C155.603 146.928 155.633 146.357 155.787 145.812C155.94 145.267 156.214 144.762 156.588 144.33C156.984 143.902 157.469 143.561 158.012 143.331C158.554 143.102 159.14 142.989 159.731 143C161.048 143.025 162.316 143.496 163.316 144.333C164.316 145.17 164.987 146.321 165.214 147.588H165.197Z" fill="white"/>
<path d="M174.123 126.158C173.412 126.14 172.707 126.275 172.055 126.552C171.404 126.828 170.822 127.241 170.351 127.761C169.897 128.279 169.567 128.889 169.383 129.546C169.198 130.204 169.165 130.893 169.286 131.564C169.545 133.023 170.316 134.349 171.466 135.313C172.616 136.278 174.074 136.822 175.589 136.851C176.307 136.852 177.016 136.699 177.668 136.405C178.319 136.11 178.897 135.681 179.361 135.146C179.815 134.628 180.145 134.018 180.33 133.361C180.514 132.703 180.547 132.014 180.426 131.343C180.145 129.902 179.365 128.601 178.217 127.656C177.069 126.712 175.623 126.183 174.123 126.158ZM178.732 134.685C178.339 135.117 177.854 135.46 177.311 135.689C176.768 135.919 176.181 136.031 175.589 136.016C174.272 135.991 173.005 135.52 172.005 134.683C171.004 133.846 170.333 132.695 170.107 131.428C170.004 130.872 170.029 130.3 170.18 129.754C170.331 129.209 170.604 128.703 170.98 128.273C171.374 127.842 171.859 127.5 172.402 127.27C172.944 127.041 173.531 126.929 174.123 126.942C175.44 126.967 176.707 127.438 177.707 128.275C178.708 129.112 179.379 130.263 179.605 131.53C179.712 132.089 179.689 132.664 179.538 133.213C179.387 133.762 179.111 134.271 178.732 134.703V134.685Z" fill="white"/>
<path d="M98.189 389.929H97.8747C95.9887 389.451 96.1284 385.017 97.0889 381.077C98.0493 377.137 100.215 373.214 102.118 373.692C104.021 374.169 103.864 378.604 102.904 382.527C102.437 384.432 101.684 386.26 100.669 387.95C99.813 389.263 98.9748 389.929 98.189 389.929ZM101.804 374.323C100.739 374.323 98.8526 377.137 97.7874 381.23C96.7221 385.324 97.0015 388.956 98.0493 389.212C98.5382 389.332 99.324 388.701 100.075 387.507C101.047 385.881 101.765 384.121 102.205 382.288C103.358 377.905 102.991 374.562 101.943 374.306L101.804 374.323Z" fill="white"/>
<path d="M343.234 417.453C343.119 417.454 343.007 417.416 342.917 417.345C342.826 417.275 342.763 417.177 342.738 417.067C331.211 363.827 353.536 307.7 381.629 288.701C381.74 288.629 381.875 288.602 382.005 288.626C382.136 288.65 382.252 288.723 382.328 288.83C382.403 288.938 382.433 289.071 382.41 289.2C382.388 289.329 382.314 289.444 382.206 289.522C354.376 308.303 332.284 363.975 343.75 416.85C343.765 416.913 343.767 416.978 343.755 417.042C343.744 417.106 343.72 417.167 343.684 417.221C343.648 417.275 343.601 417.322 343.547 417.358C343.492 417.395 343.43 417.42 343.366 417.433L343.234 417.453Z" fill="#263238"/>
<path d="M343.234 417.453C343.119 417.454 343.007 417.416 342.917 417.345C342.826 417.275 342.763 417.177 342.738 417.067C331.211 363.827 353.536 307.7 381.629 288.701C381.74 288.629 381.875 288.602 382.005 288.626C382.136 288.65 382.252 288.723 382.328 288.83C382.403 288.938 382.433 289.071 382.41 289.2C382.388 289.329 382.314 289.444 382.206 289.522C354.376 308.303 332.284 363.975 343.75 416.85C343.765 416.913 343.767 416.978 343.755 417.042C343.744 417.106 343.72 417.167 343.684 417.221C343.648 417.275 343.601 417.322 343.547 417.358C343.492 417.395 343.43 417.42 343.366 417.433L343.234 417.453Z" fill="#263238"/>
<path d="M378.491 291.505C387.741 281.333 404.085 272.378 413.243 275.808C409.995 284.853 392.416 291.218 378.491 291.505Z" fill="#263238"/>
<path d="M371.346 298.19C360.214 290.044 349.699 274.871 352.442 265.668C361.934 268.08 369.889 284.667 371.346 298.19Z" fill="#263238"/>
<path d="M362.726 309C376.6 310.107 393.764 317.491 396.456 326.704C387.095 329.6 371.328 319.696 362.726 309Z" fill="#263238"/>
<path d="M354.829 322.938C341.946 317.758 327.899 305.629 328.213 296.051C338.009 296.071 349.961 310.186 354.829 322.938Z" fill="#263238"/>
<path d="M348.562 338.12C362.284 335.806 380.784 338.772 385.742 347.016C377.474 352.127 359.633 346.383 348.562 338.12Z" fill="#263238"/>
<path d="M340.766 376.226C350.886 374.486 364.446 376.621 368.09 382.691C362.008 386.447 348.912 382.266 340.766 376.226Z" fill="#263238"/>
<path d="M333.123 421.392H333.042C332.976 421.381 332.913 421.358 332.856 421.323C332.8 421.288 332.751 421.243 332.712 421.19C332.674 421.136 332.646 421.076 332.632 421.013C332.617 420.949 332.616 420.883 332.627 420.819C338.547 388.702 324.177 355.519 307.044 344.704C306.932 344.63 306.855 344.516 306.828 344.387C306.802 344.257 306.828 344.123 306.902 344.012C306.976 343.904 307.091 343.829 307.222 343.803C307.353 343.777 307.489 343.803 307.6 343.874C325.007 354.886 339.61 388.515 333.629 420.977C333.608 421.093 333.545 421.198 333.453 421.274C333.361 421.35 333.244 421.391 333.123 421.392Z" fill="#263238"/>
<path d="M333.123 421.392H333.042C332.976 421.381 332.913 421.358 332.856 421.323C332.8 421.288 332.751 421.243 332.712 421.19C332.674 421.136 332.646 421.076 332.632 421.013C332.617 420.949 332.616 420.883 332.627 420.819C338.547 388.702 324.177 355.519 307.044 344.704C306.932 344.63 306.855 344.516 306.828 344.387C306.802 344.257 306.828 344.123 306.902 344.012C306.976 343.904 307.091 343.829 307.222 343.803C307.353 343.777 307.489 343.803 307.6 343.874C325.007 354.886 339.61 388.515 333.629 420.977C333.608 421.093 333.545 421.198 333.453 421.274C333.361 421.35 333.244 421.391 333.123 421.392Z" fill="#263238"/>
<path d="M309.432 345.629C303.653 339.639 293.594 334.509 288.119 336.733C290.254 342.169 301.012 345.698 309.432 345.629Z" fill="#263238"/>
<path d="M313.883 349.552C320.481 344.422 326.543 335.051 324.711 329.535C319.014 331.206 314.51 341.338 313.883 349.552Z" fill="#263238"/>
<path d="M319.31 355.918C310.93 356.837 300.689 361.612 299.231 367.236C304.949 368.838 314.3 362.561 319.31 355.918Z" fill="#263238"/>
<path d="M324.349 364.224C332.04 360.863 340.308 353.271 339.944 347.488C333.963 347.676 327.051 356.424 324.349 364.224Z" fill="#263238"/>
<path d="M328.417 373.298C320.068 372.152 308.936 374.287 306.092 379.368C311.223 382.294 321.879 378.498 328.417 373.298Z" fill="#263238"/>
<path d="M362.726 409.543H318.238V414.149H362.726V409.543Z" fill="#018762"/>
<path d="M359.528 404.934H312.592V409.54H359.528V404.934Z" fill="#018762"/>
<path d="M366.217 414.137H321.163V418.743H366.217V414.137Z" fill="#018762"/>
<path d="M364.514 441.77H316.596V446.376H364.514V441.77Z" fill="#018762"/>
<path d="M363.343 418.746H313.087V423.352H363.343V418.746Z" fill="#018762"/>
<path d="M374.897 418.746H369.856V423.352H374.897V418.746Z" fill="#018762"/>
<path d="M366.74 423.363H345.508V427.97H366.74V423.363Z" fill="#018762"/>
<path d="M318.997 437.168H345.744V432.562H318.997V437.168Z" fill="#018762"/>
<path d="M348.739 437.168H362.826V432.562H348.739V437.168Z" fill="#018762"/>
<path d="M328.136 437.168H313.422V441.774H328.136V437.168Z" fill="#018762"/>
<path d="M343.365 437.168H336.544V441.774H343.365V437.168Z" fill="#018762"/>
<path d="M369.254 437.168H355.046V441.774H369.254V437.168Z" fill="#018762"/>
<path d="M366.627 446.379H352.419V450.985H366.627V446.379Z" fill="#018762"/>
<path d="M342.23 423.363H320.219V427.97H342.23V423.363Z" fill="#018762"/>
<path d="M349.865 446.379H319.009V450.985H349.865V446.379Z" fill="#018762"/>
<path d="M364.726 427.969H315.947V432.575H364.726V427.969Z" fill="#018762"/>
</svg>
