<svg width="356" height="347" viewBox="0 0 356 347" fill="none" xmlns="http://www.w3.org/2000/svg">
<path d="M198.25 320.668C185.975 315.005 181.083 301.542 179.353 289.001C179.061 286.919 178.449 284.754 179.147 282.755C179.844 280.756 181.995 279.125 184.059 279.687C185.775 280.152 186.779 281.832 187.926 283.157C189.45 284.946 191.465 286.274 193.736 286.988C195.217 287.453 196.975 287.599 198.193 286.655C199.859 285.357 199.617 282.845 199.275 280.777C198.577 276.942 197.894 273.106 197.224 269.271C196.742 267.224 196.6 265.115 196.804 263.025C197.118 260.943 198.264 258.861 200.186 258C202.109 257.139 204.807 257.84 205.583 259.797C205.812 260.639 205.983 261.495 206.096 262.358C206.302 263.212 206.879 264.093 207.755 264.197C208.631 264.302 209.392 263.573 209.926 262.858C211.749 260.408 212.774 257.473 213.7 254.565C214.626 251.657 215.494 248.693 217.089 246.084C218.684 243.475 221.119 241.226 224.131 240.532C227.143 239.838 230.703 241.157 231.963 243.94C233.223 246.722 232.006 249.977 230.539 252.656C228.311 256.623 225.508 260.255 222.216 263.441C221.559 263.951 221.085 264.651 220.863 265.44C220.642 266.897 222.223 268.049 223.711 268.271C225.377 268.521 227.071 268.077 228.759 267.994C230.446 267.91 232.362 268.327 233.259 269.749C234.49 271.72 233.059 274.24 231.529 275.995C228.454 279.494 224.786 282.451 220.685 284.74C219.218 285.552 217.659 286.315 216.584 287.592C215.509 288.869 215.074 290.854 216.085 292.186C217.096 293.519 219.14 293.665 220.72 293.096C222.301 292.526 223.618 291.423 225.078 290.597C227.812 289.043 231.614 288.612 233.914 290.764C234.631 291.516 235.159 292.42 235.457 293.405C235.755 294.39 235.814 295.43 235.63 296.441C235.251 298.455 234.459 300.374 233.301 302.083C229.614 308.261 224.312 313.376 217.936 316.907C211.564 320.307 205.398 321.966 198.257 320.675" fill="#F5F5F5"/>
<path d="M200.193 312.298C201.138 305.155 202.502 298.072 204.28 291.082L205.647 285.579C206.096 283.767 206.544 281.977 207.071 280.256C208.136 276.953 209.386 273.709 210.816 270.54C212.162 267.5 213.55 264.655 214.868 262.011C216.185 259.366 217.474 256.924 218.741 254.751C220.719 251.306 222.976 248.02 225.491 244.924C226.381 243.828 227.1 243.002 227.591 242.447C227.826 242.183 228.018 241.975 228.154 241.815C228.289 241.656 228.353 241.607 228.36 241.614C228.309 241.694 228.251 241.77 228.189 241.843L227.648 242.495C227.178 243.064 226.48 243.883 225.612 245.015C223.152 248.14 220.937 251.442 218.983 254.89C217.737 257.069 216.47 259.512 215.16 262.156C213.85 264.8 212.482 267.646 211.151 270.686C209.733 273.855 208.497 277.099 207.449 280.402C206.9 282.116 206.459 283.872 206.025 285.704L204.658 291.214C202.883 298.189 201.512 305.256 200.549 312.381" fill="#E0E0E0"/>
<path d="M207.192 280.228C207.038 279.958 206.916 279.672 206.829 279.375C206.615 278.826 206.338 277.987 206.01 277.008C205.355 274.996 204.544 272.185 203.661 269.09C202.778 265.994 201.93 263.198 201.24 261.206C200.898 260.206 200.613 259.394 200.414 258.846C200.294 258.561 200.201 258.266 200.136 257.965C200.308 258.224 200.449 258.501 200.556 258.791C200.806 259.325 201.126 260.123 201.503 261.109C202.265 263.094 203.155 265.876 204.045 268.986C204.935 272.095 205.683 274.815 206.281 276.925C206.558 277.883 206.786 278.688 206.993 279.333C207.086 279.625 207.153 279.925 207.192 280.228Z" fill="#E0E0E0"/>
<path d="M233.643 270.75C233.299 270.89 232.941 270.995 232.575 271.062C231.863 271.236 230.887 271.486 229.663 271.833C227.206 272.527 223.853 273.554 220.2 274.872C216.548 276.191 213.294 277.53 210.944 278.557C209.777 279.064 208.844 279.501 208.196 279.8C207.87 279.973 207.53 280.117 207.178 280.23C207.472 280.009 207.79 279.818 208.125 279.661C208.751 279.321 209.67 278.849 210.823 278.273C213.123 277.176 216.37 275.795 220.029 274.47C223.153 273.331 226.335 272.351 229.563 271.534C230.802 271.215 231.813 271.007 232.518 270.875C232.888 270.799 233.265 270.757 233.643 270.75Z" fill="#E0E0E0"/>
<path d="M200.442 311.764C200.351 311.673 200.27 311.573 200.2 311.465L199.566 310.584C199.018 309.807 198.256 308.675 197.338 307.26C195.486 304.428 193.066 300.438 190.453 295.996C187.84 291.554 185.469 287.55 183.667 284.691L181.531 281.297L180.962 280.374C180.886 280.272 180.827 280.16 180.784 280.041C180.784 280.041 180.876 280.131 181.026 280.333C181.175 280.534 181.41 280.86 181.659 281.221C182.208 281.991 182.97 283.122 183.895 284.545C185.739 287.377 188.167 291.36 190.78 295.802C193.393 300.243 195.764 304.248 197.558 307.114L199.694 310.501C199.922 310.869 200.114 311.195 200.264 311.424C200.34 311.528 200.4 311.642 200.442 311.764Z" fill="#E0E0E0"/>
<path d="M234.746 294.381C234.646 294.466 234.533 294.536 234.412 294.589L233.422 295.103L229.748 296.969C226.644 298.552 222.386 300.78 217.687 303.215C212.987 305.651 208.708 307.879 205.583 309.392C204.016 310.149 202.735 310.78 201.852 311.148L200.784 311.606C200.667 311.667 200.542 311.713 200.414 311.745C200.515 311.661 200.628 311.591 200.748 311.537L201.745 311.023L205.419 309.149C208.516 307.574 212.774 305.346 217.473 302.903C222.172 300.46 226.459 298.246 229.577 296.734C231.143 295.977 232.425 295.346 233.308 294.978L234.333 294.52C234.463 294.453 234.602 294.406 234.746 294.381Z" fill="#E0E0E0"/>
<path d="M109.221 171.701C109.221 171.701 100.762 172.846 105.511 190.904C110.26 208.962 114.29 218.275 114.29 218.275C114.29 218.275 114.924 222.363 111.542 222.238C108.16 222.113 101.261 219.462 98.9183 222.994C96.4975 226.686 98.6192 231.128 103.902 235.785C109.185 240.441 120.449 251.053 121.46 252.017C122.471 252.982 123.212 254.967 120.891 255.237C118.569 255.508 102.108 253.627 101.667 261.296C101.225 268.965 118.192 279.569 120.022 280.763C121.852 281.956 122.158 282.886 121.731 283.927C121.304 284.968 115.85 283.823 111.143 283.469C106.437 283.115 100.912 283.525 101.033 287.966C101.154 292.408 110.068 303.651 136.056 312.007L148.367 315.109L157.459 306.378C175.757 286.537 177.758 272.469 175.601 268.555C173.443 264.641 168.481 266.966 164.536 269.548C160.592 272.129 156.462 275.794 155.579 275.1C154.696 274.406 154.469 273.448 155.451 271.526C156.434 269.603 165.754 252.184 161.453 245.744C157.153 239.303 143.824 248.894 141.688 249.776C139.552 250.657 139.168 248.561 139.552 247.256C139.937 245.952 144.28 231.294 146.515 224.667C148.751 218.039 148.324 213.167 144.337 211.141C140.492 209.191 135.871 214.854 132.995 216.602C130.118 218.351 128.594 214.52 128.594 214.52C128.594 214.52 127.341 204.492 122.258 186.518C117.174 168.543 109.064 171.763 109.064 171.763" fill="#EBEBEB"/>
<path d="M148.359 318.095C144.678 304.909 138.534 281.313 133.158 261.055C127.783 240.797 122.898 222.531 119.281 209.304C117.473 202.697 116.006 197.353 115.009 193.64C114.511 191.801 114.119 190.364 113.849 189.379L113.55 188.268C113.486 188.019 113.464 187.887 113.464 187.887C113.464 187.887 113.514 188.005 113.593 188.255C113.671 188.504 113.778 188.886 113.92 189.358C114.212 190.343 114.632 191.766 115.159 193.598C116.227 197.283 117.736 202.62 119.573 209.227C123.254 222.413 128.189 240.742 133.564 260.958C138.94 281.174 145.034 304.791 148.651 318.019" fill="#E0E0E0"/>
<path d="M108.417 227.117C108.701 227.231 108.973 227.373 109.228 227.541C109.734 227.832 110.46 228.276 111.364 228.831C113.137 229.949 115.551 231.552 118.178 233.363L124.885 238.027L126.929 239.415C127.186 239.571 127.425 239.755 127.641 239.963C127.353 239.85 127.079 239.708 126.822 239.54C126.316 239.248 125.59 238.804 124.686 238.242C122.927 237.111 120.535 235.466 117.907 233.662L111.165 229.047L109.114 227.659C108.863 227.503 108.629 227.321 108.417 227.117Z" fill="#E0E0E0"/>
<path d="M128.673 239.387C128.58 239.332 131.749 234.342 135.743 228.242C139.737 222.141 143.062 217.242 143.155 217.297C143.248 217.353 140.079 222.35 136.078 228.45C132.076 234.55 128.765 239.429 128.673 239.387Z" fill="#E0E0E0"/>
<path d="M135.494 270.812C135.691 270.572 135.918 270.358 136.17 270.173L138.085 268.535C139.702 267.147 141.93 265.232 144.308 263.025C146.686 260.818 148.78 258.757 150.275 257.251C150.987 256.557 151.571 255.939 152.048 255.467C152.263 255.235 152.502 255.023 152.76 254.836C152.602 255.101 152.411 255.346 152.19 255.565C151.806 256.016 151.229 256.654 150.503 257.431C149.079 258.993 147 261.096 144.607 263.303C142.215 265.51 139.965 267.411 138.299 268.744C137.459 269.438 136.775 269.937 136.291 270.291C136.046 270.493 135.778 270.668 135.494 270.812Z" fill="#E0E0E0"/>
<path d="M114.667 263.643C114.955 263.676 115.237 263.744 115.508 263.844L117.765 264.538C119.659 265.128 122.272 265.967 125.148 266.911C128.025 267.855 130.623 268.743 132.496 269.403L134.71 270.194C134.986 270.278 135.251 270.392 135.501 270.534C135.213 270.506 134.93 270.44 134.66 270.34L132.403 269.646C130.509 269.056 127.896 268.216 125.02 267.265C122.143 266.314 119.545 265.433 117.672 264.781L115.458 263.983C115.18 263.904 114.914 263.79 114.667 263.643Z" fill="#E0E0E0"/>
<path d="M117.074 292.131C117.441 292.184 117.801 292.273 118.149 292.395L121.04 293.255C123.475 293.998 126.829 295.046 130.531 296.232C134.233 297.419 137.573 298.502 139.986 299.314L142.834 300.285C143.189 300.396 143.534 300.533 143.867 300.695C143.498 300.642 143.135 300.554 142.785 300.431L139.894 299.571C137.459 298.828 134.105 297.78 130.403 296.593C126.7 295.407 123.361 294.317 120.955 293.512L118.107 292.533C117.751 292.43 117.405 292.295 117.074 292.131Z" fill="#E0E0E0"/>
<path d="M143.283 300.313C143.534 300.013 143.813 299.737 144.116 299.488L146.473 297.329C148.459 295.504 151.194 292.971 154.134 290.091C157.075 287.211 159.673 284.539 161.539 282.596L163.746 280.292C164.006 279.997 164.289 279.723 164.593 279.473C164.386 279.799 164.148 280.106 163.881 280.389C163.397 280.965 162.671 281.777 161.745 282.776C159.93 284.775 157.367 287.481 154.412 290.362C151.457 293.242 148.716 295.754 146.665 297.531C145.64 298.412 144.807 299.127 144.216 299.613C143.926 299.871 143.614 300.105 143.283 300.313Z" fill="#E0E0E0"/>
<path d="M72.4819 64.0138L65.5328 61.9318C65.5328 61.9318 63.71 67.6226 57.6153 65.8807C56.4354 65.564 55.3856 64.8976 54.6113 63.9738C53.8371 63.05 53.3765 61.9144 53.2935 60.7242C53.2022 59.7206 53.3582 58.7102 53.7483 57.7771C54.1383 56.8441 54.7513 56.0152 55.5363 55.3596C57.3234 53.8189 60.4562 52.882 64.8777 55.1098L69.7692 39.8418L62.8984 37.7598L60.0504 46.7054C60.0504 46.7054 49.6267 46.1988 46.3159 56.5464C43.1475 66.4497 51.5206 71.5229 55.4224 72.7096C58.3843 73.6118 68.7866 75.9992 72.4819 64.0138Z" fill="#F5F5F5"/>
<path d="M63.8287 34.5802L70.8022 36.7012L72.834 30.3545L65.8605 28.2335L63.8287 34.5802Z" fill="#F5F5F5"/>
<path d="M91.6559 46.7735L94.4398 46.0795C94.3548 45.7713 94.3342 45.4496 94.3794 45.1335C94.4245 44.8175 94.5343 44.5135 94.7023 44.2396C94.8704 43.9658 95.0932 43.7276 95.3576 43.5394C95.6219 43.3511 95.9224 43.2166 96.2411 43.1438C96.705 43.0073 97.2009 43.0149 97.6601 43.1653C98.1194 43.3158 98.5193 43.6017 98.8044 43.9836C99.0464 44.3006 99.208 44.669 99.2761 45.0586C99.3441 45.4482 99.3167 45.8479 99.196 46.2252C98.9325 47.1066 98.0852 48.0643 96.1201 48.2239L97.7791 54.3381L100.527 53.6441L99.5591 50.063C100.601 49.4503 101.408 48.5204 101.854 47.4168C102.301 46.3131 102.362 45.097 102.03 43.9558C100.962 39.9861 97.0457 40.007 95.5007 40.4025C94.3045 40.6732 90.3102 41.9987 91.6559 46.7735Z" fill="#EBEBEB"/>
<path d="M101.497 54.5369L98.6934 55.2695L99.395 57.8209L102.199 57.0883L101.497 54.5369Z" fill="#EBEBEB"/>
<path d="M321.497 117.016L324.202 117.966C324.316 117.668 324.489 117.394 324.713 117.162C324.937 116.93 325.206 116.744 325.504 116.614C325.803 116.485 326.125 116.415 326.451 116.409C326.778 116.403 327.103 116.46 327.406 116.578C327.862 116.721 328.261 116.998 328.549 117.371C328.837 117.744 329 118.194 329.015 118.66C329.032 119.058 328.952 119.455 328.781 119.817C328.61 120.179 328.354 120.496 328.033 120.742C327.321 121.318 326.046 121.631 324.337 120.673L322.123 126.621L324.8 127.564L326.096 124.094C327.311 124.168 328.518 123.85 329.53 123.191C330.542 122.532 331.304 121.567 331.7 120.444C333.124 116.585 329.912 114.441 328.396 113.907C327.235 113.462 323.177 112.345 321.497 117.016Z" fill="#EBEBEB"/>
<path d="M324.4 128.768L321.682 127.809L320.763 130.282L323.481 131.241L324.4 128.768Z" fill="#EBEBEB"/>
<path d="M34.3612 147.217L40.0572 145.065C40.0572 145.065 38.206 140.381 43.1686 138.417C44.1184 138.025 45.1695 137.93 46.1769 138.145C47.1843 138.36 48.0985 138.875 48.7934 139.617C49.3846 140.235 49.8179 140.98 50.0579 141.791C50.2979 142.603 50.338 143.458 50.1747 144.288C49.8187 146.217 48.2523 148.452 44.1298 149.222L49.1138 161.805L54.8098 159.681L51.8906 152.311C51.8906 152.311 59.0106 147.328 55.6713 138.792C52.4317 130.63 44.1441 131.56 40.9614 132.761C38.505 133.684 30.3597 137.41 34.3612 147.217Z" fill="#F5F5F5"/>
<path d="M55.8891 162.244L50.1421 164.402L52.2103 169.635L57.9574 167.477L55.8891 162.244Z" fill="#F5F5F5"/>
<path d="M323.725 168.391L319.667 169.911C319.667 169.911 320.977 173.235 317.459 174.623C316.786 174.898 316.042 174.964 315.329 174.812C314.616 174.661 313.968 174.299 313.472 173.777C313.053 173.339 312.747 172.811 312.577 172.236C312.408 171.66 312.38 171.054 312.497 170.466C312.753 169.078 313.864 167.524 316.769 166.996L313.28 158.051L309.264 159.557L311.329 164.783C309.868 165.872 308.814 167.4 308.33 169.13C307.847 170.861 307.96 172.698 308.652 174.36C310.938 180.141 316.79 179.488 319.069 178.635C320.792 177.976 326.559 175.338 323.725 168.391Z" fill="#F5F5F5"/>
<path d="M308.47 157.744L312.542 156.215L311.078 152.511L307.006 154.04L308.47 157.744Z" fill="#F5F5F5"/>
<path d="M335.189 321.856C335.189 321.96 264.807 322.037 178.007 322.037C91.2075 322.037 20.812 321.96 20.812 321.856C20.812 321.752 91.179 321.676 178.007 321.676C264.836 321.676 335.189 321.759 335.189 321.856Z" fill="#263238"/>
<path d="M65.9596 303.833C66.6716 301.279 64.9129 298.718 62.9905 296.893C61.0681 295.068 58.7684 293.389 57.7645 290.939C56.1411 286.969 58.3198 281.833 55.5573 278.523C53.9268 276.58 51.0076 275.928 49.5622 273.846C48.8939 272.698 48.452 271.439 48.2593 270.133C46.7229 263.539 43.3956 257.47 38.6259 252.561C38.3044 258.433 39.6103 264.283 42.4066 269.494C43.5245 271.576 44.9057 273.603 45.2546 275.928C45.8598 279.696 43.6953 283.562 44.6494 287.281C45.7388 291.515 50.616 294.353 50.8438 298.712C51.0432 302.397 47.7466 305.652 47.9958 309.316C48.1955 310.885 48.7791 312.385 49.6975 313.688C52.6167 318.428 56.9172 321.69 63.4249 321.586L71.3993 321.856L65.9596 303.833Z" fill="#018762"/>
<g opacity="0.3">
<path d="M65.9596 303.833C66.6716 301.279 64.9129 298.718 62.9905 296.893C61.0681 295.068 58.7684 293.389 57.7645 290.939C56.1411 286.969 58.3198 281.833 55.5573 278.523C53.9268 276.58 51.0076 275.928 49.5622 273.846C48.8939 272.698 48.452 271.439 48.2593 270.133C46.7229 263.539 43.3956 257.47 38.6259 252.561C38.3044 258.433 39.6103 264.283 42.4066 269.494C43.5245 271.576 44.9057 273.603 45.2546 275.928C45.8598 279.696 43.6953 283.562 44.6494 287.281C45.7388 291.515 50.616 294.353 50.8438 298.712C51.0432 302.397 47.7466 305.652 47.9958 309.316C48.1955 310.885 48.7791 312.385 49.6975 313.688C52.6167 318.428 56.9172 321.69 63.4249 321.586L71.3993 321.856L65.9596 303.833Z" fill="black"/>
</g>
<path d="M73.0083 322.017C73.7387 322.127 74.483 322.113 75.2084 321.976C76.0892 321.845 76.9548 321.631 77.793 321.337C78.9506 320.945 80.0333 320.368 80.997 319.63C81.5768 319.176 82.0298 318.586 82.3142 317.916C82.5523 317.165 82.6771 316.384 82.6844 315.598C82.7005 314.758 82.7646 313.919 82.8767 313.086C83.0267 312.199 83.3558 311.349 83.845 310.587C84.7848 308.977 86.3512 307.45 86.8496 305.264C87.348 303.078 87.0063 300.788 86.636 298.456C86.2658 296.124 85.924 293.598 86.8211 291.155C87.7183 288.712 89.4271 286.526 90.3028 283.792C91.1786 281.058 90.7656 278.046 90.9507 275.11C91.0054 273.619 91.3585 272.152 91.9903 270.793C92.6311 269.405 93.5282 268.121 94.2259 266.678C95.6499 263.749 95.892 260.432 96.2765 257.177C96.4687 255.539 96.6539 253.88 96.8461 252.215C96.9673 250.531 97.2655 248.863 97.7361 247.239C98.2763 245.601 98.9134 243.995 99.6443 242.429C100.021 241.62 100.33 240.782 100.57 239.924C100.704 239.036 100.79 238.142 100.826 237.245C100.911 235.45 100.84 233.651 100.613 231.867C100.399 230.076 100.064 228.3 99.865 226.502C99.865 226.391 99.865 226.287 99.865 226.19L99.8223 225.836L99.5019 225.989C97.8184 226.831 96.3566 228.039 95.2299 229.521C94.1248 230.972 93.2355 232.568 92.5883 234.261C91.2569 237.599 90.7799 241.097 90.1106 244.435C89.4413 247.773 88.5869 251.056 86.8354 253.832C85.9596 255.22 84.8987 256.483 83.9874 257.829C82.9978 259.143 82.3215 260.656 82.008 262.257C81.531 265.547 83.3893 268.434 83.0048 271.348C82.8313 272.776 82.3458 274.151 81.5808 275.381C80.8688 276.623 80.0073 277.775 79.1956 278.927C78.3729 280.057 77.658 281.258 77.0596 282.515C76.4964 283.745 76.1637 285.064 76.0771 286.408C75.8848 289.032 76.2622 291.516 76.0771 293.862C75.8547 296.098 75.1847 298.269 74.1048 300.254C73.1436 302.162 72.0685 303.89 71.1714 305.57C70.7228 306.402 70.3027 307.221 69.961 308.047C69.6376 308.84 69.399 309.663 69.249 310.504C69.0107 311.972 68.9915 313.465 69.192 314.939C69.4012 316.993 70.1898 318.951 71.4704 320.595C71.6662 320.843 71.8829 321.075 72.1183 321.289C72.2756 321.45 72.4498 321.594 72.6381 321.719C72.9371 321.934 73.0938 322.031 73.0938 322.031C72.5246 321.593 72.0065 321.095 71.5487 320.546C70.3263 318.896 69.5879 316.953 69.4127 314.925C69.2314 313.47 69.265 311.998 69.5124 310.553C69.6623 309.732 69.901 308.93 70.2244 308.158C70.5852 307.323 70.9916 306.508 71.4419 305.715C72.3462 304.05 73.4284 302.329 74.411 300.406C75.5231 298.391 76.2152 296.181 76.4473 293.903C76.6609 291.509 76.2907 289.011 76.49 286.457C76.5817 285.156 76.9071 283.88 77.4512 282.688C78.0533 281.458 78.7682 280.282 79.5872 279.177C80.3989 278.025 81.2604 276.873 82.0009 275.603C82.8136 274.327 83.3334 272.894 83.5246 271.404C83.9091 268.302 82.065 265.401 82.542 262.34C82.8541 260.809 83.508 259.364 84.4573 258.107C85.3615 256.781 86.4295 255.518 87.3053 254.096C89.1209 251.243 89.9967 247.898 90.6588 244.546C91.321 241.194 91.8122 237.724 93.1223 234.448C93.7524 232.802 94.6177 231.251 95.6927 229.84C96.7765 228.418 98.1824 227.259 99.8009 226.454L99.4378 226.252C99.4378 226.356 99.4378 226.461 99.4734 226.572C99.6727 228.39 100.007 230.166 100.185 231.943C100.41 233.699 100.479 235.471 100.392 237.238C100.356 238.107 100.275 238.973 100.15 239.834C99.9197 240.664 99.6196 241.474 99.2526 242.256C98.5179 243.839 97.8761 245.46 97.3303 247.114C96.8557 248.764 96.5551 250.457 96.4331 252.166C96.248 253.839 96.0558 255.498 95.8706 257.135C95.4862 260.404 95.237 263.666 93.8771 266.49C93.1651 267.878 92.3107 269.204 91.6485 270.62C90.9968 272.03 90.634 273.55 90.5805 275.096C90.4025 278.094 90.8012 281.03 89.9682 283.681C89.1351 286.332 87.405 288.539 86.5292 291.044C85.6535 293.55 85.9739 296.201 86.3583 298.525C86.7428 300.85 87.1273 303.141 86.6147 305.202C86.102 307.263 84.6353 308.804 83.6812 310.455C83.1782 311.251 82.8418 312.135 82.6915 313.058C82.584 313.901 82.5269 314.749 82.5207 315.598C82.5218 316.364 82.4066 317.127 82.1789 317.86C81.9152 318.496 81.4916 319.057 80.9471 319.491C80.0093 320.228 78.9532 320.81 77.8215 321.212C76.9943 321.523 76.1383 321.756 75.2654 321.906C74.7319 322.001 74.1913 322.052 73.6491 322.059C73.2006 322.017 73.0083 322.017 73.0083 322.017Z" fill="#263238"/>
<path d="M98.1985 230.477C98.1604 230.551 98.134 230.63 98.1201 230.713L97.9493 231.407C97.7926 232.024 97.6004 232.947 97.3013 234.099C97.0023 235.251 96.2689 236.556 95.6495 238.159C94.924 239.964 94.2919 241.803 93.7556 243.669C93.1433 245.751 92.6093 248.042 92.0397 250.512C91.5556 253.144 90.6977 255.697 89.4907 258.098C88.8357 259.361 88.0667 260.638 87.5185 262.04C86.9436 263.471 86.5583 264.969 86.3721 266.495C85.9672 269.657 85.392 272.796 84.6491 275.899C83.0542 282.263 81.5305 288.328 80.1421 293.853C78.7537 299.377 77.4437 304.318 76.3614 308.496C75.2792 312.674 74.4604 316.005 73.8623 318.386C73.5846 319.524 73.3639 320.419 73.2073 321.078C73.1432 321.363 73.0862 321.592 73.0435 321.772C73.0356 321.853 73.0356 321.934 73.0435 322.015C73.0849 321.943 73.116 321.866 73.1361 321.786C73.1859 321.599 73.2571 321.377 73.3425 321.092C73.5205 320.447 73.7697 319.551 74.0901 318.42C74.7309 316.061 75.6352 312.709 76.753 308.579C77.8709 304.45 79.1738 299.453 80.6334 293.964C82.093 288.474 83.574 282.367 85.1831 275.996C85.9213 272.885 86.4822 269.736 86.8634 266.565C87.0454 265.075 87.4185 263.613 87.9741 262.213C88.5366 260.825 89.2557 259.583 89.9108 258.306C91.3348 255.773 91.8973 253.052 92.4597 250.603C93.0222 248.153 93.5206 245.835 94.1045 243.767C94.6883 241.699 95.3006 239.852 95.913 238.256C96.5253 236.66 97.2017 235.342 97.4936 234.148C97.7855 232.954 97.9208 232.066 98.049 231.427C98.0964 231.14 98.1391 230.909 98.1771 230.733C98.1985 230.56 98.2127 230.477 98.1985 230.477Z" fill="#263238"/>
<path d="M74.418 322.051C79.6227 319.032 81.1179 309.871 78.9463 304.361C76.7747 298.85 72.9727 293.812 72.3888 287.934C71.9331 283.416 73.4568 278.78 72.3888 274.366C70.9292 268.404 64.9627 263.789 65.0339 257.661C65.0695 254.226 67.0773 250.992 66.9135 247.557C66.7213 243.351 63.4034 240.006 61.3528 236.3C58.2058 230.616 57.9993 223.905 56.9242 217.562C55.8491 211.219 53.3642 204.376 47.5685 201.246C46.7141 206.652 45.2545 210.358 45.7102 217.68C45.8811 220.31 49.0139 225.314 49.4411 231.109C49.6974 234.579 49.8683 238.007 50.089 241.45C50.3097 244.892 50.5233 248.223 51.7551 251.36C52.702 253.768 54.2186 255.954 54.9235 258.439C56.2407 263.109 54.5034 268.155 55.5714 272.902C56.4756 276.913 59.3236 280.362 59.9075 284.429C60.7191 290.141 56.9313 296.081 58.8679 301.529C59.8363 304.236 62.1147 306.387 62.7626 309.198C63.2681 311.363 62.7199 313.66 63.1755 315.832C63.8875 319.344 70.7655 322.078 74.4323 321.849" fill="#018762"/>
<path d="M48.9926 206.582C48.9829 206.684 48.9829 206.786 48.9926 206.887C48.9926 207.116 49.0638 207.408 49.1066 207.776C49.2276 208.56 49.3629 209.705 49.6334 211.19C49.904 212.675 50.7157 214.355 51.3422 216.381C51.9688 218.408 52.6666 220.726 53.2504 223.321C53.8342 225.917 54.3469 228.811 54.8666 231.913C55.3864 235.015 55.956 238.395 57.5366 241.629C58.2486 243.246 59.0888 244.87 59.6726 246.605C60.2709 248.381 60.6392 250.223 60.7691 252.088C61.0602 256.044 61.5712 259.983 62.2999 263.886C63.8948 271.894 65.4114 279.521 66.7926 286.468C68.1739 293.415 69.5623 299.613 70.673 304.859C71.7838 310.106 72.6951 314.298 73.3288 317.254L74.0408 320.62C74.1262 320.981 74.1903 321.266 74.2473 321.488C74.2665 321.589 74.2951 321.689 74.3327 321.786C74.3453 321.685 74.3453 321.582 74.3327 321.481C74.29 321.252 74.2402 320.967 74.1761 320.599C74.0194 319.794 73.7987 318.656 73.521 317.213C72.923 314.249 72.097 310.016 71.0219 304.79C69.9468 299.564 68.6723 293.297 67.2554 286.378C65.8386 279.459 64.4074 271.804 62.8054 263.802C62.0763 259.899 61.5629 255.961 61.2675 252.004C61.132 250.101 60.7517 248.222 60.1354 246.411C59.5018 244.648 58.6687 243.017 57.9354 241.407C56.369 238.221 55.7994 234.897 55.2582 231.809C54.7171 228.721 54.1974 225.82 53.5779 223.21C52.9585 220.601 52.2821 218.269 51.5843 216.27C50.8866 214.272 50.1105 212.578 49.7972 211.128C49.4839 209.677 49.3344 208.511 49.1849 207.741C49.1137 207.38 49.0567 207.089 49.014 206.86C49.0125 206.767 49.0054 206.674 48.9926 206.582Z" fill="#263238"/>
<path d="M103.29 139.758H144.408C144.408 139.758 144.408 106.106 180.285 105.509C198.919 105.19 208.58 117.092 212.511 126.204C217.067 136.787 215.686 148.849 209.577 158.669C202.607 169.877 187.583 181.141 159.872 176.38L159.609 265.677H200.271V212.739C200.271 212.739 257.295 198.373 257.295 137.093C257.295 78.4844 208.673 65.8259 182.535 65.007C167.996 64.5559 162.728 63.9451 144.742 66.4366C121.823 69.629 102.806 95.5707 103.29 139.758Z" fill="#018762"/>
<path d="M200.762 284.291H159.495V321.857H200.762V284.291Z" fill="#018762"/>
<path opacity="0.1" d="M200.762 284.291H159.495V321.857H200.762V284.291Z" fill="black"/>
<path opacity="0.1" d="M103.29 139.758H144.408C144.408 139.758 144.408 106.106 180.285 105.509C198.919 105.19 208.58 117.092 212.511 126.204C217.067 136.787 215.686 148.849 209.577 158.669C202.607 169.877 187.583 181.141 159.872 176.38L159.609 265.677H200.271V212.739C200.271 212.739 257.295 198.373 257.295 137.093C257.295 78.4844 208.673 65.8259 182.535 65.007C167.996 64.5559 162.728 63.9451 144.742 66.4366C121.823 69.629 102.806 95.5707 103.29 139.758Z" fill="black"/>
<path d="M86.2516 139.758H127.377C127.377 139.758 127.377 106.106 163.254 105.509C181.887 105.189 191.549 117.092 195.472 126.204C200.036 136.787 198.655 148.849 192.546 158.669C185.576 169.877 170.289 180.065 142.578 175.325V265.677H183.24V212.739C183.24 212.739 240.264 198.373 240.264 137.093C240.264 78.4843 186.337 64.875 163.262 64.875C145.611 64.8958 85.4755 69.0529 86.2516 139.758Z" fill="#018762"/>
<path opacity="0.3" d="M86.2516 139.758H127.377C127.377 139.758 127.377 106.106 163.254 105.509C181.887 105.189 191.549 117.092 195.472 126.204C200.036 136.787 198.655 148.849 192.546 158.669C185.576 169.877 170.289 180.065 142.578 175.325V265.677H183.24V212.739C183.24 212.739 240.264 198.373 240.264 137.093C240.264 78.4843 186.337 64.875 163.262 64.875C145.611 64.8958 85.4755 69.0529 86.2516 139.758Z" fill="black"/>
<path d="M183.731 284.291H142.463V321.857H183.731V284.291Z" fill="#018762"/>
<path opacity="0.3" d="M183.731 284.291H142.463V321.857H183.731V284.291Z" fill="black"/>
<path d="M167.896 105.688C167.693 105.705 167.488 105.705 167.284 105.688C166.878 105.688 166.294 105.556 165.532 105.549C163.378 105.446 161.219 105.534 159.082 105.813C155.912 106.204 152.793 106.918 149.776 107.943C147.997 108.549 146.265 109.277 144.593 110.122C142.784 111.003 141.082 112.076 139.516 113.322C137.961 114.579 136.567 116.014 135.365 117.597C134.226 119.06 133.186 120.595 132.254 122.191C130.696 124.91 129.462 127.792 128.573 130.783C127.97 132.801 127.555 134.868 127.334 136.959C127.248 137.695 127.227 138.278 127.206 138.666C127.206 138.867 127.187 139.067 127.149 139.263C127.13 139.065 127.13 138.865 127.149 138.666C127.149 138.271 127.149 137.688 127.213 136.945C127.376 134.832 127.756 132.74 128.345 130.699C129.201 127.674 130.42 124.758 131.976 122.01C132.91 120.397 133.955 118.846 135.102 117.368C136.314 115.759 137.725 114.302 139.302 113.03C140.887 111.767 142.611 110.68 144.443 109.789C146.126 108.929 147.87 108.186 149.662 107.568C152.706 106.547 155.855 105.849 159.053 105.486C161.205 105.229 163.378 105.18 165.54 105.341C166.127 105.377 166.712 105.447 167.291 105.549C167.496 105.581 167.698 105.628 167.896 105.688Z" fill="#263238"/>
<path d="M229.855 98.548C229.855 98.548 229.805 98.4994 229.719 98.3953C229.634 98.2912 229.506 98.1107 229.363 97.9095L228.003 96.0357C227.711 95.6332 227.398 95.1682 227.028 94.6893L225.746 93.1695L224.28 91.4136C223.746 90.8029 223.119 90.213 222.492 89.5676C221.866 88.9222 221.225 88.2351 220.499 87.5758C219.773 86.9165 218.997 86.2433 218.199 85.5493C217.8 85.2023 217.409 84.8553 216.982 84.4875L215.657 83.4673C214.753 82.7733 213.856 82.0793 212.88 81.3853C208.629 78.4203 204.119 75.8241 199.402 73.6264L195.65 71.9747L191.926 70.5867C190.709 70.094 189.47 69.747 188.274 69.3583C187.078 68.9697 185.91 68.5741 184.714 68.3034L181.31 67.4359C180.207 67.1514 179.11 66.9779 178.064 66.7419C177.017 66.506 176.006 66.2978 175.016 66.1798L172.168 65.7773C170.367 65.4789 168.715 65.4164 167.277 65.2776C166.565 65.2221 165.853 65.1457 165.262 65.118L163.567 65.0763L161.218 65H160.605H160.399C160.467 64.9896 160.537 64.9896 160.605 65H161.218H163.567H165.269C165.888 65 166.565 65.0833 167.291 65.1319C168.715 65.2498 170.395 65.2984 172.197 65.583L175.045 65.9577C176.034 66.0688 177.045 66.3186 178.099 66.506C179.153 66.6934 180.235 66.8877 181.367 67.2L184.785 68.0605C185.967 68.3243 187.135 68.7545 188.345 69.1085C189.555 69.4624 190.787 69.8025 192.005 70.3299L195.75 71.7179L199.523 73.3766C204.265 75.5792 208.792 78.1947 213.051 81.191C214.034 81.885 214.931 82.6276 215.835 83.3147L217.16 84.2516C217.587 84.5986 217.978 84.9456 218.377 85.3203L220.67 87.4023C221.382 88.0963 222.023 88.7903 222.656 89.4219C223.29 90.0534 223.895 90.671 224.429 91.2887L225.853 93.0584L227.12 94.5991C227.484 95.0849 227.79 95.5568 228.075 95.9871C228.63 96.7991 229.064 97.4375 229.37 97.8956L229.705 98.4022C229.761 98.4443 229.811 98.4933 229.855 98.548Z" fill="#263238"/>
<path d="M225.568 184.604C225.483 184.754 225.381 184.894 225.262 185.02L224.279 186.151C223.873 186.658 223.361 187.262 222.727 187.935C222.093 188.608 221.417 189.399 220.591 190.218C219.765 191.037 218.882 191.953 217.878 192.876C216.875 193.799 215.785 194.771 214.625 195.784C209.534 200.114 203.954 203.865 197.992 206.964C196.611 207.658 195.308 208.352 194.048 208.887C192.788 209.421 191.613 209.969 190.531 210.413C189.448 210.858 188.451 211.225 187.583 211.552C186.714 211.878 185.952 212.141 185.326 212.336L183.902 212.787C183.737 212.851 183.565 212.897 183.389 212.926C183.543 212.84 183.705 212.77 183.873 212.717L185.297 212.204C185.917 211.989 186.664 211.711 187.526 211.364C188.387 211.017 189.384 210.67 190.452 210.177C191.52 209.685 192.702 209.22 193.934 208.616C195.166 208.012 196.483 207.374 197.857 206.673C200.57 205.215 203.496 203.508 206.451 201.537C209.406 199.566 212.061 197.491 214.425 195.534C215.586 194.535 216.697 193.598 217.686 192.654C218.676 191.71 219.601 190.856 220.42 190.038C221.239 189.219 221.958 188.462 222.599 187.796C223.24 187.13 223.767 186.547 224.194 186.061L225.191 184.957C225.306 184.83 225.433 184.711 225.568 184.604Z" fill="#263238"/>
<path d="M182.521 262.527C182.414 262.527 182.329 251.381 182.329 237.633C182.329 223.885 182.414 212.732 182.521 212.732C182.628 212.732 182.706 223.878 182.706 237.633C182.706 251.388 182.621 262.527 182.521 262.527Z" fill="#263238"/>
<path d="M184.087 319.308C183.98 319.308 183.902 311.487 183.902 301.84C183.902 292.194 183.98 284.365 184.087 284.365C184.194 284.365 184.272 292.187 184.272 301.84C184.272 311.494 184.187 319.308 184.087 319.308Z" fill="#263238"/>
<path d="M224.565 134.433C223.853 135.821 226.509 136.959 228.04 137.41C229.601 137.784 231.218 137.892 232.817 137.729C234.953 137.618 237.139 137.424 238.983 136.397C240.598 135.421 241.889 134.011 242.7 132.337C243.499 130.667 244.131 128.927 244.587 127.139C244.587 127.139 227.762 128.207 224.565 134.433Z" fill="#018762"/>
<g opacity="0.4">
<path d="M224.565 134.433C223.853 135.821 226.509 136.959 228.04 137.41C229.601 137.784 231.218 137.892 232.817 137.729C234.953 137.618 237.139 137.424 238.983 136.397C240.598 135.421 241.889 134.011 242.7 132.337C243.499 130.667 244.131 128.927 244.587 127.139C244.587 127.139 227.762 128.207 224.565 134.433Z" fill="black"/>
</g>
<path d="M272.084 129.992C274.857 131.91 278.181 132.925 281.582 132.893C283.212 132.981 284.819 132.488 286.103 131.505C286.651 131.012 287.064 130.387 287.627 129.916C288.011 129.596 288.46 129.353 288.823 129.013C289.015 128.853 289.162 128.648 289.253 128.418C289.344 128.188 289.375 127.939 289.343 127.695C289.202 127.092 288.856 126.554 288.36 126.168C286.431 125.099 284.124 125.141 281.902 125.189C279.679 125.283 277.483 125.702 275.387 126.432C273.664 127.001 271.863 127.82 270.987 129.346" fill="#018762"/>
<g opacity="0.4">
<path d="M289.343 127.697C289.091 127.111 288.648 126.623 288.082 126.309C286.153 125.24 284.124 125.143 281.902 125.191C279.679 125.285 277.483 125.704 275.387 126.434C273.664 127.003 271.863 127.822 270.987 129.348L272.084 129.994C274.857 131.912 278.181 132.927 281.582 132.895C283.212 132.983 284.819 132.49 286.103 131.507C286.651 131.014 287.064 130.389 287.627 129.918C288.011 129.598 288.46 129.355 288.823 129.015C289.015 128.855 289.162 128.65 289.253 128.42C289.344 128.19 289.375 127.941 289.343 127.697Z" fill="black"/>
</g>
<path d="M239.232 154.9L274.725 155.358C274.798 155.357 274.869 155.341 274.933 155.309C274.998 155.277 275.054 155.231 275.097 155.174C275.139 155.118 275.168 155.052 275.18 154.983C275.193 154.913 275.188 154.842 275.167 154.775L271.002 142.116C271.002 142.116 271.614 135.787 272.461 128.181C273.75 116.626 275.466 102.1 275.487 102.142C273.059 95.5071 258.734 94.3828 258.734 94.3828L242.408 95.3267L241.838 94.3897L237.139 96.5203C236.114 96.9851 235.128 97.5281 234.191 98.1443C231.087 100.164 223.611 104.807 222.244 109.977C219.09 121.948 224.43 135.308 224.43 135.308L227.861 132.692C228.726 132.042 229.635 131.451 230.581 130.922L237.459 148.89C237.05 149.141 236.703 149.478 236.445 149.877C236.186 150.276 236.022 150.725 235.964 151.194C235.907 152.651 236.676 154.4 239.232 154.9Z" fill="#018762"/>
<g opacity="0.3">
<path d="M254.462 133.72C255.587 127.821 254.996 121.756 254.391 115.787C252.425 120.645 252.497 126.197 250.411 131.013C250.155 131.522 249.968 132.061 249.855 132.617C249.801 132.896 249.815 133.183 249.897 133.456C249.978 133.729 250.125 133.978 250.325 134.185C250.895 134.692 251.749 134.414 252.504 134.331C253.179 134.205 253.837 134 254.462 133.72Z" fill="black"/>
</g>
<g opacity="0.4">
<path d="M241.368 147.376C244.216 148.34 247.249 146.543 250.261 146.223C252.254 146.015 254.248 146.459 256.227 146.772C260.23 147.403 264.302 147.501 268.331 147.063C268.95 147.03 269.555 146.877 270.111 146.612C270.399 146.421 270.634 146.164 270.797 145.864C270.959 145.564 271.044 145.23 271.044 144.891C264.337 144.197 257.637 143.822 250.93 143.149C249.261 142.871 247.551 142.926 245.903 143.309C243.881 143.919 242.343 145.467 240.919 147.001" fill="black"/>
</g>
<path d="M288.317 125.419C285.42 119.055 275.202 101.455 275.202 101.455L267.292 111.122L269.136 130.103C269.136 130.103 273.316 125.558 284.999 125.467C285.849 125.501 286.679 125.718 287.431 126.105C288.182 126.492 288.836 127.037 289.343 127.702L288.317 125.419Z" fill="#018762"/>
<path d="M240.82 122.053C240.256 120.704 239.808 119.311 239.482 117.889C239.039 116.504 238.715 115.085 238.513 113.648C239.069 115 239.514 116.392 239.845 117.812C240.287 119.198 240.613 120.616 240.82 122.053Z" fill="#263238"/>
<path d="M266.694 109.838C266.952 110.015 267.19 110.218 267.406 110.442C268.035 111.034 268.625 111.664 269.172 112.329C271.013 114.523 272.307 117.103 272.953 119.866C273.288 121.394 273.362 122.965 273.173 124.516C272.995 125.939 272.718 127.188 272.533 128.243C272.347 129.298 272.234 130.158 272.177 130.755C272.175 131.065 272.142 131.374 272.077 131.678C272.026 131.368 272.012 131.054 272.034 130.741C272.066 129.891 272.146 129.043 272.276 128.201C272.426 127.139 272.675 125.876 272.839 124.481C273.003 122.965 272.919 121.433 272.59 119.943C271.952 117.231 270.715 114.687 268.965 112.489C267.662 110.782 266.637 109.893 266.694 109.838Z" fill="#263238"/>
<path d="M259.446 153.372C259.198 153.48 258.937 153.554 258.67 153.594C258.365 153.673 258.056 153.731 257.744 153.768C257.381 153.817 256.968 153.893 256.505 153.914C255.42 154.011 254.329 154.011 253.244 153.914C251.917 153.781 250.606 153.525 249.328 153.15C248.057 152.752 246.827 152.239 245.654 151.617C244.703 151.099 243.8 150.503 242.956 149.833C242.585 149.555 242.286 149.264 242.016 149.021C241.782 148.816 241.561 148.598 241.354 148.369C241.156 148.19 240.985 147.984 240.848 147.758C240.898 147.709 241.66 148.542 243.119 149.632C243.972 150.264 244.874 150.83 245.818 151.325C246.977 151.919 248.188 152.413 249.435 152.803C250.691 153.172 251.977 153.432 253.28 153.581C254.344 153.692 255.415 153.725 256.484 153.678C258.314 153.581 259.431 153.317 259.446 153.372Z" fill="#263238"/>
<path d="M270.403 149.432C270.571 149.745 270.666 150.091 270.681 150.445C270.795 151.291 270.729 152.151 270.489 152.971C270.244 153.81 269.748 154.559 269.065 155.122C268.545 155.546 268.146 155.678 268.125 155.643C268.104 155.608 268.438 155.379 268.887 154.949C269.463 154.364 269.881 153.648 270.104 152.867C270.674 151.035 270.268 149.439 270.403 149.432Z" fill="#263238"/>
<path d="M268.474 151.875C268.628 152.589 268.567 153.331 268.296 154.011C268.026 154.691 267.558 155.28 266.95 155.706C266.872 155.63 267.534 154.942 267.947 153.881C268.36 152.819 268.367 151.882 268.474 151.875Z" fill="#263238"/>
<path d="M262.123 129.041C261.746 129.663 261.322 130.257 260.855 130.818C260.487 131.444 260.071 132.043 259.609 132.608C259.746 131.876 260.069 131.189 260.549 130.609C260.929 129.965 261.47 129.425 262.123 129.041Z" fill="#263238"/>
<path d="M237.759 112.232C237.216 111.921 236.691 111.583 236.185 111.219C233.653 109.597 230.779 108.551 227.776 108.158C227.148 108.113 226.522 108.032 225.904 107.915C226.534 107.83 227.174 107.83 227.805 107.915C230.889 108.172 233.844 109.244 236.349 111.017C236.874 111.357 237.349 111.765 237.759 112.232Z" fill="#263238"/>
<path d="M275.202 101.227C273.928 102.227 272.738 103.324 271.642 104.509C270.634 105.774 269.731 107.115 268.944 108.52C269.028 108.048 269.194 107.593 269.435 107.174C269.951 106.134 270.596 105.159 271.358 104.273C272.121 103.389 272.997 102.603 273.963 101.934C274.331 101.631 274.751 101.391 275.202 101.227Z" fill="#263238"/>
<path d="M260.549 95.5059C260.614 95.606 260.667 95.7131 260.706 95.8251C260.845 96.1394 260.957 96.4644 261.041 96.7967C261.341 98.0335 261.341 99.3214 261.041 100.558C260.597 102.404 259.583 104.074 258.136 105.34C256.308 106.849 253.98 107.658 251.585 107.616C249.188 107.624 246.853 106.877 244.928 105.486C243.394 104.344 242.149 102.874 241.29 101.19C240.711 100.062 240.303 98.8579 240.079 97.6156C240.014 97.281 239.971 96.9425 239.951 96.6024C239.931 96.4829 239.931 96.361 239.951 96.2415C239.951 96.2415 240.029 96.7273 240.229 97.5879C240.506 98.7951 240.944 99.9617 241.532 101.058C242.4 102.692 243.634 104.115 245.142 105.222C246.997 106.561 249.241 107.29 251.55 107.304C253.858 107.345 256.104 106.577 257.879 105.139C259.278 103.919 260.27 102.319 260.727 100.544C261.044 99.3467 261.088 98.0959 260.855 96.88C260.72 95.9639 260.507 95.5197 260.549 95.5059Z" fill="#263238"/>
<g opacity="0.3">
<path d="M263.041 130.272C263.041 129.925 262.984 129.515 262.671 129.342C262.572 129.293 262.462 129.268 262.351 129.268C262.239 129.268 262.13 129.293 262.03 129.342C261.831 129.447 261.655 129.588 261.51 129.758C260.673 130.607 260.026 131.616 259.609 132.722L263.098 132.423C263.077 131.722 263.063 130.987 263.041 130.272Z" fill="black"/>
</g>
<g opacity="0.3">
<path d="M274.626 123.114C274.275 121.168 273.4 119.348 272.091 117.84C273.6 122.642 273.095 125.356 272.247 128.645L272.433 128.187C273.408 126.265 274.889 125.057 274.626 123.114Z" fill="black"/>
</g>
<path d="M267.655 284.442L265.526 315.568L251.642 315.408L249.457 283.047L267.655 284.442Z" fill="#FFBE9D"/>
<path d="M265.918 311.473V312.375C265.918 312.375 281.582 318.51 281.731 321.397L250.624 321.23L251.108 311.146C255.743 313.263 260.592 313.527 265.918 311.473Z" fill="#018762"/>
<path d="M254.262 314.382C253.967 314.469 253.715 314.658 253.552 314.913C253.39 315.169 253.328 315.473 253.379 315.77C253.456 316.066 253.647 316.322 253.912 316.483C254.178 316.645 254.497 316.7 254.803 316.637C255.12 316.545 255.391 316.341 255.562 316.065C255.733 315.789 255.792 315.461 255.729 315.145C255.616 314.845 255.388 314.6 255.093 314.462C254.798 314.323 254.459 314.302 254.148 314.403" fill="white"/>
<path d="M250.624 321.231L250.738 318.809L280.528 319.863C280.528 319.863 281.909 320.46 281.746 321.404L250.624 321.231Z" fill="#263238"/>
<path d="M266.032 312.458C266.032 312.604 265.263 312.666 264.516 313.152C263.768 313.638 263.362 314.242 263.227 314.186C263.092 314.13 263.319 313.27 264.238 312.715C265.156 312.16 266.068 312.298 266.032 312.458Z" fill="#263238"/>
<path d="M269.286 313.791C269.321 313.937 268.659 314.18 268.139 314.804C267.619 315.429 267.47 316.088 267.313 316.081C267.157 316.074 267.071 315.235 267.733 314.478C268.396 313.722 269.278 313.687 269.286 313.791Z" fill="#263238"/>
<path d="M271.116 317.61C270.973 317.61 270.767 316.916 271.165 316.09C271.564 315.264 272.269 314.965 272.333 315.083C272.397 315.201 271.956 315.639 271.621 316.312C271.286 316.985 271.272 317.596 271.116 317.61Z" fill="#263238"/>
<path d="M265.12 56.8027C265.925 54.8595 264.949 52.5068 263.219 51.2507C261.396 50.0807 259.172 49.6592 257.032 50.0778C254.92 50.5094 252.876 51.2093 250.951 52.1598C250.056 51.2801 248.928 50.6601 247.693 50.3691C246.457 50.0782 245.163 50.1277 243.955 50.5121C242.747 50.8965 241.672 51.6007 240.85 52.5461C240.029 53.4915 239.493 54.6408 239.303 55.8658C238.533 55.6769 237.725 55.6959 236.966 55.9208C236.206 56.1456 235.524 56.5678 234.992 57.142C234.459 57.7163 234.098 58.4209 233.946 59.1803C233.793 59.9397 233.856 60.7252 234.127 61.4525L243.753 64.749L254.262 82.793C255.815 84.0845 257.798 84.7812 259.839 84.753C261.88 84.7248 263.841 83.9737 265.356 82.6397C266.871 81.3058 267.837 79.4802 268.072 77.5035C268.308 75.5268 267.798 73.5341 266.637 71.8972C267.226 71.3868 267.726 70.7868 268.118 70.1205C268.957 69.6365 269.69 68.9945 270.273 68.232C270.856 67.4695 271.278 66.6017 271.514 65.6789C272.447 61.6607 269.257 57.2746 265.12 56.8027Z" fill="#263238"/>
<path d="M258.748 94.382C258.15 91.4464 257.737 89.4338 257.744 89.4546C257.751 89.4754 263.44 87.3032 263.027 79.579C262.828 75.7342 261.326 69.6756 259.93 64.7621C258.677 60.3344 254.441 55.4556 249.962 56.8644L236.384 63.3186C235.024 63.7489 234.789 64.9981 235.11 66.3514V67.0454L240.386 88.3234L242.614 97.8312C243.089 99.7835 244.297 101.492 246 102.619C247.702 103.747 249.776 104.213 251.813 103.925C252.926 103.772 253.995 103.399 254.954 102.83C255.914 102.26 256.744 101.505 257.393 100.612C258.042 99.7181 258.498 98.7045 258.731 97.6333C258.964 96.562 258.97 95.4556 258.748 94.382Z" fill="#FFBE9D"/>
<path d="M259.88 69.8998C259.937 70.146 259.895 70.4043 259.763 70.6212C259.63 70.8381 259.417 70.9972 259.168 71.0657C259.042 71.0999 258.911 71.109 258.781 71.0924C258.652 71.0758 258.527 71.0338 258.414 70.9689C258.302 70.9041 258.204 70.8178 258.127 70.7151C258.05 70.6125 257.994 70.4957 257.965 70.3717C257.908 70.1263 257.95 69.8691 258.083 69.6532C258.215 69.4374 258.428 69.2797 258.677 69.2127C258.802 69.1774 258.933 69.1672 259.063 69.183C259.192 69.1987 259.317 69.24 259.43 69.3043C259.542 69.3686 259.64 69.4545 259.718 69.5569C259.795 69.6593 259.85 69.7759 259.88 69.8998Z" fill="#263238"/>
<path d="M259.261 68.4208C259.161 68.5735 258.3 68.1918 257.246 68.4208C256.192 68.6498 255.523 69.316 255.38 69.2119C255.238 69.1078 255.38 68.9135 255.672 68.6082C256.064 68.2047 256.574 67.9285 257.132 67.817C257.683 67.7012 258.257 67.7621 258.77 67.9905C259.168 68.1501 259.304 68.3583 259.261 68.4208Z" fill="#263238"/>
<path d="M249.542 72.1749C249.599 72.4203 249.556 72.6776 249.424 72.8934C249.291 73.1092 249.079 73.2669 248.83 73.3339C248.707 73.3688 248.578 73.3795 248.451 73.3656C248.323 73.3516 248.2 73.3132 248.088 73.2525C247.977 73.1918 247.878 73.1101 247.799 73.0121C247.719 72.9141 247.661 72.8018 247.626 72.6815C247.569 72.4353 247.611 72.1771 247.744 71.9601C247.876 71.7432 248.089 71.5841 248.338 71.5156C248.462 71.4809 248.591 71.4704 248.719 71.4848C248.846 71.4992 248.97 71.5382 249.082 71.5996C249.194 71.661 249.292 71.7434 249.371 71.8422C249.45 71.941 249.508 72.0541 249.542 72.1749Z" fill="#263238"/>
<path d="M249.022 70.8697C248.93 71.0223 248.061 70.6337 247.007 70.8697C245.953 71.1056 245.284 71.758 245.142 71.6608C244.999 71.5637 245.142 71.3624 245.434 71.0501C245.827 70.6502 246.336 70.3767 246.893 70.2659C247.443 70.1519 248.017 70.2101 248.531 70.4324C248.908 70.599 249.072 70.7864 249.022 70.8697Z" fill="#263238"/>
<path d="M254.383 77.3945C254.905 77.1138 255.46 76.8948 256.035 76.7421C256.299 76.6589 256.548 76.5548 256.555 76.3674C256.518 76.0914 256.396 75.8326 256.206 75.6248L254.974 73.7788C253.251 71.1485 251.941 68.9693 252.048 68.9208C252.155 68.8722 253.643 70.9334 255.366 73.5636L256.569 75.4235C256.806 75.7082 256.934 76.0636 256.932 76.4298C256.911 76.5297 256.868 76.6237 256.805 76.7053C256.742 76.7868 256.662 76.8539 256.569 76.9018C256.43 76.9736 256.282 77.0273 256.128 77.0614C255.565 77.2493 254.978 77.3614 254.383 77.3945Z" fill="#263238"/>
<path d="M257.744 89.4538C254.143 90.2472 250.386 90.0502 246.893 88.8848C246.893 88.8848 250.624 93.6317 258.15 91.3623L257.744 89.4538Z" fill="#EB996E"/>
<path d="M249.2 69.3977C249.129 69.6961 248.04 69.6892 246.801 69.9876C245.562 70.286 244.579 70.7371 244.38 70.5012C244.295 70.3901 244.437 70.0987 244.814 69.8072C245.316 69.3955 245.912 69.1075 246.552 68.9674C247.186 68.8207 247.847 68.8207 248.481 68.9674C248.987 69.0577 249.25 69.2589 249.2 69.3977Z" fill="#263238"/>
<path d="M258.855 65.1458C258.684 65.4234 257.773 65.354 256.719 65.5552C255.665 65.7565 254.832 66.1035 254.583 65.9022C254.469 65.7981 254.583 65.5344 254.889 65.2082C255.359 64.8229 255.927 64.5687 256.534 64.4726C257.13 64.3555 257.748 64.3987 258.321 64.5975C258.755 64.7918 258.926 65.007 258.855 65.1458Z" fill="#263238"/>
<path d="M239.737 58.3497C239.895 59.1015 240.22 59.8102 240.691 60.4256C241.161 61.041 241.764 61.5478 242.458 61.9102C243.152 62.2726 243.92 62.4815 244.706 62.5223C245.492 62.563 246.277 62.4345 247.007 62.1459C248.132 61.7017 249.3 60.8689 250.439 61.2714C251.578 61.6739 252.048 63.2563 253.137 63.8462C254.739 64.7206 256.697 63.2077 258.484 63.3604C259.908 63.4783 260.983 64.5402 262.087 65.4424C263.191 66.3446 264.714 67.0247 265.96 66.3723C265.675 65.2134 265.252 64.0908 264.7 63.0272C264.143 61.9566 263.222 61.1078 262.094 60.626C261.468 60.3831 260.791 60.2998 260.193 60.0014C258.904 59.3629 258.328 57.9194 257.395 56.8298C256.782 56.1432 256.011 55.6088 255.144 55.2708C254.277 54.9329 253.34 54.8012 252.411 54.8866C250.873 55.0393 249.413 55.7958 247.861 55.7333C246.715 55.6847 245.618 55.185 244.472 55.2059C242.244 55.2059 240.57 57.1491 239.332 58.9604" fill="#263238"/>
<path d="M247.242 59.9399C246.217 59.8636 244.123 59.6554 243.433 58.9475C242.731 58.1826 241.836 57.6107 240.836 57.2892C239.836 56.9676 238.768 56.9077 237.737 57.1153C236.714 57.4126 235.816 58.0221 235.175 58.8542C234.534 59.6863 234.184 60.6969 234.177 61.7374C232.931 62.0337 231.791 62.6525 230.876 63.5283C229.961 64.4042 229.306 65.5046 228.979 66.7134C228.648 67.9788 228.637 69.3037 228.947 70.5742C229.257 71.8448 229.879 73.0229 230.759 74.0073C231.187 74.5286 231.577 75.0782 231.927 75.6521C231.444 76.2359 231.02 76.8633 230.66 77.5259C229.029 81.0375 233.451 82.3839 233.451 82.3839C233.451 84.7435 235.693 84.7296 237.125 84.7227C238.556 84.7157 239.346 88.4425 240.464 88.2968L239.332 76.7972C239.498 76.86 239.674 76.8929 239.851 76.8943C242.55 76.9429 241.845 71.96 240.976 70.6483C241.78 69.6728 242.459 68.6054 242.999 67.4698C243.487 65.7338 243.522 63.906 243.098 62.1538C244.002 62.0427 247.683 59.9677 247.242 59.9399Z" fill="#263238"/>
<path d="M239.688 77.408C239.596 77.0426 239.41 76.7059 239.149 76.4292C238.887 76.1525 238.558 75.9449 238.192 75.8257C237.826 75.7065 237.435 75.6796 237.055 75.7476C236.676 75.8156 236.32 75.9761 236.021 76.2143C235.309 76.8112 234.932 77.8105 235.359 79.4831C236.512 83.9524 240.877 81.9051 240.848 81.7802C240.82 81.6553 240.186 79.2541 239.688 77.408Z" fill="#FFBE9D"/>
<path d="M239.011 80.427C239.011 80.427 238.947 80.5033 238.826 80.5936C238.658 80.7194 238.446 80.7766 238.235 80.7532C237.709 80.6977 237.103 80.0592 236.875 79.2472C236.767 78.8678 236.745 78.4698 236.811 78.0813C236.819 77.9304 236.863 77.7834 236.941 77.6529C237.019 77.5223 237.129 77.4122 237.26 77.3318C237.346 77.2863 237.446 77.2719 237.543 77.2909C237.639 77.3099 237.725 77.3612 237.787 77.4359C237.879 77.54 237.872 77.6371 237.901 77.6441C237.929 77.651 237.979 77.54 237.901 77.3665C237.846 77.2636 237.759 77.1807 237.652 77.1305C237.501 77.0711 237.332 77.0711 237.182 77.1305C237.003 77.2133 236.848 77.3387 236.733 77.4952C236.617 77.6518 236.544 77.8342 236.519 78.0258C236.427 78.4628 236.444 78.9151 236.569 79.3444C236.649 79.7474 236.849 80.1185 237.144 80.4111C237.439 80.7038 237.816 80.9049 238.228 80.9891C238.362 80.9944 238.496 80.9704 238.619 80.9187C238.742 80.8671 238.852 80.7892 238.94 80.6907C239.033 80.538 239.033 80.4339 239.011 80.427Z" fill="#EB996E"/>
<path d="M264.273 71.1687C264.273 71.1687 264.693 70.8564 265.277 70.1624C266.083 69.1624 266.577 67.9581 266.701 66.6924C266.795 65.8284 266.708 64.9547 266.445 64.1246C266.141 63.1724 265.577 62.3185 264.814 61.654C263.933 60.9042 262.867 60.3919 261.72 60.1679C260.574 59.9439 259.387 60.016 258.278 60.377C258.064 60.4464 257.865 60.5505 257.666 60.6338C257.466 60.7171 257.288 60.842 257.103 60.9461L256.818 61.0988V60.7934C256.812 60.2558 256.608 59.7384 256.242 59.336C255.867 58.9455 255.407 58.6419 254.896 58.4477C253.929 58.0549 252.858 57.977 251.842 58.2256C249.876 58.6628 248.21 59.5373 246.637 59.7177C245.403 59.9267 244.133 59.6792 243.077 59.0237C242.798 58.8367 242.557 58.6015 242.365 58.3297C242.251 58.1423 242.194 58.0382 242.208 58.0313C242.466 58.374 242.781 58.6719 243.141 58.9127C244.18 59.4975 245.402 59.6971 246.58 59.4748C247.4 59.3244 248.201 59.0919 248.972 58.7808C249.877 58.4282 250.805 58.1338 251.749 57.8994C252.275 57.7753 252.817 57.7216 253.358 57.7398C253.929 57.7692 254.491 57.8961 255.017 58.1146C255.562 58.3413 256.048 58.6826 256.441 59.1139C256.862 59.5837 257.099 60.1835 257.11 60.8073L256.826 60.6546L257.417 60.3215C257.637 60.2382 257.844 60.1272 258.072 60.0508C259.241 59.6606 260.495 59.579 261.706 59.8142C262.918 60.0495 264.044 60.5932 264.971 61.3902C265.772 62.0969 266.358 63.0043 266.665 64.0136C266.985 65.0832 267.028 66.2133 266.791 67.3031C266.553 68.3929 266.043 69.4086 265.305 70.2596C265.071 70.5204 264.806 70.7533 264.515 70.9536C264.444 71.0346 264.362 71.1068 264.273 71.1687Z" fill="#455A64"/>
<path d="M263.347 55.4771C262.88 55.2458 262.381 55.0799 261.866 54.9843C261.278 54.9059 260.678 54.9605 260.115 55.1439C259.385 55.3616 258.751 55.8111 258.313 56.4209L258.135 56.6638L258.029 56.3862C257.657 55.5331 257.058 54.792 256.295 54.2394C255.532 53.6868 254.631 53.3426 253.685 53.2424C252.201 53.1879 250.737 53.6017 249.513 54.4222C248.47 55.0849 247.361 55.643 246.202 56.0878C245.404 56.3822 244.543 56.4823 243.696 56.3793C243.47 56.3386 243.249 56.2782 243.034 56.1988C242.891 56.1364 242.813 56.1017 242.82 56.0878C242.827 56.0739 243.141 56.178 243.717 56.2335C244.536 56.2834 245.357 56.1529 246.117 55.8518C247.243 55.3733 248.322 54.7973 249.342 54.1307C249.972 53.7493 250.64 53.4308 251.336 53.1799C252.101 52.9081 252.918 52.8062 253.728 52.8815C254.738 52.989 255.699 53.3613 256.509 53.9589C257.319 54.5565 257.947 55.357 258.328 56.2752H258.05C258.54 55.623 259.239 55.1491 260.036 54.9288C260.643 54.7575 261.281 54.7266 261.902 54.8386C262.295 54.9113 262.671 55.0523 263.013 55.255C263.134 55.3131 263.247 55.3879 263.347 55.4771Z" fill="#455A64"/>
<path d="M253.971 79.4487C253.804 79.3132 253.611 79.2134 253.402 79.156C253.193 79.0986 252.975 79.0848 252.76 79.1156C252.509 79.1678 252.273 79.2707 252.065 79.4178C251.858 79.5648 251.685 79.7527 251.557 79.9692C251.557 79.9692 251.521 80.0039 251.514 80.0247C251.416 80.1832 251.371 80.3676 251.386 80.5522C251.417 80.7532 251.498 80.9437 251.622 81.1071C251.746 81.2704 251.91 81.4016 252.098 81.489C252.399 81.6378 252.74 81.6922 253.074 81.645C253.407 81.5978 253.718 81.4512 253.963 81.2253C254.196 80.9856 254.327 80.6684 254.328 80.3384C254.329 80.0083 254.201 79.6902 253.971 79.4487Z" fill="#018762"/>
<path d="M254.327 81.6061C254.27 81.6061 254.206 81.3979 254.013 81.1134C253.782 80.7319 253.436 80.4289 253.022 80.2452C252.608 80.0615 252.147 80.006 251.699 80.0863C251.351 80.1348 251.137 80.232 251.116 80.1834C251.094 80.1348 251.258 79.9683 251.642 79.8364C252.146 79.6786 252.691 79.7082 253.173 79.9197C253.66 80.1308 254.045 80.5158 254.248 80.9954C254.398 81.3563 254.377 81.5992 254.327 81.6061Z" fill="#263238"/>
<path d="M239.795 82.4669C239.795 82.4669 240.001 82.8139 239.731 83.3413C239.578 83.657 239.308 83.9048 238.976 84.0353C238.769 84.1077 238.547 84.1322 238.328 84.1069C238.11 84.0816 237.9 84.0072 237.716 83.8896C237.528 83.7786 237.37 83.6269 237.253 83.4463C237.135 83.2657 237.062 83.0612 237.039 82.8486C237.018 82.5058 237.121 82.1666 237.331 81.8909C237.702 81.4329 238.115 81.419 238.115 81.4606C238.115 81.5022 237.801 81.6202 237.552 82.0366C237.408 82.2699 237.348 82.5435 237.381 82.8139C237.408 82.9723 237.469 83.1232 237.561 83.2562C237.654 83.3892 237.774 83.5011 237.915 83.5843C238.054 83.6709 238.21 83.7281 238.373 83.752C238.537 83.7759 238.703 83.766 238.862 83.7231C239.125 83.6313 239.352 83.4614 239.51 83.2373C239.788 82.807 239.738 82.4669 239.795 82.4669Z" fill="#018762"/>
<path d="M237.395 82.196C237.431 82.196 237.395 82.432 237.061 82.5847C236.896 82.6513 236.716 82.6706 236.54 82.6404C236.365 82.6102 236.202 82.5317 236.071 82.4142C235.94 82.2967 235.846 82.1451 235.801 81.9773C235.755 81.8095 235.76 81.6326 235.815 81.4673C235.884 81.2796 236.017 81.1206 236.192 81.0162C236.484 80.8427 236.705 80.9121 236.698 80.9538C236.69 80.9954 236.527 81.044 236.349 81.2175C236.261 81.3241 236.208 81.4536 236.195 81.5897C236.183 81.7258 236.212 81.8624 236.279 81.9825C236.346 82.1025 236.447 82.2006 236.571 82.2646C236.695 82.3285 236.836 82.3553 236.975 82.3418C237.217 82.2932 237.345 82.1683 237.395 82.196Z" fill="#018762"/>
<path d="M245.22 143.832C245.22 143.832 262.849 144.831 273.273 144.922C281.34 144.998 284.942 142.909 286.551 137.85C287.904 133.609 284.999 125.469 284.999 125.469C279.538 125.469 276.17 126.232 272.66 127.835L273.593 131.555L245.17 133.942L245.22 143.832Z" fill="#FFBE9D"/>
<path d="M279.517 135.522C278.752 134.553 277.859 133.687 276.861 132.947C275.79 132.308 274.636 131.814 273.429 131.476C273.809 131.423 274.197 131.456 274.561 131.573C275.457 131.779 276.307 132.144 277.068 132.649C277.83 133.155 278.489 133.795 279.011 134.536C279.41 135.105 279.56 135.501 279.517 135.522Z" fill="#EB996E"/>
<path d="M238.77 127.806C238.77 127.806 233.316 129.083 229.307 131.692L233.579 142.977C235.003 146.683 239.353 148.529 242.835 146.586C248.196 143.594 250.09 134.878 250.09 134.878L255.979 109.977L246.217 104.016L238.805 127.806" fill="#FFBE9D"/>
<path d="M246.181 104.015L246.58 95.8254L244.394 87.4974C244.273 87.0394 244.216 86.4633 244.6 86.1857C244.791 86.0432 245.026 85.9695 245.267 85.9771C245.507 85.9847 245.737 86.0731 245.918 86.2274C246.509 86.8242 249.357 94.1043 249.357 94.1043C249.357 94.1043 253.678 91.5781 254.447 91.4532C255.216 91.3283 256.177 93.5977 256.242 93.7712C256.27 94.2797 256.27 94.7894 256.242 95.298C256.242 95.298 258.912 95.3743 259.154 95.7282C259.348 96.4513 259.451 97.1947 259.46 97.9421C259.46 97.9421 260.592 98.296 260.77 99.1288C260.948 99.9616 261.318 101.336 260.77 101.641C260.222 101.946 259.111 102.543 259.111 102.543C259.111 102.543 258.662 106.791 258.541 107.179C258.42 107.568 255.921 109.955 255.921 109.955L246.181 104.015Z" fill="#FFBE9D"/>
<path d="M237.096 146.753C237.096 146.753 237.359 146.906 237.914 147.079C238.727 147.328 239.586 147.394 240.428 147.273C241.781 147.085 243.048 146.516 244.073 145.636C245.429 144.437 246.573 143.031 247.462 141.472C247.986 140.555 248.427 139.596 248.78 138.605C249.15 137.515 249.457 136.405 249.698 135.281C250.253 132.942 250.859 130.423 251.499 127.744C252.781 122.394 254.219 116.411 255.771 109.964V109.915H255.807C256.298 109.444 256.79 108.965 257.281 108.465C257.523 108.215 257.765 107.965 257.993 107.709C258.107 107.577 258.228 107.445 258.32 107.313C258.392 107.182 258.434 107.038 258.441 106.89C258.634 105.502 258.783 104.065 258.94 102.615V102.524L259.025 102.483L260.385 101.74C260.485 101.678 260.642 101.608 260.706 101.553C260.774 101.493 260.819 101.412 260.834 101.324C260.867 101.094 260.867 100.86 260.834 100.63C260.765 100.121 260.658 99.6175 260.513 99.1238C260.271 98.6921 259.865 98.3705 259.381 98.2285L259.26 98.1869V98.0689C259.26 97.6664 259.218 97.25 259.168 96.8405C259.148 96.6354 259.117 96.4316 259.075 96.2298C259.059 96.1409 259.03 96.0545 258.99 95.973C258.99 95.9244 258.99 95.973 258.947 95.9314C258.908 95.9116 258.868 95.8953 258.826 95.8828C257.97 95.7009 257.096 95.6056 256.22 95.5983H256.035V95.4178C256.035 94.9875 256.035 94.5087 256.035 94.0298C256.006 93.8665 255.948 93.7092 255.864 93.5648C255.793 93.3983 255.707 93.2387 255.622 93.0721C255.455 92.7506 255.26 92.4441 255.038 92.156C254.937 92.0218 254.815 91.9045 254.675 91.809C254.623 91.7665 254.56 91.7398 254.493 91.7324C254.426 91.725 254.358 91.7372 254.298 91.7674C253.953 91.896 253.618 92.0467 253.294 92.2185C251.969 92.9125 250.674 93.6065 249.406 94.356L249.221 94.467L249.143 94.2727C248.473 92.6279 247.804 91.004 247.149 89.4147C246.822 88.6166 246.501 87.8185 246.174 87.0343C246.123 86.8586 246.023 86.7003 245.884 86.5776C245.746 86.4549 245.575 86.3726 245.39 86.3403C245.22 86.2852 245.036 86.2882 244.868 86.3488C244.7 86.4093 244.558 86.5238 244.465 86.6734C244.376 86.8223 244.339 86.995 244.358 87.1662C244.358 87.3188 244.458 87.5548 244.5 87.7422C244.614 88.1447 244.721 88.5403 244.828 88.9358C245.042 89.7339 245.248 90.5182 245.462 91.2955C245.879 92.8593 246.29 94.3861 246.693 95.8758V95.9244C246.551 98.7745 246.416 101.504 246.288 104.114V104.1L239.801 124.67L237.971 130.395C237.758 131.041 237.594 131.547 237.48 131.901C237.366 132.255 237.295 132.408 237.295 132.408C237.295 132.408 237.331 132.228 237.43 131.888L237.879 130.368C238.292 129.028 238.883 127.092 239.63 124.621C241.168 119.652 243.354 112.56 245.996 104.01V104.044C246.119 101.444 246.245 98.7143 246.373 95.855V95.9036C245.967 94.4115 245.547 92.8847 245.127 91.3302L244.486 88.9706C244.379 88.575 244.273 88.1725 244.159 87.7769C244.097 87.5691 244.048 87.3583 244.009 87.1453C243.983 86.9044 244.035 86.6616 244.159 86.4513C244.291 86.2349 244.494 86.0685 244.735 85.9794C244.974 85.9112 245.227 85.9035 245.47 85.9569C245.713 86.0104 245.938 86.1232 246.124 86.2848C246.303 86.4482 246.435 86.6537 246.508 86.8816L247.484 89.262C248.146 90.8582 248.808 92.4822 249.484 94.12L249.221 94.0298C250.496 93.2942 251.777 92.5585 253.13 91.8715C253.472 91.6973 253.824 91.542 254.184 91.4065C254.296 91.3609 254.419 91.3442 254.54 91.3579C254.662 91.3751 254.778 91.4177 254.881 91.4828C255.053 91.6027 255.204 91.7479 255.33 91.9131C255.568 92.2168 255.776 92.5422 255.949 92.8847C256.042 93.0582 256.127 93.2248 256.206 93.3983C256.307 93.582 256.375 93.7817 256.405 93.9882C256.405 94.4809 256.405 94.9389 256.405 95.3762L256.227 95.1888C257.142 95.1948 258.054 95.2972 258.947 95.4942C259.008 95.515 259.068 95.5405 259.125 95.5705C259.203 95.612 259.268 95.6747 259.31 95.7509C259.365 95.8636 259.406 95.9825 259.431 96.1049C259.474 96.3269 259.502 96.5352 259.531 96.7503C259.574 97.1736 259.602 97.59 259.623 98.0064L259.495 97.8399C259.786 97.9231 260.057 98.0633 260.291 98.2518C260.525 98.4403 260.717 98.6732 260.855 98.9364C261.011 99.4638 261.125 100.002 261.197 100.546C261.246 100.824 261.246 101.108 261.197 101.386C261.166 101.555 261.075 101.707 260.941 101.816C260.824 101.893 260.703 101.962 260.577 102.025L259.225 102.712L259.317 102.58C259.153 104.03 259.004 105.453 258.805 106.862L258.762 107.133C258.745 107.242 258.699 107.345 258.627 107.431C258.522 107.583 258.405 107.727 258.278 107.861C258.036 108.125 257.794 108.382 257.566 108.632C257.074 109.131 256.583 109.61 256.085 110.082L256.135 109.999C254.568 116.439 253.116 122.421 251.813 127.772C251.165 130.444 250.545 132.963 249.976 135.295C249.732 136.428 249.418 137.545 249.036 138.64C248.67 139.64 248.217 140.608 247.683 141.534C246.774 143.113 245.602 144.534 244.216 145.74C243.16 146.626 241.86 147.191 240.478 147.364C239.617 147.476 238.742 147.391 237.922 147.114C237.713 147.039 237.511 146.949 237.316 146.843L237.096 146.753Z" fill="#EB996E"/>
<path d="M256.249 95.3189C256.249 95.3675 256.007 95.3952 255.629 95.4091C255.15 95.418 254.673 95.4738 254.205 95.5757C253.754 95.6838 253.338 95.901 252.995 96.2072C252.739 96.4432 252.625 96.6444 252.568 96.6236C252.511 96.6028 252.568 96.353 252.803 96.0337C253.134 95.6296 253.596 95.346 254.113 95.2287C254.611 95.109 255.129 95.0854 255.637 95.1593C256.021 95.2079 256.249 95.2703 256.249 95.3189Z" fill="#EB996E"/>
<path d="M254.184 95.3961C254.091 95.3614 254.084 95.1463 254.184 94.9173C254.284 94.6883 254.426 94.5286 254.519 94.5633C254.611 94.598 254.625 94.8132 254.519 95.0422C254.412 95.2712 254.255 95.4308 254.184 95.3961Z" fill="#EB996E"/>
<path d="M259.581 97.9156C258.89 98.124 258.168 98.2201 257.445 98.2001C257.217 98.1927 256.991 98.2386 256.785 98.334C256.58 98.4294 256.4 98.5715 256.263 98.7484C256.078 99.0329 256.142 99.2689 256.085 99.2827C256.028 99.2966 255.857 99.0537 256.035 98.6373C256.133 98.4029 256.312 98.209 256.54 98.0891C256.804 97.9481 257.095 97.863 257.395 97.8392C258.122 97.7307 258.863 97.7566 259.581 97.9156Z" fill="#EB996E"/>
<path d="M259.111 100.414C259.211 100.414 259.268 100.928 259.239 101.559C259.211 102.191 259.104 102.69 259.004 102.69C258.905 102.69 258.841 102.17 258.869 101.538C258.898 100.907 259.004 100.407 259.111 100.414Z" fill="#EB996E"/>
<path d="M262.066 119.104L262.7 116.981C262.729 116.883 262.783 116.795 262.858 116.725C262.932 116.654 263.024 116.604 263.125 116.579C263.226 116.554 263.331 116.554 263.431 116.581C263.532 116.608 263.623 116.659 263.696 116.731L264.529 117.557L265.042 115.551C265.072 115.435 265.138 115.331 265.231 115.253C265.324 115.175 265.439 115.126 265.561 115.114C265.683 115.102 265.806 115.127 265.913 115.185C266.02 115.243 266.106 115.332 266.16 115.44L267.32 117.813L262.066 119.104Z" fill="white"/>
<path d="M267.335 118.721C266.538 119.096 265.692 119.362 264.821 119.512C263.979 119.78 263.101 119.93 262.215 119.956C263.855 119.314 265.578 118.898 267.335 118.721Z" fill="white"/>
<path d="M224.992 106.875C224.992 106.875 224.729 107.139 224.359 107.701C223.862 108.501 223.535 109.391 223.397 110.317C223.194 111.696 223.151 113.093 223.269 114.481C223.348 116.057 223.476 117.778 223.675 119.582C224.012 122.664 224.514 125.726 225.177 128.757C225.427 129.923 225.654 130.839 225.811 131.533C225.882 131.824 225.946 132.067 225.996 132.275C226.046 132.484 226.053 132.539 226.053 132.539C226.053 132.539 226.018 132.456 225.968 132.289C225.918 132.123 225.84 131.831 225.761 131.547C225.583 130.901 225.341 129.971 225.049 128.805C224.357 125.776 223.841 122.71 223.504 119.624C223.305 117.819 223.184 116.091 223.113 114.516C223.005 113.127 223.057 111.73 223.269 110.352C223.422 109.414 223.771 108.516 224.294 107.715C224.487 107.406 224.722 107.123 224.992 106.875Z" fill="white"/>
<path d="M239.98 97.4232L239.816 97.5065L239.346 97.7285C238.94 97.9159 238.349 98.1935 237.644 98.5752C235.807 99.5741 234.022 100.663 232.297 101.837C230.261 103.225 228.46 104.488 227.142 105.404L225.583 106.48L225.149 106.764C225.1 106.802 225.048 106.835 224.992 106.862C225.033 106.815 225.081 106.775 225.135 106.744L225.548 106.438L227.078 105.321C228.381 104.384 230.176 103.079 232.212 101.719C233.94 100.54 235.737 99.4599 237.595 98.485C238.307 98.1172 238.905 97.8535 239.325 97.68L239.802 97.4856C239.944 97.4371 239.944 97.4162 239.98 97.4232Z" fill="white"/>
<path d="M273.935 101.939C273.89 101.915 273.849 101.885 273.814 101.849L273.493 101.578C273.096 101.252 272.68 100.948 272.247 100.669C270.802 99.7708 269.268 99.0152 267.669 98.4136C266.075 97.798 264.447 97.2698 262.792 96.8313C262.151 96.6578 261.638 96.5328 261.275 96.4496L260.869 96.3455C260.82 96.3355 260.772 96.3192 260.727 96.2969H260.877L261.29 96.3732C261.653 96.4426 262.172 96.5537 262.813 96.7133C264.484 97.1243 266.125 97.6413 267.726 98.2609C269.334 98.8624 270.87 99.6351 272.304 100.565C272.901 100.959 273.448 101.42 273.935 101.939Z" fill="white"/>
<path d="M240.179 154.913C240.082 154.896 239.989 154.866 239.901 154.823C239.654 154.717 239.416 154.591 239.189 154.448C238.806 154.224 238.471 153.928 238.205 153.578C237.938 153.228 237.745 152.83 237.637 152.408C237.441 151.554 237.539 150.662 237.915 149.868C238.023 149.621 238.162 149.388 238.328 149.174C238.441 149.028 238.52 148.958 238.527 148.965C238.333 149.261 238.159 149.57 238.007 149.888C237.676 150.668 237.599 151.528 237.786 152.352C237.99 153.166 238.498 153.876 239.21 154.344C239.801 154.76 240.193 154.885 240.179 154.913Z" fill="white"/>
<path d="M237.915 147.398C238.066 147.674 238.179 147.968 238.25 148.273C238.361 148.565 238.428 148.871 238.449 149.182C238.287 148.913 238.172 148.62 238.107 148.315C237.991 148.022 237.926 147.712 237.915 147.398Z" fill="white"/>
<path d="M247.541 303L269.257 302.896L268.866 229.714L268.659 155.268L239.232 154.9L233.942 164.616C231.778 168.522 230.398 172.795 229.877 177.206C229.521 180.578 232.112 191.544 233.009 194.32L241.105 219.345L247.541 303Z" fill="#263238"/>
<path d="M275.031 155.356L298.898 218.767C300.312 222.853 300.781 227.193 300.273 231.476C299.765 235.759 298.291 239.88 295.957 243.543L268.246 296.287L252.667 277.285L275.85 230.093L255.416 197.787L258.855 155.453L268.481 155.301L275.031 155.356Z" fill="#263238"/>
<path d="M266.68 176.602C266.68 176.602 266.68 176.713 266.68 176.928C266.68 177.143 266.715 177.476 266.744 177.885C266.794 178.739 266.858 179.967 266.943 181.557C267.107 184.77 267.335 189.385 267.655 195.083C267.976 200.781 268.246 207.575 268.602 215.139C268.773 218.915 268.958 222.877 269.143 226.986C269.279 229.068 269.222 231.15 269.243 233.232C269.264 235.314 269.243 237.507 269.243 239.686C269.243 257.126 269.3 272.915 269.321 284.359C269.321 290.064 269.321 294.686 269.321 297.899C269.321 299.488 269.321 300.723 269.321 301.584C269.321 301.987 269.321 302.278 269.321 302.542C269.321 302.805 269.321 302.868 269.321 302.868C269.321 302.868 269.321 302.757 269.321 302.542V301.584C269.321 300.723 269.321 299.502 269.279 297.899C269.279 294.686 269.222 290.071 269.179 284.366C269.129 272.922 269.065 257.133 268.994 239.693C268.994 237.514 268.994 235.363 268.994 233.239C268.994 231.115 269.036 229.019 268.901 226.993C268.723 222.891 268.545 218.929 268.381 215.153C268.054 207.603 267.755 200.808 267.513 195.09C267.271 189.371 267.093 184.777 266.957 181.564C266.9 179.981 266.858 178.746 266.829 177.885C266.829 177.476 266.829 177.191 266.829 176.928C266.829 176.664 266.68 176.602 266.68 176.602Z" fill="#455A64"/>
<path d="M266.131 156.607C266.215 156.831 266.265 157.064 266.281 157.301C266.359 157.746 266.445 158.391 266.544 159.196C266.729 160.799 266.929 163.027 267.043 165.491C267.157 167.954 267.164 170.189 267.128 171.806C267.128 172.611 267.078 173.27 267.043 173.721C267.05 173.956 267.021 174.19 266.957 174.415C266.868 173.549 266.837 172.677 266.865 171.806C266.865 170.189 266.786 167.968 266.673 165.504C266.559 163.041 266.402 160.827 266.281 159.258C266.18 158.378 266.13 157.493 266.131 156.607Z" fill="#455A64"/>
<path d="M261.347 158.037C261.383 158.085 260.977 158.266 260.863 158.828C260.831 158.98 260.84 159.138 260.888 159.287C260.937 159.435 261.024 159.569 261.141 159.675C261.282 159.802 261.457 159.888 261.646 159.921C261.836 159.954 262.031 159.934 262.209 159.862C262.379 159.776 262.522 159.646 262.62 159.485C262.718 159.324 262.768 159.14 262.764 158.953C262.757 158.798 262.71 158.646 262.627 158.514C262.543 158.382 262.426 158.272 262.287 158.196C261.997 158.06 261.674 158.004 261.354 158.037C261.354 158.037 261.425 157.947 261.611 157.891C261.878 157.828 262.159 157.854 262.408 157.967C262.607 158.048 262.779 158.181 262.904 158.351C263.03 158.522 263.105 158.723 263.12 158.932C263.148 159.19 263.093 159.451 262.961 159.677C262.829 159.903 262.628 160.083 262.386 160.192C262.144 160.301 261.873 160.333 261.611 160.283C261.35 160.234 261.11 160.106 260.927 159.918C260.776 159.771 260.668 159.587 260.617 159.385C260.566 159.183 260.572 158.971 260.635 158.772C260.707 158.513 260.868 158.285 261.091 158.127C261.233 158.03 261.34 158.016 261.347 158.037Z" fill="#455A64"/>
<path d="M249.955 156.781C250.06 157 250.125 157.235 250.147 157.475C250.261 158.098 250.283 158.734 250.211 159.363C250.109 160.299 249.831 161.21 249.392 162.049C248.862 163.092 248.077 163.993 247.106 164.672C246.135 165.351 245.008 165.787 243.824 165.942C242.877 166.08 241.911 166.045 240.976 165.838C240.344 165.704 239.735 165.482 239.168 165.179C238.953 165.08 238.756 164.949 238.584 164.79C239.371 165.135 240.192 165.403 241.033 165.588C242.046 165.793 243.091 165.792 244.103 165.583C245.115 165.375 246.072 164.964 246.913 164.377C247.754 163.791 248.461 163.04 248.989 162.173C249.518 161.307 249.856 160.343 249.983 159.342C250.067 158.49 250.057 157.631 249.955 156.781Z" fill="#455A64"/>
<path d="M277.894 162.86C277.429 162.912 276.958 162.857 276.519 162.7C275.444 162.37 274.478 161.766 273.721 160.951C272.958 160.14 272.434 159.142 272.205 158.064C272.093 157.624 272.093 157.164 272.205 156.725C272.269 156.725 272.276 157.231 272.49 158.009C272.778 159.013 273.303 159.938 274.022 160.71C274.741 161.482 275.636 162.08 276.633 162.457C277.374 162.742 277.901 162.79 277.894 162.86Z" fill="#455A64"/>
<path d="M286.373 231.22C286.016 231.616 285.59 231.948 285.113 232.198C284.613 232.507 284.068 232.741 283.497 232.892C282.778 233.078 282.019 233.059 281.311 232.837C280.067 232.379 279.002 231.554 278.264 230.477C277.925 230.072 277.644 229.624 277.431 229.145C277.815 229.502 278.163 229.895 278.47 230.317C279.226 231.295 280.247 232.047 281.418 232.49C282.015 232.645 282.639 232.68 283.251 232.593C283.863 232.506 284.451 232.299 284.978 231.983C285.428 231.703 285.894 231.448 286.373 231.22Z" fill="#455A64"/>
<path d="M280.934 235.265C280.092 234.416 279.341 233.485 278.691 232.489C277.942 231.561 277.289 230.564 276.74 229.512C277.587 230.358 278.341 231.288 278.99 232.288C279.745 233.21 280.396 234.208 280.934 235.265Z" fill="#455A64"/>
<path d="M244.451 179.052C244.351 179.087 244.102 178.691 243.881 178.157C243.661 177.623 243.568 177.172 243.661 177.13C243.753 177.088 244.01 177.491 244.223 178.025C244.437 178.56 244.544 179.052 244.451 179.052Z" fill="#FAFAFA"/>
<path d="M258.235 180.981C258.129 180.981 258.05 180.641 258.05 180.218C258.05 179.794 258.129 179.447 258.235 179.447C258.342 179.447 258.421 179.794 258.421 180.218C258.421 180.641 258.335 180.981 258.235 180.981Z" fill="#FAFAFA"/>
<path d="M252.568 188.282C252.468 188.282 252.354 187.865 252.318 187.331C252.283 186.797 252.318 186.366 252.432 186.359C252.546 186.353 252.653 186.776 252.689 187.31C252.724 187.845 252.667 188.275 252.568 188.282Z" fill="#FAFAFA"/>
<path d="M242.215 193.626C242.13 193.689 241.838 193.432 241.453 193.168C241.069 192.905 240.741 192.703 240.741 192.606C240.741 192.509 241.211 192.565 241.645 192.87C242.08 193.175 242.3 193.626 242.215 193.626Z" fill="#FAFAFA"/>
<path d="M260.464 200.434C260.378 200.379 260.464 200.08 260.706 199.74C260.948 199.4 261.169 199.206 261.254 199.261C261.34 199.317 261.254 199.622 261.012 199.955C260.77 200.288 260.549 200.49 260.464 200.434Z" fill="#FAFAFA"/>
<path d="M249.2 202.354C249.1 202.354 249.015 201.778 249.015 201.077C249.015 200.376 249.1 199.793 249.2 199.793C249.299 199.793 249.385 200.369 249.385 201.077C249.385 201.785 249.278 202.354 249.2 202.354Z" fill="#FAFAFA"/>
<path d="M245.512 210.142C245.455 210.219 245.085 210.059 244.686 209.775C244.287 209.49 243.974 209.199 244.067 209.115C244.159 209.032 244.501 209.199 244.9 209.483C245.298 209.768 245.576 210.059 245.512 210.142Z" fill="#FAFAFA"/>
<path d="M256.918 212.848C256.961 212.939 256.733 213.126 256.406 213.272C256.078 213.417 255.779 213.452 255.736 213.362C255.694 213.272 255.929 213.084 256.256 212.939C256.584 212.793 256.883 212.758 256.918 212.848Z" fill="#FAFAFA"/>
<path d="M249.2 225.55C249.114 225.591 248.744 225.057 248.381 224.349C248.018 223.641 247.797 223.03 247.89 222.961C247.982 222.891 248.353 223.454 248.709 224.162C249.065 224.869 249.264 225.473 249.2 225.55Z" fill="#FAFAFA"/>
<path d="M261.781 224.368C261.689 224.319 261.852 223.854 262.137 223.32C262.422 222.786 262.742 222.397 262.849 222.446C262.956 222.494 262.778 222.959 262.486 223.493C262.194 224.028 261.867 224.416 261.781 224.368Z" fill="#FAFAFA"/>
<path d="M256.263 235.119C256.156 235.119 256.17 234.557 256.056 233.904C255.943 233.252 255.772 232.732 255.871 232.683C255.971 232.634 256.313 233.127 256.427 233.849C256.541 234.571 256.363 235.14 256.263 235.119Z" fill="#FAFAFA"/>
<path d="M250.354 241.26C250.283 241.329 249.927 241.065 249.564 240.677C249.201 240.288 248.966 239.92 249.044 239.851C249.122 239.782 249.471 240.045 249.834 240.434C250.197 240.823 250.432 241.19 250.354 241.26Z" fill="#FAFAFA"/>
<path d="M264.693 243.592C264.622 243.523 264.885 243.148 265.284 242.752C265.683 242.357 266.053 242.1 266.131 242.17C266.21 242.239 265.939 242.621 265.548 243.009C265.156 243.398 264.772 243.662 264.693 243.592Z" fill="#FAFAFA"/>
<path d="M256.448 252.79C256.349 252.79 256.349 252.242 256.448 251.603C256.548 250.965 256.705 250.465 256.811 250.479C256.918 250.493 256.911 251.02 256.811 251.659C256.712 252.297 256.548 252.804 256.448 252.79Z" fill="#FAFAFA"/>
<path d="M250.902 257.251C250.809 257.3 250.496 256.939 250.19 256.446C249.883 255.953 249.727 255.516 249.812 255.467C249.898 255.419 250.211 255.773 250.524 256.265C250.837 256.758 250.987 257.195 250.902 257.251Z" fill="#FAFAFA"/>
<path d="M264.266 262.879C264.33 262.962 263.967 263.316 263.454 263.67C262.942 264.024 262.493 264.246 262.429 264.163C262.365 264.079 262.735 263.725 263.241 263.371C263.746 263.017 264.209 262.802 264.266 262.879Z" fill="#FAFAFA"/>
<path d="M253.13 270.186C253.031 270.151 253.13 269.596 253.223 268.902C253.315 268.208 253.259 267.639 253.365 267.625C253.472 267.611 253.657 268.194 253.586 268.937C253.515 269.679 253.223 270.228 253.13 270.186Z" fill="#FAFAFA"/>
<path d="M257.581 280.681C257.495 280.743 257.196 280.507 256.904 280.153C256.612 279.799 256.449 279.459 256.527 279.397C256.605 279.334 256.904 279.57 257.196 279.924C257.488 280.278 257.659 280.618 257.581 280.681Z" fill="#FAFAFA"/>
<path d="M252.717 287.716C252.632 287.772 252.24 287.362 251.841 286.793C251.443 286.224 251.193 285.725 251.272 285.669C251.35 285.614 251.749 286.023 252.147 286.592C252.546 287.161 252.802 287.661 252.717 287.716Z" fill="#FAFAFA"/>
<path d="M266.11 278.883C266.017 278.849 266.024 278.592 266.11 278.314C266.195 278.037 266.387 277.828 266.487 277.863C266.587 277.898 266.573 278.155 266.487 278.439C266.402 278.724 266.209 278.925 266.11 278.883Z" fill="#FAFAFA"/>
<path d="M260.2 295.642C260.108 295.593 260.286 295.101 260.428 294.483C260.571 293.865 260.62 293.345 260.727 293.338C260.834 293.331 260.941 293.893 260.791 294.559C260.642 295.226 260.286 295.698 260.2 295.642Z" fill="#FAFAFA"/>
<path d="M264.045 188.392C263.952 188.434 263.725 188.156 263.539 187.768C263.354 187.379 263.276 187.032 263.369 186.99C263.461 186.949 263.689 187.226 263.874 187.615C264.059 188.004 264.152 188.351 264.045 188.392Z" fill="#FAFAFA"/>
<path d="M254.184 166.781C254.241 166.865 253.743 167.253 253.209 167.808C252.675 168.364 252.312 168.877 252.219 168.829C252.126 168.78 252.368 168.135 252.931 167.565C253.493 166.996 254.113 166.691 254.184 166.781Z" fill="#FAFAFA"/>
<path d="M262.963 166.559C262.856 166.559 262.692 166.164 262.443 165.692C262.194 165.22 261.966 164.831 262.044 164.762C262.123 164.692 262.507 164.998 262.756 165.525C263.006 166.053 263.056 166.504 262.963 166.559Z" fill="#FAFAFA"/>
<path d="M235.551 173.576C235.458 173.534 235.551 173.076 235.772 172.549C235.992 172.021 236.234 171.612 236.334 171.653C236.434 171.695 236.334 172.146 236.113 172.68C235.893 173.215 235.672 173.61 235.551 173.576Z" fill="#FAFAFA"/>
<path d="M236.441 184.054C236.37 184.13 235.964 183.908 235.53 183.554C235.096 183.2 234.818 182.86 234.861 182.777C234.903 182.694 235.338 182.923 235.772 183.277C236.206 183.631 236.505 183.978 236.441 184.054Z" fill="#FAFAFA"/>
<path d="M254.426 158.461C254.333 158.461 254.134 158.239 253.992 157.885C253.849 157.531 253.807 157.191 253.899 157.191C253.992 157.191 254.191 157.413 254.333 157.767C254.476 158.121 254.519 158.427 254.426 158.461Z" fill="#FAFAFA"/>
<path d="M271.649 163.582C271.55 163.582 271.557 163.145 271.649 162.652C271.742 162.16 271.927 161.771 272.027 161.792C272.126 161.813 272.119 162.236 272.027 162.729C271.934 163.221 271.749 163.603 271.649 163.582Z" fill="#FAFAFA"/>
<path d="M275.694 171.513C275.601 171.471 275.729 170.958 275.986 170.354C276.242 169.75 276.52 169.299 276.612 169.334C276.705 169.369 276.612 169.889 276.327 170.493C276.042 171.097 275.793 171.548 275.694 171.513Z" fill="#FAFAFA"/>
<path d="M272.81 177.912C272.717 177.954 272.375 177.475 272.048 176.843C271.72 176.212 271.535 175.65 271.628 175.608C271.72 175.566 272.055 176.045 272.383 176.677C272.71 177.308 272.902 177.863 272.81 177.912Z" fill="#FAFAFA"/>
<path d="M278.976 184.313C278.883 184.278 278.976 183.875 279.132 183.417C279.289 182.959 279.538 182.612 279.638 182.647C279.738 182.682 279.638 183.084 279.481 183.542C279.325 184 279.104 184.347 278.976 184.313Z" fill="#FAFAFA"/>
<path d="M273.465 190.579C273.38 190.634 273.159 190.447 272.981 190.169C272.803 189.892 272.718 189.614 272.81 189.559C272.903 189.503 273.109 189.69 273.294 189.975C273.479 190.259 273.551 190.53 273.465 190.579Z" fill="#FAFAFA"/>
<path d="M274.64 203.515C274.569 203.578 274.12 203.238 273.651 202.738C273.181 202.238 272.86 201.787 272.939 201.718C273.017 201.648 273.458 201.995 273.928 202.495C274.398 202.995 274.719 203.446 274.64 203.515Z" fill="#FAFAFA"/>
<path d="M281.867 196.081C281.788 196.143 281.397 195.796 280.998 195.297C280.599 194.797 280.343 194.353 280.421 194.29C280.5 194.228 280.891 194.582 281.29 195.075C281.689 195.567 281.952 196.025 281.867 196.081Z" fill="#FAFAFA"/>
<path d="M285.833 206.331C285.74 206.289 285.904 205.769 286.196 205.172C286.488 204.575 286.794 204.117 286.908 204.159C287.022 204.201 286.844 204.728 286.552 205.325C286.26 205.922 285.925 206.38 285.833 206.331Z" fill="#FAFAFA"/>
<path d="M277.402 214.772C277.31 214.82 276.982 214.439 276.526 214.029C276.071 213.62 275.651 213.335 275.693 213.231C275.736 213.127 276.277 213.314 276.776 213.766C277.274 214.217 277.488 214.723 277.402 214.772Z" fill="#FAFAFA"/>
<path d="M277.929 223.468C277.929 223.565 277.573 223.648 277.139 223.648C276.705 223.648 276.356 223.565 276.356 223.468C276.356 223.37 276.705 223.287 277.139 223.287C277.573 223.287 277.929 223.37 277.929 223.468Z" fill="#FAFAFA"/>
<path d="M286.595 221.04C286.502 220.991 286.687 220.554 286.823 220.012C286.958 219.471 287.015 218.999 287.122 218.992C287.228 218.985 287.342 219.492 287.186 220.096C287.029 220.7 286.673 221.095 286.595 221.04Z" fill="#FAFAFA"/>
<path d="M295.202 223.959C295.11 223.994 294.846 223.501 294.619 222.87C294.391 222.238 294.284 221.697 294.377 221.669C294.469 221.641 294.74 222.12 294.967 222.752C295.195 223.383 295.302 223.925 295.202 223.959Z" fill="#FAFAFA"/>
<path d="M293.828 235.896C293.743 235.848 293.964 235.265 294.32 234.591C294.676 233.918 295.032 233.412 295.139 233.46C295.245 233.509 295.01 234.092 294.647 234.758C294.284 235.424 293.921 235.959 293.828 235.896Z" fill="#FAFAFA"/>
<path d="M285.975 242.898C285.882 242.933 285.59 242.454 285.32 241.822C285.049 241.191 284.914 240.65 285.014 240.608C285.113 240.566 285.398 241.052 285.662 241.684C285.925 242.315 286.067 242.898 285.975 242.898Z" fill="#FAFAFA"/>
<path d="M277.274 245.612C277.274 245.709 276.975 245.793 276.612 245.793C276.249 245.793 275.957 245.709 275.957 245.612C275.957 245.515 276.256 245.432 276.612 245.432C276.968 245.432 277.274 245.515 277.274 245.612Z" fill="#FAFAFA"/>
<path d="M282.258 256.778C282.165 256.778 281.966 256.396 281.817 255.868C281.667 255.341 281.639 254.883 281.738 254.862C281.838 254.841 282.03 255.244 282.18 255.771C282.329 256.299 282.358 256.722 282.258 256.778Z" fill="#FAFAFA"/>
<path d="M275.957 253.031C275.872 252.983 275.957 252.656 276.192 252.302C276.427 251.949 276.662 251.706 276.748 251.754C276.833 251.803 276.748 252.136 276.513 252.49C276.278 252.844 276.05 253.087 275.957 253.031Z" fill="#FAFAFA"/>
<path d="M275.829 265.322C275.729 265.322 275.587 264.857 275.516 264.253C275.444 263.649 275.466 263.157 275.565 263.143C275.665 263.129 275.807 263.608 275.879 264.212C275.95 264.815 275.929 265.308 275.829 265.322Z" fill="#FAFAFA"/>
</svg>
