<svg xmlns="http://www.w3.org/2000/svg" fill="none" viewBox="0 0 161 20"><path d="M72.546 5.641a2.342 2.342 0 0 0-2.348 2.33v9.882c0 .537.44.973.98.973h.736c1.31 0 2.338-1.063 2.338-2.418V6.615a.977.977 0 0 0-.98-.972h-.726v-.002Zm-19.104-.004a4.84 4.84 0 0 0-3.398 1.368 7.552 7.552 0 0 0-.538.59c0-.095.01-.974.008-1.175-.004-.33-.312-.755-.94-.755-.017 0-.295.01-.388.01-.85 0-2.837.67-2.837 2.989v9.16c0 .536.44.972.98.972h.737a2.427 2.427 0 0 0 2.436-2.418v-5.119c.079-1.098.835-1.645 2.914-1.645 0 0 2.428.204 2.428-1.695-.01-1.168.173-2.282-1-2.282h-.406.004Zm8.51 3.282c1.654 0 2.558.813 2.558 1.625h-5.191c0-.44.853-1.625 2.633-1.625ZM58.43 6.256c-1.786.996-3.136 2.935-3.136 5.945 0 0-.274 4.245 3.175 6.151 2.146 1.188 5.285.795 6.527.192 2.173-1.054 2.406-2.116 2.378-2.595-.067-1.168-1.606-1.673-1.606-1.673-1.271-.663-1.185 1.465-3.635 1.465-2.228 0-2.811-1.477-2.934-2.316h7.825c.792 0 1.352-.65 1.35-1.347 0-2.252-.83-4.548-3.028-5.86-.898-.535-2.105-.856-3.386-.856-1.178 0-2.415.271-3.532.894m-40.149 5.887c0-2.519 1.654-3.234 2.984-3.234 1.648 0 2.984.973 2.984 3.234 0 0 .303 3.61-2.984 3.61-3.288 0-2.984-3.61-2.984-3.61Zm2.028-6.803c-2.797.018-4.302 1.343-5.227 3.036-.871 1.593-.831 3.84-.831 3.84 0 4.513 2.835 6.907 6.06 6.907 2.716 0 3.82-1.358 4.135-1.78 0 0-.246 1.477.923 1.477h.646c1.244 0 2.217-.967 2.217-2.198V6.55c0-.528-.432-.92-.963-.92 0 0-2.157-.03-2.698 1.996-.634-1.086-1.68-2.286-4.206-2.286h-.052m10.026 6.855c0 5 3.521 6.93 6.839 6.93 4.573 0 5.911-3.19 6.094-3.598.966-2.142-2.13-2.451-2.13-2.451a1.204 1.204 0 0 0-1.401.796c-.278.853-.94 1.665-2.487 1.665-2.617 0-2.95-2.182-2.95-3.342 0 0-.102-3.306 2.95-3.306 1.976 0 2.42 1.466 2.487 1.665.19.583.793.927 1.4.797.004 0 3.1-.3 2.131-2.452-.984-2.184-3.052-3.593-6.094-3.593-7.213 0-6.839 6.89-6.839 6.89Zm94.952-3.903v3.955c0 1.02-.233 1.815-.69 2.362-.982 1.172-2.704.895-3.372.232-.61-.605-.555-1.77-.555-2.638V6.236c0-.864-.956-.958-.966-.958-2.127 0-3.187 1.797-3.187 3.014v4.95c0 1.287.607 5.552 5.223 5.552 2.77 0 3.374-1.33 3.561-1.634v.37c0 .529.433.958.966.958h.738a2.432 2.432 0 0 0 2.439-2.42V6.232c0-.864-.956-.958-.966-.958-2.127 0-3.187 1.797-3.187 3.014m28.619.284c1.654 0 2.557.812 2.557 1.625h-5.191c0-.441.853-1.625 2.634-1.625Zm-3.523-2.663c-1.787.996-3.137 2.936-3.137 5.945 0 0-.274 4.244 3.175 6.151 2.147 1.188 5.285.795 6.527.192 2.175-1.055 2.406-2.117 2.378-2.596-.066-1.168-1.605-1.673-1.605-1.673-1.272-.663-1.186 1.466-3.636 1.466-2.227 0-2.811-1.476-2.934-2.316h7.825c.793 0 1.352-.651 1.35-1.348 0-2.252-.829-4.548-3.028-5.86-.897-.534-2.105-.856-3.386-.856-1.177 0-2.415.272-3.531.895m-46.449 5.9c0-2.52 1.654-3.235 2.984-3.235 1.647 0 2.983.972 2.983 3.234 0 0 .304 3.61-2.983 3.61-3.288 0-2.984-3.61-2.984-3.61Zm2.028-6.805c-2.797.018-4.302 1.344-5.227 3.037-.871 1.593-.831 3.839-.831 3.839 0 4.514 2.837 6.908 6.06 6.908 2.716 0 3.821-1.358 4.135-1.781 0 0-.246 1.477.923 1.477h.646c1.243 0 2.217-.966 2.217-2.198V6.214c0-.527-.432-.92-.964-.92 0 0-2.156-.03-2.698 1.996-.633-1.086-1.68-2.286-4.205-2.286h-.05M1.381 1.538c-.547 0-1.05.442-1.05.987l.01 13.751c0 1.334 1.095 2.418 2.439 2.418h6.927c.336 0 .935-.062 1.185-.18 1.843-.878 2.256-3.647.678-3.647H5.29a.791.791 0 0 1-.793-.787l.046-10.084a2.473 2.473 0 0 0-2.479-2.46h-.682v.002Zm87.778-.21c-4.376 0-5.25 3.772-5.25 5.233 0 2.109 1.059 3.724 2.733 4.52.825.394 1.754.593 2.758.593h2.614c.332 0 1.551.242 1.551 1.564 0 .283-.233 1.539-1.551 1.539h-4.827c-2.68 0-2.577 2.767-2.577 2.767 0 .51.42.928.935.928h7.05c4.449 0 5.274-3.913 5.274-5.594 0-4.474-4.131-5.04-5.517-5.04h-2.735c-.39 0-1.382-.248-1.382-1.396 0-.278.185-1.42 1.382-1.42h4.608c2.68 0 2.58-2.765 2.58-2.767a.934.934 0 0 0-.936-.928h-6.71v.002Zm-17.213-.213a1.94 1.94 0 0 0-1.948 1.933 1.94 1.94 0 0 0 1.948 1.932h.489a1.94 1.94 0 0 0 1.948-1.932 1.94 1.94 0 0 0-1.948-1.933h-.489Zm63.547 10.769c0-2.567 1.61-3.336 2.927-3.336 1.435 0 2.928.888 2.928 3.22 0 .116.382 3.628-2.928 3.628-3.309 0-2.927-3.51-2.927-3.51M144.384.343h-.018a3.17 3.17 0 0 0-2.209.91 2.943 2.943 0 0 0-.898 2.106V6.4c-1.303-1.479-2.881-1.437-3.818-1.437-6.111 0-5.992 6.916-5.992 6.916 0 6.255 4.732 6.896 5.992 6.896 2.834 0 3.591-1.322 3.869-1.67v.406c0 .529.434.96.965.96h.739a2.314 2.314 0 0 0 2.32-2.302V1.305a.958.958 0 0 0-.948-.958l-.002-.004ZM125.441.125c-.509 0-.992.228-1.294.615l-1.706 2.953c-.199.253-.271.559-.195.838.121.447.553.76 1.048.76 1.632 0 3.099-1.231 3.831-2.567l.618-1.126c.155-.283.175-.597.052-.862-.171-.371-.561-.609-.994-.609h-1.356l-.004-.002Z" fill="#018762"/></svg>