<svg width="70" height="71" viewBox="0 0 70 71" fill="none" xmlns="http://www.w3.org/2000/svg">
<circle cx="35" cy="35.0021" r="33.5" stroke="url(#paint0_linear_158_35307)" stroke-width="3"/>
<path d="M42.8943 17.71C42.4382 17.2741 41.8966 16.9282 41.3006 16.6922C40.7045 16.4563 40.0657 16.3348 39.4205 16.3348C38.7753 16.3348 38.1364 16.4563 37.5404 16.6922C36.9443 16.9282 36.4028 17.2741 35.9467 17.71L35.0001 18.6144L34.0535 17.71C33.1322 16.8298 31.8826 16.3353 30.5797 16.3353C29.2768 16.3353 28.0272 16.8298 27.1059 17.71C26.1846 18.5903 25.667 19.7842 25.667 21.029C25.667 22.2739 26.1846 23.4678 27.1059 24.348L28.0525 25.2524L35.0001 31.8904L41.9477 25.2524L42.8943 24.348C43.3506 23.9122 43.7126 23.3948 43.9596 22.8253C44.2065 22.2559 44.3337 21.6455 44.3337 21.029C44.3337 20.4126 44.2065 19.8022 43.9596 19.2327C43.7126 18.6632 43.3506 18.1458 42.8943 17.71Z" stroke="url(#paint1_linear_158_35307)" stroke-width="3" stroke-linecap="round" stroke-linejoin="round"/>
<path d="M27.0968 42.7462C27.0968 42.7462 22.5731 38.6636 19.2272 36.8966C17.8685 36.179 15.7687 36.1678 13.9999 37.7234C13.5425 38.1257 15.7687 40.3198 15.7687 40.3198L24.3816 48.2451C24.3816 48.2451 27.9936 51.3345 29.5554 51.3345C35.2466 51.3345 41.3503 49.0313 42.4297 49.5006C42.9312 49.7186 48.1209 54.4456 48.1209 54.4456L54.4444 48.1098C54.4444 48.1098 48.1209 40.3832 45.9077 40.0742C42.5871 39.6105 37.371 40.6923 37.371 40.6923L28.0314 41.0482C28.0314 41.0482 26.621 41.3104 27.2534 43.6284C27.8857 45.9463 36.1063 45.3282 36.1063 45.3282L42.4297 45.0192" stroke="url(#paint2_linear_158_35307)" stroke-width="3"/>
<defs>
<linearGradient id="paint0_linear_158_35307" x1="12.8516" y1="0.00214326" x2="71.2046" y2="16.11" gradientUnits="userSpaceOnUse">
<stop stop-color="#018383"/>
<stop offset="1" stop-color="#014687"/>
</linearGradient>
<linearGradient id="paint1_linear_158_35307" x1="29.0941" y1="16.3348" x2="44.1848" y2="21.3336" gradientUnits="userSpaceOnUse">
<stop stop-color="#018383"/>
<stop offset="1" stop-color="#014687"/>
</linearGradient>
<linearGradient id="paint2_linear_158_35307" x1="21.3747" y1="36.4294" x2="47.6092" y2="52.7115" gradientUnits="userSpaceOnUse">
<stop stop-color="#018383"/>
<stop offset="1" stop-color="#014687"/>
</linearGradient>
</defs>
</svg>
