<svg width="90" height="90" viewBox="0 0 90 90" fill="none" xmlns="http://www.w3.org/2000/svg">
<path d="M36.6395 28.9652C36.5038 28.6766 36.2888 28.4326 36.0196 28.2617C35.7504 28.0908 35.4381 28 35.1192 28C34.8003 28 34.488 28.0908 34.2188 28.2617C33.9496 28.4326 33.7346 28.6766 33.5989 28.9652L20.1597 57.5235C20.0658 57.7231 20.0122 57.9393 20.0018 58.1597C19.9915 58.3801 20.0247 58.6003 20.0994 58.8079C20.2505 59.2271 20.5618 59.5691 20.965 59.7588C21.3683 59.9484 21.8303 59.9701 22.2495 59.8191C22.6687 59.668 23.0107 59.3567 23.2004 58.9535L26.6987 51.5199H43.5397L47.0381 58.9535C47.132 59.1531 47.2643 59.3323 47.4274 59.4808C47.5906 59.6294 47.7814 59.7443 47.9889 59.8191C48.1965 59.8938 48.4168 59.927 48.6371 59.9167C48.8575 59.9063 49.0737 59.8527 49.2734 59.7588C49.473 59.6649 49.6522 59.5326 49.8007 59.3694C49.9493 59.2063 50.0642 59.0155 50.139 58.8079C50.2137 58.6003 50.2469 58.3801 50.2366 58.1597C50.2262 57.9393 50.1726 57.7231 50.0787 57.5235L36.6395 28.9652ZM28.2799 48.1601L35.1192 33.627L41.9585 48.1601H28.2799ZM60.3176 38.0808C57.6382 38.0808 55.5446 38.8094 54.0957 40.2478C53.7924 40.5641 53.6246 40.9863 53.6282 41.4245C53.6318 41.8627 53.8064 42.2821 54.1149 42.5933C54.4234 42.9046 54.8413 43.0829 55.2794 43.0904C55.7176 43.0979 56.1413 42.9338 56.4602 42.6333C57.2581 41.8416 58.56 41.4406 60.3176 41.4406C63.0958 41.4406 65.3573 43.3304 65.3573 45.6403V46.3165C63.8666 45.3191 62.1112 44.791 60.3176 44.8004C55.6853 44.8004 51.9182 48.1916 51.9182 52.3599C51.9182 56.5281 55.6853 59.9194 60.3176 59.9194C62.112 59.9273 63.8674 59.397 65.3573 58.397C65.3782 58.8425 65.5752 59.2615 65.905 59.5618C66.2348 59.8621 66.6704 60.019 67.116 59.9982C67.5615 59.9773 67.9805 59.7803 68.2808 59.4504C68.581 59.1206 68.738 58.685 68.7171 58.2395V45.6403C68.7171 41.4721 64.9499 38.0808 60.3176 38.0808ZM60.3176 56.5596C57.5395 56.5596 55.2779 54.6697 55.2779 52.3599C55.2779 50.05 57.5395 48.1601 60.3176 48.1601C63.0958 48.1601 65.3573 50.05 65.3573 52.3599C65.3573 54.6697 63.0958 56.5596 60.3176 56.5596Z" fill="url(#paint0_linear_30_93200)"/>
<circle cx="45" cy="45" r="42.5" stroke="url(#paint1_linear_30_93200)" stroke-width="5"/>
<defs>
<linearGradient id="paint0_linear_30_93200" x1="28.9445" y1="28" x2="66.0911" y2="43.6114" gradientUnits="userSpaceOnUse">
<stop stop-color="#018383"/>
<stop offset="1" stop-color="#014687"/>
</linearGradient>
<linearGradient id="paint1_linear_30_93200" x1="16.5234" y1="9.04059e-06" x2="91.5488" y2="20.7101" gradientUnits="userSpaceOnUse">
<stop stop-color="#018383"/>
<stop offset="1" stop-color="#014687"/>
</linearGradient>
</defs>
</svg>
