<svg width="90" height="90" viewBox="0 0 90 90" fill="none" xmlns="http://www.w3.org/2000/svg">
<path d="M21.5556 29C19.6107 29 18 30.6107 18 32.5556V57.4444C18 59.3893 19.6107 61 21.5556 61H67.7778C69.7227 61 71.3333 59.3893 71.3333 57.4444V32.5556C71.3333 30.6107 69.7227 29 67.7778 29H21.5556ZM21.5556 32.5556H67.7778V57.4444H21.5556V32.5556ZM25.1111 36.1111V39.6667H28.6667V36.1111H25.1111ZM32.2222 36.1111V39.6667H35.7778V36.1111H32.2222ZM39.3333 36.1111V39.6667H42.8889V36.1111H39.3333ZM46.4444 36.1111V39.6667H50V36.1111H46.4444ZM53.5556 36.1111V39.6667H57.1111V36.1111H53.5556ZM60.6667 36.1111V39.6667H64.2222V36.1111H60.6667ZM25.1111 43.2222V46.7778H32.2222V43.2222H25.1111ZM35.7778 43.2222V46.7778H39.3333V43.2222H35.7778ZM42.8889 43.2222V46.7778H46.4444V43.2222H42.8889ZM50 43.2222V46.7778H53.5556V43.2222H50ZM57.1111 43.2222V46.7778H64.2222V43.2222H57.1111ZM25.1111 50.3333V53.8889H32.2222V50.3333H25.1111ZM35.7778 50.3333V53.8889H53.5556V50.3333H35.7778ZM57.1111 50.3333V53.8889H64.2222V50.3333H57.1111Z" fill="url(#paint0_linear_30_93190)"/>
<circle cx="45" cy="45" r="42.5" stroke="url(#paint1_linear_30_93190)" stroke-width="5"/>
<defs>
<linearGradient id="paint0_linear_30_93190" x1="27.7917" y1="29" x2="67.2805" y2="47.1676" gradientUnits="userSpaceOnUse">
<stop stop-color="#018383"/>
<stop offset="1" stop-color="#014687"/>
</linearGradient>
<linearGradient id="paint1_linear_30_93190" x1="16.5234" y1="9.04059e-06" x2="91.5488" y2="20.7101" gradientUnits="userSpaceOnUse">
<stop stop-color="#018383"/>
<stop offset="1" stop-color="#014687"/>
</linearGradient>
</defs>
</svg>
